<?xml version="1.0" encoding="UTF-8"?>
<svg id="Layer_1" data-name="Layer 1" xmlns="http://www.w3.org/2000/svg" xmlns:xlink="http://www.w3.org/1999/xlink" viewBox="0 0 691.2 364.25">
  <defs>
    <style>
      .cls-1 {
        opacity: .42;
        stroke: #244c63;
        stroke-width: .99px;
      }

      .cls-1, .cls-2, .cls-3, .cls-4, .cls-5, .cls-6, .cls-7, .cls-8, .cls-9, .cls-10 {
        isolation: isolate;
      }

      .cls-1, .cls-11, .cls-6, .cls-7, .cls-10 {
        stroke-miterlimit: 11.34;
      }

      .cls-1, .cls-6, .cls-7, .cls-10 {
        fill: none;
      }

      .cls-2, .cls-9 {
        opacity: .95;
      }

      .cls-3 {
        opacity: .92;
      }

      .cls-4 {
        opacity: .9;
      }

      .cls-5 {
        opacity: .88;
      }

      .cls-12, .cls-9 {
        fill: #f1d78b;
      }

      .cls-11 {
        fill: url(#linear-gradient-2);
        stroke: #3b657c;
        stroke-width: 3.26px;
      }

      .cls-6 {
        opacity: .36;
        stroke: #2b5165;
        stroke-width: 1.28px;
      }

      .cls-13 {
        fill: url(#linear-gradient);
      }

      .cls-7 {
        opacity: .45;
        stroke: #876a2f;
      }

      .cls-7, .cls-10 {
        stroke-width: 1.56px;
      }

      .cls-9 {
        font-family: ArialMT, Arial;
        font-size: 7.23px;
      }

      .cls-14 {
        fill: #fff;
      }

      .cls-15 {
        fill: #8fb7cb;
      }

      .cls-16 {
        fill: #9dc6db;
      }

      .cls-10 {
        opacity: .62;
        stroke: #8a6b2f;
      }
    </style>
    <linearGradient id="linear-gradient" x1="206.06" y1="339.41" x2="206.06" y2="210.91" gradientTransform="translate(-238.5 962.09) scale(2.83 -2.83)" gradientUnits="userSpaceOnUse">
      <stop offset="0" stop-color="#141b22"/>
      <stop offset="1" stop-color="#091018"/>
    </linearGradient>
    <linearGradient id="linear-gradient-2" x1="205.64" y1="325.41" x2="205.64" y2="249.41" gradientTransform="translate(-238.5 962.09) scale(2.83 -2.83)" gradientUnits="userSpaceOnUse">
      <stop offset="0" stop-color="#06111b"/>
      <stop offset="1" stop-color="#01060a"/>
    </linearGradient>
  </defs>
  <rect class="cls-13" width="691.2" height="364.25"/>
  <rect class="cls-10" x="9.07" y="9.07" width="673.06" height="346.11" rx="8.5" ry="8.5"/>
  <rect class="cls-11" x="68.03" y="39.69" width="552.76" height="215.43" rx="11.34" ry="11.34"/>
  <rect class="cls-1" x="70.58" y="42.24" width="547.65" height="210.33" rx="9.07" ry="9.07"/>
  <g class="cls-8">
    <path class="cls-12" d="M280.96,21.75v-1.38h4.99s0,4.36,0,4.36c-.77.61-1.55,1.07-2.37,1.38s-1.65.46-2.5.46c-1.16,0-2.21-.25-3.15-.74-.95-.49-1.66-1.21-2.14-2.15s-.72-1.98-.72-3.14.24-2.21.72-3.21c.48-.99,1.17-1.73,2.07-2.21.9-.48,1.93-.72,3.11-.72.85,0,1.62.14,2.31.41.69.28,1.23.66,1.62,1.15.39.49.69,1.13.89,1.93l-1.4.39c-.18-.6-.4-1.07-.66-1.41-.26-.34-.64-.62-1.12-.82-.49-.21-1.03-.31-1.62-.31-.71,0-1.33.11-1.85.33-.52.22-.94.5-1.26.85-.32.35-.57.74-.74,1.16-.3.73-.45,1.52-.45,2.37,0,1.05.18,1.93.54,2.63s.89,1.23,1.58,1.57c.69.34,1.42.51,2.2.51.67,0,1.33-.13,1.97-.39.64-.26,1.13-.54,1.46-.83v-2.19h-3.46Z"/>
    <path class="cls-12" d="M289.87,26.36v-11.77h1.56v10.38h5.8v1.39h-7.35Z"/>
    <path class="cls-12" d="M299.47,26.36l4.52-11.77h1.68l4.82,11.77h-1.77l-1.37-3.56h-4.92l-1.29,3.56h-1.65ZM302.87,21.53h3.99l-1.23-3.26c-.37-.99-.65-1.8-.83-2.44-.15.75-.36,1.5-.63,2.25l-1.29,3.45Z"/>
    <path class="cls-12" d="M312.9,22.58l1.47-.13c.07.59.23,1.07.49,1.45s.65.68,1.18.92,1.14.35,1.81.35c.59,0,1.12-.09,1.57-.26.46-.18.79-.42,1.02-.73.22-.31.33-.64.33-1.01s-.11-.69-.32-.97c-.21-.28-.57-.51-1.06-.69-.32-.12-1.01-.31-2.09-.57-1.08-.26-1.84-.5-2.27-.73-.56-.29-.98-.66-1.26-1.1-.28-.44-.41-.92-.41-1.46,0-.59.17-1.15.51-1.67.34-.52.83-.91,1.48-1.18s1.37-.4,2.16-.4c.87,0,1.64.14,2.31.42.67.28,1.18.69,1.54,1.24s.55,1.16.58,1.85l-1.49.11c-.08-.74-.35-1.31-.82-1.69-.46-.38-1.15-.57-2.05-.57s-1.63.17-2.06.52c-.43.35-.65.76-.65,1.25,0,.42.15.77.46,1.04.3.27,1.08.55,2.35.84,1.27.29,2.13.54,2.6.75.69.32,1.19.72,1.52,1.2s.49,1.04.49,1.67-.18,1.22-.54,1.77c-.36.55-.87.98-1.55,1.29-.67.31-1.43.46-2.27.46-1.07,0-1.96-.16-2.68-.47-.72-.31-1.29-.78-1.69-1.4s-.62-1.33-.65-2.12Z"/>
    <path class="cls-12" d="M325.56,22.58l1.47-.13c.07.59.23,1.07.49,1.45s.65.68,1.18.92,1.14.35,1.81.35c.59,0,1.12-.09,1.57-.26.46-.18.79-.42,1.02-.73.22-.31.33-.64.33-1.01s-.11-.69-.32-.97c-.21-.28-.57-.51-1.06-.69-.32-.12-1.01-.31-2.09-.57-1.08-.26-1.84-.5-2.27-.73-.56-.29-.98-.66-1.26-1.1-.28-.44-.41-.92-.41-1.46,0-.59.17-1.15.51-1.67.34-.52.83-.91,1.48-1.18s1.37-.4,2.16-.4c.87,0,1.64.14,2.31.42.67.28,1.18.69,1.54,1.24s.55,1.16.58,1.85l-1.49.11c-.08-.74-.35-1.31-.82-1.69-.46-.38-1.15-.57-2.05-.57s-1.63.17-2.06.52c-.43.35-.65.76-.65,1.25,0,.42.15.77.46,1.04.3.27,1.08.55,2.35.84,1.27.29,2.13.54,2.6.75.69.32,1.19.72,1.52,1.2s.49,1.04.49,1.67-.18,1.22-.54,1.77c-.36.55-.87.98-1.55,1.29-.67.31-1.43.46-2.27.46-1.07,0-1.96-.16-2.68-.47-.72-.31-1.29-.78-1.69-1.4s-.62-1.33-.65-2.12Z"/>
    <path class="cls-12" d="M344.94,26.36v-11.77h4.42c.9,0,1.62.12,2.16.36.54.24.97.6,1.28,1.1s.46,1.01.46,1.55c0,.5-.14.98-.41,1.42-.27.44-.68.8-1.24,1.08.71.21,1.26.56,1.64,1.07s.57,1.1.57,1.78c0,.55-.12,1.06-.35,1.54-.23.47-.52.84-.86,1.1-.34.26-.77.45-1.29.58-.52.13-1.15.2-1.9.2h-4.49ZM346.5,19.54h2.54c.69,0,1.19-.05,1.49-.14.4-.12.69-.31.89-.59.2-.27.3-.62.3-1.03,0-.39-.09-.73-.28-1.03-.19-.3-.46-.5-.8-.61-.35-.11-.95-.16-1.79-.16h-2.35v3.56ZM346.5,24.97h2.93c.5,0,.86-.02,1.06-.06.36-.06.66-.17.9-.32s.44-.37.59-.65c.16-.29.23-.62.23-.99,0-.44-.11-.82-.34-1.14-.23-.32-.54-.55-.94-.68-.4-.13-.97-.2-1.72-.2h-2.72v4.05Z"/>
    <path class="cls-12" d="M357.69,26.36v-11.77h5.22c1.05,0,1.85.11,2.39.32.54.21.98.58,1.31,1.12.33.54.49,1.13.49,1.77,0,.83-.27,1.54-.81,2.11-.54.57-1.38.94-2.5,1.09.41.2.72.39.94.59.45.42.89.94,1.29,1.57l2.05,3.2h-1.96l-1.56-2.45c-.46-.71-.83-1.25-1.12-1.62-.29-.37-.56-.64-.79-.79-.23-.15-.47-.25-.71-.31-.18-.04-.47-.06-.87-.06h-1.81v5.23h-1.56ZM359.25,19.79h3.35c.71,0,1.27-.07,1.67-.22.4-.15.71-.38.92-.71s.31-.68.31-1.06c0-.56-.2-1.01-.61-1.37-.4-.36-1.04-.54-1.91-.54h-3.73v3.89Z"/>
    <path class="cls-12" d="M371.5,26.36v-11.77h1.56v11.77h-1.56Z"/>
    <path class="cls-12" d="M377.49,26.36v-11.77h4.05c.92,0,1.61.06,2.1.17.67.16,1.25.44,1.73.84.62.52,1.08,1.19,1.39,2.01.31.82.46,1.75.46,2.8,0,.89-.1,1.69-.31,2.38-.21.69-.48,1.26-.8,1.71-.33.45-.68.81-1.07,1.07-.39.26-.86.46-1.41.59-.55.13-1.18.2-1.89.2h-4.25ZM379.05,24.97h2.51c.78,0,1.38-.07,1.83-.22s.79-.35,1.06-.61c.37-.37.66-.87.86-1.49s.31-1.38.31-2.27c0-1.23-.2-2.18-.61-2.84-.4-.66-.89-1.1-1.47-1.33-.42-.16-1.09-.24-2.01-.24h-2.47v8.99Z"/>
    <path class="cls-12" d="M396.57,21.75v-1.38h4.99s0,4.36,0,4.36c-.77.61-1.55,1.07-2.37,1.38s-1.65.46-2.5.46c-1.16,0-2.21-.25-3.15-.74-.95-.49-1.66-1.21-2.14-2.15s-.72-1.98-.72-3.14.24-2.21.72-3.21c.48-.99,1.17-1.73,2.07-2.21.9-.48,1.93-.72,3.11-.72.85,0,1.62.14,2.31.41.69.28,1.23.66,1.62,1.15.39.49.69,1.13.89,1.93l-1.4.39c-.18-.6-.4-1.07-.66-1.41-.26-.34-.64-.62-1.12-.82-.49-.21-1.03-.31-1.62-.31-.71,0-1.33.11-1.85.33-.52.22-.94.5-1.26.85-.32.35-.57.74-.74,1.16-.3.73-.45,1.52-.45,2.37,0,1.05.18,1.93.54,2.63s.89,1.23,1.58,1.57c.69.34,1.42.51,2.2.51.67,0,1.33-.13,1.97-.39.64-.26,1.13-.54,1.46-.83v-2.19h-3.46Z"/>
    <path class="cls-12" d="M405.57,26.36v-11.77h8.51v1.39h-6.95v3.6h6.51v1.38h-6.51v4.01h7.23v1.39h-8.78Z"/>
  </g>
  <g class="cls-5">
    <path class="cls-16" d="M299.35,272.54l.7.18c-.15.57-.41,1.01-.79,1.31-.38.3-.85.45-1.39.45s-1.03-.12-1.39-.35c-.36-.23-.63-.57-.81-1.01-.19-.44-.28-.91-.28-1.42,0-.55.1-1.03.31-1.44s.51-.72.9-.93c.39-.21.81-.32,1.28-.32.53,0,.97.13,1.33.4.36.27.61.65.75,1.13l-.69.16c-.12-.38-.3-.66-.53-.84-.23-.17-.53-.26-.88-.26-.41,0-.74.1-1.02.29s-.46.46-.57.78c-.11.33-.17.67-.17,1.01,0,.45.07.84.2,1.17s.33.58.61.75c.28.17.58.25.9.25.39,0,.72-.11.99-.34s.45-.56.55-1Z"/>
    <path class="cls-16" d="M302.42,274.39l-2.04-5.28h.76l1.37,3.83c.11.31.2.6.28.86.08-.29.18-.58.28-.86l1.42-3.83h.71l-2.07,5.28h-.72Z"/>
    <path class="cls-16" d="M309.38,274.39l-2.04-5.28h.76l1.37,3.83c.11.31.2.6.28.86.08-.29.18-.58.28-.86l1.42-3.83h.71l-2.07,5.28h-.72Z"/>
    <path class="cls-16" d="M312.91,274.39v-5.28h.7v5.28h-.7Z"/>
    <path class="cls-16" d="M314.6,272.7l.66-.06c.03.26.1.48.22.65.11.17.29.31.53.41.24.1.51.16.81.16.27,0,.5-.04.71-.12s.36-.19.46-.33.15-.29.15-.45-.05-.31-.14-.43c-.1-.12-.25-.23-.47-.31-.14-.06-.46-.14-.94-.26-.49-.12-.82-.23-1.02-.33-.25-.13-.44-.3-.56-.49-.12-.2-.19-.41-.19-.66,0-.27.08-.51.23-.75.15-.23.37-.41.66-.53.29-.12.61-.18.97-.18.39,0,.74.06,1.03.19s.53.31.69.56c.16.25.25.52.26.83l-.67.05c-.04-.33-.16-.58-.37-.76-.21-.17-.51-.25-.92-.25s-.73.08-.92.23c-.19.16-.29.34-.29.56,0,.19.07.35.21.47.13.12.48.25,1.05.38.57.13.96.24,1.17.34.31.14.53.32.68.54.15.22.22.47.22.75s-.08.55-.24.79c-.16.25-.39.44-.69.58s-.64.21-1.02.21c-.48,0-.88-.07-1.2-.21-.32-.14-.58-.35-.76-.63-.18-.28-.28-.6-.29-.95Z"/>
    <path class="cls-16" d="M323.21,269.12h.7v3.05c0,.53-.06.95-.18,1.26-.12.31-.34.57-.65.76-.31.2-.72.29-1.23.29s-.9-.08-1.21-.26c-.31-.17-.54-.42-.67-.74-.13-.32-.2-.76-.2-1.32v-3.05h.7v3.04c0,.46.04.8.13,1.01.08.22.23.38.44.5.21.12.46.18.76.18.51,0,.88-.12,1.1-.35.22-.23.33-.68.33-1.34v-3.04Z"/>
    <path class="cls-16" d="M324.49,274.39l2.03-5.28h.75l2.16,5.28h-.8l-.62-1.6h-2.21l-.58,1.6h-.74ZM326.02,272.23h1.79l-.55-1.46c-.17-.44-.29-.81-.37-1.09-.07.34-.16.67-.28,1.01l-.58,1.55Z"/>
    <path class="cls-16" d="M329.96,274.39v-5.28h.7v4.65h2.6v.62h-3.3Z"/>
    <path class="cls-16" d="M335.83,274.39v-5.28h1.98c.4,0,.73.05.97.16.24.11.43.27.57.49.14.22.21.45.21.7,0,.23-.06.44-.18.64-.12.2-.31.36-.55.48.32.09.56.25.74.48.17.23.26.49.26.8,0,.25-.05.48-.16.69-.1.21-.23.38-.39.49-.15.11-.35.2-.58.26s-.51.09-.85.09h-2.01ZM336.53,271.34h1.14c.31,0,.53-.02.67-.06.18-.05.31-.14.4-.26.09-.12.14-.28.14-.46,0-.17-.04-.33-.13-.46s-.2-.22-.36-.27c-.16-.05-.42-.07-.8-.07h-1.05v1.59ZM336.53,273.77h1.31c.23,0,.38,0,.47-.02.16-.03.29-.08.4-.14.11-.07.2-.17.27-.29.07-.13.1-.28.1-.44,0-.2-.05-.37-.15-.51-.1-.15-.24-.25-.42-.31-.18-.06-.44-.09-.77-.09h-1.22v1.81Z"/>
    <path class="cls-16" d="M340.79,274.39v-5.28h2.34c.47,0,.83.05,1.07.14.24.09.44.26.59.5.15.24.22.51.22.8,0,.37-.12.69-.36.95s-.62.42-1.12.49c.18.09.33.18.42.26.2.19.4.42.58.7l.92,1.44h-.88l-.7-1.1c-.2-.32-.37-.56-.5-.73s-.25-.29-.35-.35c-.1-.07-.21-.11-.32-.14-.08-.02-.21-.03-.39-.03h-.81v2.34h-.7ZM341.49,271.45h1.5c.32,0,.57-.03.75-.1.18-.07.32-.17.41-.32.09-.14.14-.3.14-.47,0-.25-.09-.46-.27-.62-.18-.16-.47-.24-.86-.24h-1.67v1.75Z"/>
    <path class="cls-16" d="M346.22,274.39v-5.28h.7v5.28h-.7Z"/>
    <path class="cls-16" d="M348.15,274.39v-5.28h1.82c.41,0,.72.03.94.08.3.07.56.2.77.38.28.24.49.54.62.9.14.37.21.78.21,1.25,0,.4-.05.76-.14,1.07s-.21.57-.36.77-.31.36-.48.48-.38.2-.63.26c-.25.06-.53.09-.85.09h-1.9ZM348.85,273.77h1.13c.35,0,.62-.03.82-.1s.36-.16.47-.27c.17-.17.29-.39.39-.67.09-.28.14-.62.14-1.02,0-.55-.09-.98-.27-1.27-.18-.3-.4-.5-.66-.6-.19-.07-.49-.11-.9-.11h-1.11v4.03Z"/>
    <path class="cls-16" d="M355.94,272.33v-.62h2.24s0,1.95,0,1.95c-.34.27-.7.48-1.06.62-.36.14-.74.21-1.12.21-.52,0-.99-.11-1.41-.33-.42-.22-.74-.54-.96-.96-.22-.42-.32-.89-.32-1.41s.11-.99.32-1.44c.21-.44.52-.78.93-.99.4-.22.87-.32,1.39-.32.38,0,.73.06,1.04.18.31.12.55.3.72.52.18.22.31.51.4.86l-.63.17c-.08-.27-.18-.48-.3-.63-.12-.15-.29-.28-.5-.37-.22-.09-.46-.14-.73-.14-.32,0-.59.05-.83.15-.23.1-.42.22-.56.38s-.25.33-.33.52c-.13.33-.2.68-.2,1.06,0,.47.08.86.24,1.18.16.32.4.55.71.71.31.15.64.23.99.23.3,0,.6-.06.89-.17.29-.12.51-.24.65-.37v-.98h-1.55Z"/>
    <path class="cls-16" d="M359.22,274.39v-5.28h3.81v.62h-3.12v1.62h2.92v.62h-2.92v1.79h3.24v.62h-3.94Z"/>
    <path class="cls-16" d="M366.17,274.39v-5.28h1.82c.41,0,.72.03.94.08.3.07.56.2.77.38.28.24.49.54.62.9.14.37.21.78.21,1.25,0,.4-.05.76-.14,1.07s-.21.57-.36.77-.31.36-.48.48-.38.2-.63.26c-.25.06-.53.09-.85.09h-1.9ZM366.86,273.77h1.13c.35,0,.62-.03.82-.1s.36-.16.47-.27c.17-.17.29-.39.39-.67.09-.28.14-.62.14-1.02,0-.55-.09-.98-.27-1.27-.18-.3-.4-.5-.66-.6-.19-.07-.49-.11-.9-.11h-1.11v4.03Z"/>
    <path class="cls-16" d="M371.61,274.39v-5.28h.7v5.28h-.7Z"/>
    <path class="cls-16" d="M373.3,272.7l.66-.06c.03.26.1.48.22.65.11.17.29.31.53.41.24.1.51.16.81.16.27,0,.5-.04.71-.12s.36-.19.46-.33.15-.29.15-.45-.05-.31-.14-.43c-.1-.12-.25-.23-.47-.31-.14-.06-.46-.14-.94-.26-.49-.12-.82-.23-1.02-.33-.25-.13-.44-.3-.56-.49-.12-.2-.19-.41-.19-.66,0-.27.08-.51.23-.75.15-.23.37-.41.66-.53.29-.12.61-.18.97-.18.39,0,.74.06,1.03.19s.53.31.69.56c.16.25.25.52.26.83l-.67.05c-.04-.33-.16-.58-.37-.76-.21-.17-.51-.25-.92-.25s-.73.08-.92.23c-.19.16-.29.34-.29.56,0,.19.07.35.21.47.13.12.48.25,1.05.38.57.13.96.24,1.17.34.31.14.53.32.68.54.15.22.22.47.22.75s-.08.55-.24.79c-.16.25-.39.44-.69.58s-.64.21-1.02.21c-.48,0-.88-.07-1.2-.21-.32-.14-.58-.35-.76-.63-.18-.28-.28-.6-.29-.95Z"/>
    <path class="cls-16" d="M378.45,274.39v-5.28h1.99c.35,0,.62.02.8.05.26.04.48.13.65.25.17.12.32.29.42.51.11.22.16.46.16.72,0,.45-.14.83-.43,1.14-.29.31-.8.47-1.55.47h-1.35v2.14h-.7ZM379.15,271.63h1.36c.45,0,.77-.08.96-.25s.28-.4.28-.71c0-.22-.06-.41-.17-.57-.11-.16-.26-.26-.44-.31-.12-.03-.33-.05-.65-.05h-1.35v1.89Z"/>
    <path class="cls-16" d="M383.34,274.39v-5.28h.7v4.65h2.6v.62h-3.3Z"/>
    <path class="cls-16" d="M386.89,274.39l2.03-5.28h.75l2.16,5.28h-.8l-.62-1.6h-2.21l-.58,1.6h-.74ZM388.41,272.23h1.79l-.55-1.46c-.17-.44-.29-.81-.37-1.09-.07.34-.16.67-.28,1.01l-.58,1.55Z"/>
    <path class="cls-16" d="M393.32,274.39v-2.23l-2.03-3.04h.85l1.04,1.59c.19.3.37.59.54.89.16-.28.35-.59.58-.93l1.02-1.55h.81l-2.11,3.04v2.23h-.7Z"/>
  </g>
  <g class="cls-3">
    <path class="cls-15" d="M312.28,286.3l-1.12-2.94h.53l.63,1.76c.07.19.13.39.19.59.04-.16.11-.34.19-.56l.65-1.79h.51l-1.11,2.94h-.46Z"/>
    <path class="cls-15" d="M316.31,285.35l.52.06c-.08.3-.23.53-.45.7s-.5.25-.84.25c-.43,0-.77-.13-1.02-.4-.25-.26-.38-.64-.38-1.11s.13-.88.38-1.15.58-.41.99-.41.71.13.96.4.37.64.37,1.13c0,.03,0,.07,0,.13h-2.19c.02.32.11.57.27.74.17.17.37.26.62.26.18,0,.34-.05.47-.14s.23-.25.31-.46ZM314.68,284.55h1.64c-.02-.25-.08-.43-.19-.56-.16-.19-.36-.29-.62-.29-.23,0-.42.08-.58.23-.16.15-.24.36-.26.62Z"/>
    <path class="cls-15" d="M317.45,286.3v-2.94h.45v.45c.11-.21.22-.35.32-.41s.2-.1.32-.1c.17,0,.34.05.51.16l-.17.46c-.12-.07-.24-.11-.37-.11-.11,0-.21.03-.29.1-.09.07-.15.16-.19.27-.05.18-.08.37-.08.58v1.54h-.5Z"/>
    <path class="cls-15" d="M319.14,285.42l.49-.08c.03.2.1.35.23.45.13.11.3.16.53.16s.4-.05.51-.14c.11-.09.17-.2.17-.33,0-.11-.05-.2-.15-.27-.07-.04-.24-.1-.51-.17-.37-.09-.62-.17-.76-.24-.14-.07-.25-.16-.32-.28-.07-.12-.11-.25-.11-.39,0-.13.03-.25.09-.36.06-.11.14-.2.25-.28.08-.06.18-.11.32-.14.13-.04.28-.06.43-.06.23,0,.43.03.61.1.17.07.3.16.39.27s.14.27.17.46l-.49.07c-.02-.15-.09-.27-.19-.35-.11-.08-.26-.13-.45-.13-.23,0-.39.04-.49.11-.1.08-.15.17-.15.27,0,.07.02.12.06.17.04.05.1.1.19.13.05.02.2.06.44.13.35.09.6.17.74.23.14.06.25.15.33.26s.12.26.12.43-.05.32-.15.47-.24.26-.42.34c-.18.08-.39.12-.62.12-.38,0-.67-.08-.87-.24-.2-.16-.33-.39-.38-.71Z"/>
    <path class="cls-15" d="M322.18,282.81v-.57h.5v.57h-.5ZM322.18,286.3v-2.94h.5v2.94h-.5Z"/>
    <path class="cls-15" d="M323.25,284.83c0-.54.15-.95.45-1.21.25-.22.56-.33.92-.33.4,0,.74.13.99.4.26.27.38.63.38,1.1,0,.38-.06.68-.17.89-.11.22-.28.39-.5.51-.22.12-.45.18-.71.18-.41,0-.74-.13-1-.4-.25-.26-.38-.64-.38-1.14ZM323.76,284.83c0,.38.08.66.25.85.17.19.37.28.62.28s.45-.09.62-.28c.16-.19.25-.47.25-.86,0-.36-.08-.64-.25-.83-.17-.19-.37-.28-.62-.28s-.46.09-.62.28c-.16.19-.25.47-.25.84Z"/>
    <path class="cls-15" d="M326.59,286.3v-2.94h.45v.42c.22-.32.53-.48.94-.48.18,0,.34.03.49.09.15.06.26.15.33.25.07.1.12.23.16.37.02.09.03.25.03.48v1.81h-.5v-1.79c0-.2-.02-.35-.06-.46-.04-.1-.11-.18-.21-.24s-.21-.09-.35-.09c-.21,0-.4.07-.55.2-.15.13-.23.39-.23.77v1.61h-.5Z"/>
    <path class="cls-15" d="M333.8,285.82v.48h-2.68c0-.12.02-.24.06-.35.07-.18.18-.36.33-.54.15-.18.37-.38.65-.61.44-.36.74-.65.89-.86.16-.21.23-.41.23-.6s-.07-.36-.21-.5c-.14-.14-.33-.2-.55-.2-.24,0-.43.07-.58.22s-.22.34-.22.6l-.51-.05c.04-.38.17-.67.4-.87.23-.2.54-.3.92-.3s.7.11.92.32c.23.22.34.48.34.8,0,.16-.03.32-.1.48-.07.16-.18.32-.33.5s-.41.41-.77.71c-.3.25-.49.42-.58.51-.08.09-.16.18-.21.27h1.99Z"/>
    <path class="cls-15" d="M334.61,286.3v-.57h.57v.57h-.57Z"/>
    <path class="cls-15" d="M338.53,285.82v.48h-2.68c0-.12.02-.24.06-.35.07-.18.18-.36.33-.54.15-.18.37-.38.65-.61.44-.36.74-.65.89-.86.16-.21.23-.41.23-.6s-.07-.36-.21-.5c-.14-.14-.33-.2-.55-.2-.24,0-.43.07-.58.22s-.22.34-.22.6l-.51-.05c.04-.38.17-.67.4-.87.23-.2.54-.3.92-.3s.7.11.92.32c.23.22.34.48.34.8,0,.16-.03.32-.1.48-.07.16-.18.32-.33.5s-.41.41-.77.71c-.3.25-.49.42-.58.51-.08.09-.16.18-.21.27h1.99Z"/>
    <path class="cls-15" d="M339.34,286.3v-.57h.57v.57h-.57Z"/>
    <path class="cls-15" d="M340.63,284.3c0-.48.05-.87.15-1.16.1-.29.25-.52.44-.68.2-.16.44-.24.74-.24.22,0,.41.04.57.13.16.09.3.21.41.38.11.17.19.37.25.6.06.24.09.56.09.96,0,.48-.05.86-.15,1.15-.1.29-.24.52-.44.68-.19.16-.44.24-.74.24-.39,0-.7-.14-.92-.42-.27-.34-.4-.89-.4-1.65ZM341.15,284.3c0,.67.08,1.11.23,1.33.16.22.35.33.58.33s.42-.11.58-.33.23-.66.23-1.33-.08-1.11-.23-1.33-.35-.33-.58-.33-.41.1-.55.29c-.17.25-.26.7-.26,1.37Z"/>
    <path class="cls-15" d="M345.5,287.43v-4.07h.45v.38c.11-.15.23-.26.36-.34.13-.07.3-.11.49-.11.25,0,.47.06.66.19.19.13.34.31.43.55s.15.49.15.77c0,.3-.05.57-.16.81-.11.24-.26.43-.47.55-.21.13-.42.19-.65.19-.17,0-.32-.04-.45-.11-.13-.07-.24-.16-.33-.27v1.43h-.5ZM345.95,284.85c0,.38.08.66.23.84s.34.27.56.27.41-.09.57-.28c.16-.19.24-.48.24-.87s-.08-.66-.23-.84c-.15-.19-.34-.28-.55-.28s-.4.1-.56.3c-.16.2-.25.49-.25.87Z"/>
    <path class="cls-15" d="M350.57,285.94c-.18.16-.36.27-.53.33-.17.06-.35.1-.55.1-.32,0-.57-.08-.75-.24-.17-.16-.26-.36-.26-.61,0-.14.03-.28.1-.39s.15-.21.26-.29.23-.13.36-.16c.1-.03.25-.05.44-.08.4-.05.7-.11.89-.17,0-.07,0-.11,0-.13,0-.2-.05-.35-.14-.43-.13-.11-.32-.17-.57-.17-.23,0-.41.04-.52.12-.11.08-.19.23-.25.44l-.49-.07c.04-.21.12-.38.22-.51.1-.13.25-.23.44-.3.19-.07.42-.1.67-.1s.46.03.61.09c.16.06.27.13.35.22.07.09.13.2.16.34.02.08.02.24.02.46v.67c0,.46.01.76.03.88.02.12.06.24.13.35h-.52c-.05-.1-.08-.22-.1-.36ZM350.53,284.82c-.18.07-.45.14-.81.19-.21.03-.35.06-.43.1s-.15.09-.2.16-.07.15-.07.24c0,.13.05.24.15.33.1.09.25.13.44.13s.36-.04.51-.13.26-.2.33-.34c.05-.11.08-.28.08-.5v-.18Z"/>
    <path class="cls-15" d="M351.81,286.3v-2.94h.45v.42c.22-.32.53-.48.94-.48.18,0,.34.03.49.09.15.06.26.15.33.25.07.1.12.23.16.37.02.09.03.25.03.48v1.81h-.5v-1.79c0-.2-.02-.35-.06-.46-.04-.1-.11-.18-.21-.24s-.21-.09-.35-.09c-.21,0-.4.07-.55.2-.15.13-.23.39-.23.77v1.61h-.5Z"/>
    <path class="cls-15" d="M356.97,285.35l.52.06c-.08.3-.23.53-.45.7s-.5.25-.84.25c-.43,0-.77-.13-1.02-.4-.25-.26-.38-.64-.38-1.11s.13-.88.38-1.15.58-.41.99-.41.71.13.96.4.37.64.37,1.13c0,.03,0,.07,0,.13h-2.19c.02.32.11.57.27.74.17.17.37.26.62.26.18,0,.34-.05.47-.14s.23-.25.31-.46ZM355.34,284.55h1.64c-.02-.25-.08-.43-.19-.56-.16-.19-.36-.29-.62-.29-.23,0-.42.08-.58.23-.16.15-.24.36-.26.62Z"/>
    <path class="cls-15" d="M358.1,286.3v-4.06h.5v4.06h-.5Z"/>
    <path class="cls-15" d="M360.94,286.3v-2.94h.45v.45c.11-.21.22-.35.32-.41s.2-.1.32-.1c.17,0,.34.05.51.16l-.17.46c-.12-.07-.24-.11-.37-.11-.11,0-.21.03-.29.1-.09.07-.15.16-.19.27-.05.18-.08.37-.08.58v1.54h-.5Z"/>
    <path class="cls-15" d="M364.85,285.35l.52.06c-.08.3-.23.53-.45.7s-.5.25-.84.25c-.43,0-.77-.13-1.02-.4-.25-.26-.38-.64-.38-1.11s.13-.88.38-1.15.58-.41.99-.41.71.13.96.4.37.64.37,1.13c0,.03,0,.07,0,.13h-2.19c.02.32.11.57.27.74.17.17.37.26.62.26.18,0,.34-.05.47-.14s.23-.25.31-.46ZM363.21,284.55h1.64c-.02-.25-.08-.43-.19-.56-.16-.19-.36-.29-.62-.29-.23,0-.42.08-.58.23-.16.15-.24.36-.26.62Z"/>
    <path class="cls-15" d="M366.8,286.3l-1.12-2.94h.53l.63,1.76c.07.19.13.39.19.59.04-.16.11-.34.19-.56l.65-1.79h.51l-1.11,2.94h-.46Z"/>
    <path class="cls-15" d="M368.83,282.81v-.57h.5v.57h-.5ZM368.83,286.3v-2.94h.5v2.94h-.5Z"/>
    <path class="cls-15" d="M369.88,285.42l.49-.08c.03.2.1.35.23.45.13.11.3.16.53.16s.4-.05.51-.14c.11-.09.17-.2.17-.33,0-.11-.05-.2-.15-.27-.07-.04-.24-.1-.51-.17-.37-.09-.62-.17-.76-.24-.14-.07-.25-.16-.32-.28-.07-.12-.11-.25-.11-.39,0-.13.03-.25.09-.36.06-.11.14-.2.25-.28.08-.06.18-.11.32-.14.13-.04.28-.06.43-.06.23,0,.43.03.61.1.17.07.3.16.39.27s.14.27.17.46l-.49.07c-.02-.15-.09-.27-.19-.35-.11-.08-.26-.13-.45-.13-.23,0-.39.04-.49.11-.1.08-.15.17-.15.27,0,.07.02.12.06.17.04.05.1.1.19.13.05.02.2.06.44.13.35.09.6.17.74.23.14.06.25.15.33.26s.12.26.12.43-.05.32-.15.47-.24.26-.42.34c-.18.08-.39.12-.62.12-.38,0-.67-.08-.87-.24-.2-.16-.33-.39-.38-.71Z"/>
    <path class="cls-15" d="M372.92,282.81v-.57h.5v.57h-.5ZM372.92,286.3v-2.94h.5v2.94h-.5Z"/>
    <path class="cls-15" d="M373.99,284.83c0-.54.15-.95.45-1.21.25-.22.56-.33.92-.33.4,0,.74.13.99.4.26.27.38.63.38,1.1,0,.38-.06.68-.17.89-.11.22-.28.39-.5.51-.22.12-.45.18-.71.18-.41,0-.74-.13-1-.4-.25-.26-.38-.64-.38-1.14ZM374.5,284.83c0,.38.08.66.25.85.17.19.37.28.62.28s.45-.09.62-.28c.16-.19.25-.47.25-.86,0-.36-.08-.64-.25-.83-.17-.19-.37-.28-.62-.28s-.46.09-.62.28c-.16.19-.25.47-.25.84Z"/>
    <path class="cls-15" d="M377.33,286.3v-2.94h.45v.42c.22-.32.53-.48.94-.48.18,0,.34.03.49.09.15.06.26.15.33.25.07.1.12.23.16.37.02.09.03.25.03.48v1.81h-.5v-1.79c0-.2-.02-.35-.06-.46-.04-.1-.11-.18-.21-.24s-.21-.09-.35-.09c-.21,0-.4.07-.55.2-.15.13-.23.39-.23.77v1.61h-.5Z"/>
  </g>
  <g class="cls-3">
    <path class="cls-14" d="M16.69,35.15l2.28-3.07-2.01-2.82h.93l1.07,1.51c.22.31.38.55.47.72.13-.21.29-.44.47-.67l1.18-1.56h.85l-2.07,2.77,2.23,3.11h-.96l-1.48-2.1c-.08-.12-.17-.25-.26-.39-.13.21-.22.36-.28.44l-1.48,2.05h-.94Z"/>
    <path class="cls-14" d="M24.79,33.26l.73-.06c.03.29.12.54.24.72.13.19.32.34.59.46.27.12.57.17.9.17.3,0,.56-.04.79-.13s.4-.21.51-.36c.11-.15.17-.32.17-.5s-.05-.35-.16-.48c-.11-.14-.28-.25-.53-.35-.16-.06-.51-.16-1.05-.29s-.92-.25-1.14-.37c-.28-.15-.49-.33-.63-.55-.14-.22-.21-.46-.21-.73,0-.3.08-.57.25-.83.17-.26.41-.45.74-.59s.68-.2,1.08-.2c.44,0,.82.07,1.15.21.33.14.59.35.77.62s.28.58.29.93l-.75.06c-.04-.37-.18-.65-.41-.84s-.57-.29-1.03-.29-.81.09-1.03.26c-.22.17-.32.38-.32.62,0,.21.08.39.23.52.15.14.54.28,1.17.42s1.07.27,1.3.38c.34.16.6.36.76.6s.25.52.25.84-.09.61-.27.88c-.18.28-.44.49-.77.65-.34.15-.71.23-1.13.23-.53,0-.98-.08-1.34-.23-.36-.16-.64-.39-.85-.7-.2-.31-.31-.66-.32-1.06Z"/>
    <path class="cls-14" d="M34.74,33.09l.78.2c-.16.64-.46,1.13-.88,1.46-.42.34-.94.5-1.56.5s-1.15-.13-1.55-.39c-.4-.26-.7-.63-.91-1.12-.21-.49-.31-1.02-.31-1.58,0-.61.12-1.15.35-1.6.23-.46.57-.8,1-1.04s.91-.36,1.43-.36c.59,0,1.08.15,1.49.45s.68.72.84,1.26l-.77.18c-.14-.43-.33-.74-.59-.94-.26-.2-.59-.29-.98-.29-.45,0-.83.11-1.13.33s-.52.51-.64.87-.18.74-.18,1.13c0,.5.07.94.22,1.31.15.37.37.65.68.84s.64.28,1,.28c.44,0,.81-.13,1.11-.38.3-.25.51-.62.61-1.12Z"/>
    <path class="cls-14" d="M35.83,35.15l2.26-5.88h.84l2.41,5.88h-.89l-.69-1.78h-2.46l-.65,1.78h-.83ZM37.53,32.73h1.99l-.61-1.63c-.19-.5-.33-.9-.42-1.22-.08.38-.18.75-.32,1.12l-.65,1.73Z"/>
    <path class="cls-14" d="M41.93,35.15v-5.88h.78v5.19h2.9v.69h-3.68Z"/>
    <path class="cls-14" d="M46.55,35.15v-5.88h4.25v.69h-3.48v1.8h3.26v.69h-3.26v2h3.61v.69h-4.39Z"/>
  </g>
  <g class="cls-3">
    <path class="cls-14" d="M19.02,86.17v-2.49l-2.27-3.39h.95l1.16,1.77c.21.33.41.66.6,1,.18-.31.39-.65.64-1.04l1.14-1.73h.91l-2.35,3.39v2.49h-.78Z"/>
    <path class="cls-14" d="M24.72,84.28l.73-.06c.03.29.12.54.24.72.13.19.32.34.59.46.27.12.57.17.9.17.3,0,.56-.04.79-.13s.4-.21.51-.36c.11-.15.17-.32.17-.5s-.05-.35-.16-.48c-.11-.14-.28-.25-.53-.35-.16-.06-.51-.16-1.05-.29s-.92-.25-1.14-.37c-.28-.15-.49-.33-.63-.55-.14-.22-.21-.46-.21-.73,0-.3.08-.57.25-.83.17-.26.41-.45.74-.59s.68-.2,1.08-.2c.44,0,.82.07,1.15.21.33.14.59.35.77.62s.28.58.29.93l-.75.06c-.04-.37-.18-.65-.41-.84s-.57-.29-1.03-.29-.81.09-1.03.26c-.22.17-.32.38-.32.62,0,.21.08.39.23.52.15.14.54.28,1.17.42s1.07.27,1.3.38c.34.16.6.36.76.6s.25.52.25.84-.09.61-.27.88c-.18.28-.44.49-.77.65-.34.15-.71.23-1.13.23-.53,0-.98-.08-1.34-.23-.36-.16-.64-.39-.85-.7-.2-.31-.31-.66-.32-1.06Z"/>
    <path class="cls-14" d="M34.66,84.11l.78.2c-.16.64-.46,1.13-.88,1.46-.42.34-.94.5-1.56.5s-1.15-.13-1.55-.39c-.4-.26-.7-.63-.91-1.12-.21-.49-.31-1.02-.31-1.58,0-.61.12-1.15.35-1.6.23-.46.57-.8,1-1.04s.91-.36,1.43-.36c.59,0,1.08.15,1.49.45s.68.72.84,1.26l-.77.18c-.14-.43-.33-.74-.59-.94-.26-.2-.59-.29-.98-.29-.45,0-.83.11-1.13.33s-.52.51-.64.87-.18.74-.18,1.13c0,.5.07.94.22,1.31.15.37.37.65.68.84s.64.28,1,.28c.44,0,.81-.13,1.11-.38.3-.25.51-.62.61-1.12Z"/>
    <path class="cls-14" d="M35.75,86.17l2.26-5.88h.84l2.41,5.88h-.89l-.69-1.78h-2.46l-.65,1.78h-.83ZM37.45,83.76h1.99l-.61-1.63c-.19-.5-.33-.9-.42-1.22-.08.38-.18.75-.32,1.12l-.65,1.73Z"/>
    <path class="cls-14" d="M41.85,86.17v-5.88h.78v5.19h2.9v.69h-3.68Z"/>
    <path class="cls-14" d="M46.47,86.17v-5.88h4.25v.69h-3.48v1.8h3.26v.69h-3.26v2h3.61v.69h-4.39Z"/>
  </g>
  <g class="cls-3">
    <path class="cls-14" d="M13.17,137.2v-.72l3.01-3.77c.21-.27.42-.5.61-.7h-3.28v-.69h4.21v.69l-3.3,4.08-.36.41h3.76v.69h-4.65Z"/>
    <path class="cls-14" d="M20.96,137.2v-5.88h4.25v.69h-3.48v1.8h3.26v.69h-3.26v2h3.61v.69h-4.39Z"/>
    <path class="cls-14" d="M26.42,137.2v-5.88h.8l3.09,4.62v-4.62h.75v5.88h-.8l-3.09-4.62v4.62h-.75Z"/>
    <path class="cls-14" d="M32.38,137.2v-5.88h4.25v.69h-3.48v1.8h3.26v.69h-3.26v2h3.61v.69h-4.39Z"/>
    <path class="cls-14" d="M37.86,137.2v-5.88h2.61c.52,0,.92.05,1.2.16.27.11.49.29.65.56.16.27.25.56.25.89,0,.42-.14.77-.41,1.06-.27.29-.69.47-1.25.55.21.1.36.2.47.29.23.21.44.47.65.78l1.02,1.6h-.98l-.78-1.22c-.23-.35-.42-.62-.56-.81-.15-.19-.28-.32-.4-.39-.12-.08-.23-.13-.35-.16-.09-.02-.23-.03-.43-.03h-.9v2.61h-.78ZM38.64,133.91h1.67c.36,0,.63-.04.83-.11.2-.07.35-.19.46-.35s.16-.34.16-.53c0-.28-.1-.51-.3-.69s-.52-.27-.96-.27h-1.86v1.95Z"/>
    <path class="cls-14" d="M46.54,134.89v-.69h2.49s0,2.18,0,2.18c-.38.31-.78.53-1.18.69s-.82.23-1.25.23c-.58,0-1.1-.12-1.58-.37-.47-.25-.83-.61-1.07-1.07s-.36-.99-.36-1.57.12-1.11.36-1.6c.24-.5.58-.87,1.03-1.11.45-.24.97-.36,1.55-.36.43,0,.81.07,1.15.21.34.14.61.33.81.58.2.25.34.57.45.96l-.7.19c-.09-.3-.2-.54-.33-.71-.13-.17-.32-.31-.56-.41-.24-.1-.51-.15-.81-.15-.36,0-.66.05-.92.16-.26.11-.47.25-.63.43-.16.18-.28.37-.37.58-.15.36-.22.76-.22,1.18,0,.52.09.96.27,1.32.18.35.44.62.79.79s.71.26,1.1.26c.34,0,.67-.06.99-.19s.56-.27.73-.42v-1.1h-1.73Z"/>
    <path class="cls-14" d="M51.84,137.2v-2.49l-2.27-3.39h.95l1.16,1.77c.21.33.41.66.6,1,.18-.31.39-.65.64-1.04l1.14-1.73h.91l-2.35,3.39v2.49h-.78Z"/>
  </g>
  <g class="cls-3">
    <path class="cls-14" d="M23.23,188.22v-5.88h2.03c.46,0,.81.03,1.05.08.34.08.62.22.86.42.31.26.54.6.7,1.01s.23.87.23,1.4c0,.45-.05.84-.16,1.19-.1.34-.24.63-.4.86-.16.23-.34.4-.54.53s-.43.23-.7.29c-.27.07-.59.1-.95.1h-2.12ZM24.01,187.53h1.26c.39,0,.69-.04.91-.11s.4-.17.53-.3c.18-.18.33-.43.43-.75s.15-.69.15-1.13c0-.62-.1-1.09-.3-1.42s-.45-.55-.74-.66c-.21-.08-.54-.12-1.01-.12h-1.24v4.5Z"/>
    <path class="cls-14" d="M28.93,185.35c0-.98.26-1.74.79-2.29s1.2-.83,2.03-.83c.54,0,1.03.13,1.47.39s.77.62,1,1.09c.23.46.34.99.34,1.58s-.12,1.13-.36,1.6c-.24.47-.58.83-1.02,1.07s-.92.36-1.43.36c-.55,0-1.05-.13-1.48-.4-.44-.27-.77-.63-.99-1.1-.22-.46-.34-.95-.34-1.47ZM29.74,185.37c0,.71.19,1.27.57,1.68s.86.61,1.44.61,1.07-.21,1.45-.62c.38-.41.57-1,.57-1.75,0-.48-.08-.9-.24-1.25-.16-.36-.4-.63-.71-.83-.31-.2-.66-.29-1.05-.29-.55,0-1.03.19-1.42.57-.4.38-.6,1.01-.6,1.9Z"/>
    <path class="cls-14" d="M37.06,188.22v-5.19h-1.94v-.69h4.66v.69h-1.95v5.19h-.78Z"/>
    <path class="cls-14" d="M40.32,186.33l.73-.06c.03.29.12.54.24.72s.32.34.59.46.57.17.9.17c.3,0,.56-.04.79-.13s.4-.21.51-.36c.11-.15.17-.32.17-.5s-.05-.35-.16-.48c-.11-.14-.28-.25-.53-.35-.16-.06-.51-.16-1.05-.29-.54-.13-.92-.25-1.14-.37-.28-.15-.49-.33-.63-.55-.14-.22-.21-.46-.21-.73,0-.3.08-.57.25-.83.17-.26.41-.45.74-.59s.68-.2,1.08-.2c.44,0,.82.07,1.15.21.33.14.59.35.77.62.18.27.28.58.29.93l-.75.06c-.04-.37-.18-.65-.41-.84-.23-.19-.57-.29-1.03-.29s-.81.09-1.03.26c-.22.17-.32.38-.32.62,0,.21.08.38.23.52.15.14.54.28,1.17.42.63.14,1.07.27,1.3.38.34.16.6.36.76.6s.25.52.25.84-.09.61-.27.89c-.18.28-.44.49-.77.65-.34.15-.71.23-1.13.23-.53,0-.98-.08-1.34-.23-.36-.16-.64-.39-.85-.7s-.31-.66-.32-1.06Z"/>
  </g>
  <g class="cls-3">
    <path class="cls-14" d="M22.74,239.24v-5.88h.78v5.19h2.9v.69h-3.68Z"/>
    <path class="cls-14" d="M27.48,239.24v-5.88h.78v5.88h-.78Z"/>
    <path class="cls-14" d="M29.62,239.24v-5.88h.8l3.09,4.62v-4.62h.75v5.88h-.8l-3.09-4.62v4.62h-.75Z"/>
    <path class="cls-14" d="M35.58,239.24v-5.88h4.25v.69h-3.48v1.8h3.26v.69h-3.26v2h3.61v.69h-4.39Z"/>
    <path class="cls-14" d="M40.78,237.35l.73-.06c.03.29.12.54.24.72s.32.34.59.46.57.17.9.17c.3,0,.56-.04.79-.13s.4-.21.51-.36c.11-.15.17-.32.17-.5s-.05-.35-.16-.48c-.11-.14-.28-.25-.53-.35-.16-.06-.51-.16-1.05-.29-.54-.13-.92-.25-1.14-.37-.28-.15-.49-.33-.63-.55-.14-.22-.21-.46-.21-.73,0-.3.08-.57.25-.83.17-.26.41-.45.74-.59s.68-.2,1.08-.2c.44,0,.82.07,1.15.21.33.14.59.35.77.62.18.27.28.58.29.93l-.75.06c-.04-.37-.18-.65-.41-.84-.23-.19-.57-.29-1.03-.29s-.81.09-1.03.26c-.22.17-.32.38-.32.62,0,.21.08.38.23.52.15.14.54.28,1.17.42.63.14,1.07.27,1.3.38.34.16.6.36.76.6s.25.52.25.84-.09.61-.27.89c-.18.28-.44.49-.77.65-.34.15-.71.23-1.13.23-.53,0-.98-.08-1.34-.23-.36-.16-.64-.39-.85-.7s-.31-.66-.32-1.06Z"/>
  </g>
  <g class="cls-3">
    <path class="cls-14" d="M12.19,290.27v-5.88h2.22c.39,0,.69.02.9.06.29.05.53.14.73.27.2.14.35.33.47.57s.18.51.18.8c0,.5-.16.92-.48,1.27s-.89.52-1.73.52h-1.51v2.39h-.78ZM12.97,287.18h1.52c.5,0,.86-.09,1.07-.28.21-.19.32-.45.32-.79,0-.25-.06-.46-.19-.63-.12-.17-.29-.29-.49-.35-.13-.04-.37-.05-.73-.05h-1.5v2.1Z"/>
    <path class="cls-14" d="M16.42,290.27l2.26-5.88h.84l2.41,5.88h-.89l-.69-1.78h-2.46l-.65,1.78h-.83ZM18.11,287.85h1.99l-.61-1.63c-.19-.5-.33-.9-.42-1.22-.08.38-.18.75-.32,1.12l-.65,1.73Z"/>
    <path class="cls-14" d="M22.56,290.27v-5.88h2.61c.52,0,.92.05,1.2.16.27.11.49.29.65.56.16.27.25.56.25.89,0,.42-.14.77-.41,1.06-.27.29-.69.47-1.25.55.21.1.36.2.47.29.23.21.44.47.65.78l1.02,1.6h-.98l-.78-1.22c-.23-.35-.42-.62-.56-.81-.15-.19-.28-.32-.4-.39-.12-.07-.23-.13-.35-.16-.09-.02-.23-.03-.43-.03h-.9v2.61h-.78ZM23.34,286.98h1.67c.36,0,.63-.04.83-.11.2-.07.35-.19.46-.35s.16-.34.16-.53c0-.28-.1-.51-.3-.69-.2-.18-.52-.27-.96-.27h-1.86v1.95Z"/>
    <path class="cls-14" d="M29.83,290.27v-5.19h-1.94v-.69h4.66v.69h-1.95v5.19h-.78Z"/>
    <path class="cls-14" d="M33.49,290.27v-5.88h.78v5.88h-.78Z"/>
    <path class="cls-14" d="M39.84,288.21l.78.2c-.16.64-.46,1.13-.88,1.46-.42.34-.94.5-1.56.5s-1.15-.13-1.55-.39c-.4-.26-.7-.63-.91-1.12-.21-.49-.31-1.02-.31-1.58,0-.61.12-1.15.35-1.6.23-.46.57-.8,1-1.04.43-.24.91-.35,1.43-.35.59,0,1.08.15,1.49.45s.68.72.84,1.26l-.77.18c-.14-.43-.33-.74-.59-.94-.26-.2-.59-.29-.98-.29-.45,0-.83.11-1.13.33s-.52.51-.64.87-.18.74-.18,1.13c0,.5.07.94.22,1.31.15.37.37.65.68.84s.64.28,1,.28c.44,0,.81-.12,1.11-.38.3-.25.51-.62.61-1.12Z"/>
    <path class="cls-14" d="M41.54,290.27v-5.88h.78v5.19h2.9v.69h-3.68Z"/>
    <path class="cls-14" d="M46.16,290.27v-5.88h4.25v.69h-3.48v1.8h3.26v.69h-3.26v2h3.61v.69h-4.39Z"/>
    <path class="cls-14" d="M51.36,288.38l.73-.06c.03.29.12.54.24.72s.32.34.59.46.57.17.9.17c.3,0,.56-.04.79-.13s.4-.21.51-.36c.11-.15.17-.32.17-.5s-.05-.35-.16-.48c-.11-.14-.28-.25-.53-.35-.16-.06-.51-.16-1.05-.29-.54-.13-.92-.25-1.14-.37-.28-.15-.49-.33-.63-.55-.14-.22-.21-.46-.21-.73,0-.3.08-.57.25-.83.17-.26.41-.45.74-.59s.68-.2,1.08-.2c.44,0,.82.07,1.15.21.33.14.59.35.77.62.18.27.28.58.29.93l-.75.06c-.04-.37-.18-.65-.41-.84-.23-.19-.57-.29-1.03-.29s-.81.09-1.03.26c-.22.17-.32.38-.32.62,0,.21.08.38.23.52.15.14.54.28,1.17.42.63.14,1.07.27,1.3.38.34.16.6.36.76.6s.25.52.25.84-.09.61-.27.89c-.18.28-.44.49-.77.65-.34.15-.71.23-1.13.23-.53,0-.98-.08-1.34-.23-.36-.16-.64-.39-.85-.7s-.31-.66-.32-1.06Z"/>
  </g>
  <g class="cls-3">
    <path class="cls-14" d="M637.53,33.26l.73-.06c.04.29.12.54.24.72.13.19.32.34.59.46.27.12.57.17.9.17.3,0,.56-.04.79-.13s.4-.21.51-.36c.11-.15.17-.32.17-.5s-.05-.35-.16-.48c-.11-.14-.28-.25-.53-.35-.16-.06-.51-.16-1.05-.29-.54-.13-.92-.25-1.14-.37-.28-.15-.49-.33-.63-.55-.14-.22-.21-.46-.21-.73,0-.3.08-.57.25-.83.17-.26.42-.45.74-.59.32-.13.68-.2,1.08-.2.44,0,.82.07,1.15.21s.59.35.77.62.28.58.29.93l-.75.06c-.04-.37-.18-.65-.41-.84s-.57-.29-1.03-.29-.81.09-1.03.26c-.22.17-.32.38-.32.62,0,.21.08.39.23.52.15.14.54.28,1.17.42s1.07.27,1.3.38c.34.16.6.36.76.6s.25.52.25.84-.09.61-.27.88c-.18.28-.44.49-.77.65s-.71.23-1.13.23c-.53,0-.98-.08-1.34-.23-.36-.16-.64-.39-.85-.7-.21-.31-.31-.66-.32-1.06Z"/>
    <path class="cls-14" d="M643.41,35.15v-5.88h.78v5.88h-.78Z"/>
    <path class="cls-14" d="M645.1,35.15v-.72l3.01-3.77c.21-.27.42-.5.61-.7h-3.28v-.69h4.21v.69l-3.3,4.08-.36.41h3.76v.69h-4.65Z"/>
    <path class="cls-14" d="M650.6,35.15v-5.88h4.25v.69h-3.48v1.8h3.26v.69h-3.26v2h3.61v.69h-4.39Z"/>
  </g>
  <g class="cls-3">
    <path class="cls-14" d="M629.35,86.17v-5.88h2.22c.39,0,.69.02.9.06.29.05.53.14.73.27s.35.32.47.57c.12.24.18.51.18.8,0,.5-.16.92-.48,1.27s-.89.52-1.73.52h-1.51v2.39h-.78ZM630.13,83.09h1.52c.5,0,.86-.09,1.07-.28s.32-.45.32-.79c0-.25-.06-.46-.19-.63-.12-.18-.29-.29-.49-.35-.13-.03-.37-.05-.73-.05h-1.5v2.1Z"/>
    <path class="cls-14" d="M634.85,86.17v-5.88h4.25v.69h-3.48v1.8h3.26v.69h-3.26v2h3.61v.69h-4.39Z"/>
    <path class="cls-14" d="M640.33,86.17v-5.88h2.61c.52,0,.92.05,1.2.16.27.11.49.29.65.56s.25.56.25.89c0,.42-.13.77-.41,1.06s-.69.47-1.25.55c.21.1.36.2.47.29.23.21.44.47.65.78l1.02,1.6h-.98l-.78-1.22c-.23-.35-.42-.62-.56-.81-.15-.19-.28-.32-.39-.39-.12-.08-.24-.13-.36-.16-.09-.02-.23-.03-.43-.03h-.9v2.61h-.78ZM641.1,82.89h1.67c.36,0,.63-.04.83-.11.2-.07.35-.19.46-.35.1-.16.16-.34.16-.53,0-.28-.1-.51-.3-.69-.2-.18-.52-.27-.96-.27h-1.86v1.95Z"/>
    <path class="cls-14" d="M645.98,84.28l.73-.06c.04.29.12.54.24.72.13.19.32.34.59.46.27.12.57.17.9.17.3,0,.56-.04.79-.13s.4-.21.51-.36c.11-.15.17-.32.17-.5s-.05-.35-.16-.48c-.11-.14-.28-.25-.53-.35-.16-.06-.51-.16-1.05-.29-.54-.13-.92-.25-1.14-.37-.28-.15-.49-.33-.63-.55-.14-.22-.21-.46-.21-.73,0-.3.08-.57.25-.83.17-.26.42-.45.74-.59.32-.13.68-.2,1.08-.2.44,0,.82.07,1.15.21s.59.35.77.62.28.58.29.93l-.75.06c-.04-.37-.18-.65-.41-.84s-.57-.29-1.03-.29-.81.09-1.03.26c-.22.17-.32.38-.32.62,0,.21.08.39.23.52.15.14.54.28,1.17.42s1.07.27,1.3.38c.34.16.6.36.76.6s.25.52.25.84-.09.61-.27.88c-.18.28-.44.49-.77.65s-.71.23-1.13.23c-.53,0-.98-.08-1.34-.23-.36-.16-.64-.39-.85-.7-.21-.31-.31-.66-.32-1.06Z"/>
    <path class="cls-14" d="M651.87,86.17v-5.88h.78v5.88h-.78Z"/>
    <path class="cls-14" d="M653.75,84.28l.73-.06c.04.29.12.54.24.72.13.19.32.34.59.46.27.12.57.17.9.17.3,0,.56-.04.79-.13s.4-.21.51-.36c.11-.15.17-.32.17-.5s-.05-.35-.16-.48c-.11-.14-.28-.25-.53-.35-.16-.06-.51-.16-1.05-.29-.54-.13-.92-.25-1.14-.37-.28-.15-.49-.33-.63-.55-.14-.22-.21-.46-.21-.73,0-.3.08-.57.25-.83.17-.26.42-.45.74-.59.32-.13.68-.2,1.08-.2.44,0,.82.07,1.15.21s.59.35.77.62.28.58.29.93l-.75.06c-.04-.37-.18-.65-.41-.84s-.57-.29-1.03-.29-.81.09-1.03.26c-.22.17-.32.38-.32.62,0,.21.08.39.23.52.15.14.54.28,1.17.42s1.07.27,1.3.38c.34.16.6.36.76.6s.25.52.25.84-.09.61-.27.88c-.18.28-.44.49-.77.65s-.71.23-1.13.23c-.53,0-.98-.08-1.34-.23-.36-.16-.64-.39-.85-.7-.21-.31-.31-.66-.32-1.06Z"/>
    <path class="cls-14" d="M661,86.17v-5.19h-1.94v-.69h4.66v.69h-1.95v5.19h-.78Z"/>
  </g>
  <g class="cls-3">
    <path class="cls-14" d="M629.77,135.31l.73-.06c.04.29.12.54.24.72.13.19.32.34.59.46.27.12.57.17.9.17.3,0,.56-.04.79-.13s.4-.21.51-.36c.11-.15.17-.32.17-.5s-.05-.35-.16-.48c-.11-.14-.28-.25-.53-.35-.16-.06-.51-.16-1.05-.29-.54-.13-.92-.25-1.14-.37-.28-.15-.49-.33-.63-.55-.14-.22-.21-.46-.21-.73,0-.3.08-.57.25-.83.17-.26.42-.45.74-.59.32-.13.68-.2,1.08-.2.44,0,.82.07,1.15.21s.59.35.77.62.28.58.29.93l-.75.06c-.04-.37-.18-.65-.41-.84s-.57-.29-1.03-.29-.81.09-1.03.26c-.22.17-.32.38-.32.62,0,.21.08.39.23.52.15.14.54.28,1.17.42s1.07.27,1.3.38c.34.16.6.36.76.6s.25.52.25.84-.09.61-.27.88c-.18.28-.44.49-.77.65s-.71.23-1.13.23c-.53,0-.98-.08-1.34-.23-.36-.16-.64-.39-.85-.7-.21-.31-.31-.66-.32-1.06Z"/>
    <path class="cls-14" d="M635.51,137.2v-5.88h2.22c.39,0,.69.02.9.06.29.05.53.14.73.27s.35.32.47.57c.12.24.18.51.18.8,0,.5-.16.92-.48,1.27s-.89.52-1.73.52h-1.51v2.39h-.78ZM636.29,134.11h1.52c.5,0,.86-.09,1.07-.28s.32-.45.32-.79c0-.25-.06-.46-.19-.63-.12-.18-.29-.29-.49-.35-.13-.03-.37-.05-.73-.05h-1.5v2.1Z"/>
    <path class="cls-14" d="M641.01,137.2v-5.88h2.61c.52,0,.92.05,1.2.16.27.11.49.29.65.56s.25.56.25.89c0,.42-.13.77-.41,1.06s-.69.47-1.25.55c.21.1.36.2.47.29.23.21.44.47.65.78l1.02,1.6h-.98l-.78-1.22c-.23-.35-.42-.62-.56-.81-.15-.19-.28-.32-.39-.39-.12-.08-.24-.13-.36-.16-.09-.02-.23-.03-.43-.03h-.9v2.61h-.78ZM641.79,133.91h1.67c.36,0,.63-.04.83-.11.2-.07.35-.19.46-.35.1-.16.16-.34.16-.53,0-.28-.1-.51-.3-.69-.2-.18-.52-.27-.96-.27h-1.86v1.95Z"/>
    <path class="cls-14" d="M646.95,137.2v-5.88h4.25v.69h-3.48v1.8h3.26v.69h-3.26v2h3.61v.69h-4.39Z"/>
    <path class="cls-14" d="M651.77,137.2l2.26-5.88h.84l2.41,5.88h-.89l-.69-1.78h-2.46l-.65,1.78h-.83ZM653.47,134.78h2l-.61-1.63c-.19-.5-.33-.9-.42-1.22-.08.38-.18.75-.32,1.12l-.65,1.73Z"/>
    <path class="cls-14" d="M657.9,137.2v-5.88h2.03c.46,0,.81.03,1.05.08.34.08.62.22.86.42.31.26.54.6.7,1.01.15.41.23.87.23,1.4,0,.45-.05.84-.16,1.19s-.24.63-.4.86-.34.4-.54.53c-.19.13-.43.23-.7.29-.27.07-.59.1-.95.1h-2.12ZM658.68,136.5h1.26c.39,0,.69-.04.91-.11s.4-.17.53-.31c.18-.18.33-.43.43-.74.1-.31.15-.69.15-1.13,0-.62-.1-1.09-.3-1.42s-.45-.55-.74-.66c-.21-.08-.54-.12-1.01-.12h-1.24v4.5Z"/>
  </g>
  <g class="cls-3">
    <path class="cls-14" d="M636.52,186.16l.78.2c-.16.64-.46,1.13-.88,1.46s-.94.5-1.56.5-1.15-.13-1.55-.39c-.4-.26-.7-.63-.91-1.12-.21-.49-.31-1.02-.31-1.58,0-.61.12-1.15.35-1.6s.57-.8,1-1.04c.43-.24.91-.35,1.43-.35.59,0,1.08.15,1.48.45s.68.72.84,1.26l-.77.18c-.14-.43-.33-.74-.59-.94s-.59-.29-.98-.29c-.45,0-.83.11-1.13.33s-.52.51-.64.87-.18.74-.18,1.13c0,.5.07.94.22,1.31.15.37.37.65.68.84s.64.28,1,.28c.44,0,.81-.12,1.11-.38.3-.25.51-.62.61-1.12Z"/>
    <path class="cls-14" d="M638.02,185.35c0-.98.26-1.74.79-2.29.52-.55,1.2-.83,2.03-.83.54,0,1.03.13,1.47.39.44.26.77.62,1,1.09s.34.99.34,1.58-.12,1.13-.36,1.6c-.24.47-.58.83-1.02,1.07-.44.24-.92.36-1.43.36-.55,0-1.05-.13-1.49-.4-.44-.27-.77-.63-.99-1.1s-.34-.95-.34-1.47ZM638.82,185.37c0,.71.19,1.27.57,1.68.38.41.86.61,1.43.61s1.07-.21,1.45-.62c.38-.41.57-1,.57-1.75,0-.48-.08-.9-.24-1.25s-.4-.63-.71-.83-.66-.29-1.05-.29c-.55,0-1.03.19-1.42.57-.4.38-.6,1.01-.6,1.9Z"/>
    <path class="cls-14" d="M644.62,188.22v-5.88h.78v5.19h2.9v.69h-3.68Z"/>
    <path class="cls-14" d="M648.98,185.35c0-.98.26-1.74.79-2.29.52-.55,1.2-.83,2.03-.83.54,0,1.03.13,1.47.39.44.26.77.62,1,1.09s.34.99.34,1.58-.12,1.13-.36,1.6c-.24.47-.58.83-1.02,1.07-.44.24-.92.36-1.43.36-.55,0-1.05-.13-1.49-.4-.44-.27-.77-.63-.99-1.1s-.34-.95-.34-1.47ZM649.79,185.37c0,.71.19,1.27.57,1.68.38.41.86.61,1.43.61s1.07-.21,1.45-.62c.38-.41.57-1,.57-1.75,0-.48-.08-.9-.24-1.25s-.4-.63-.71-.83-.66-.29-1.05-.29c-.55,0-1.03.19-1.42.57-.4.38-.6,1.01-.6,1.9Z"/>
    <path class="cls-14" d="M655.63,188.22v-5.88h2.61c.52,0,.92.05,1.2.16.27.11.49.29.65.56s.25.56.25.89c0,.42-.13.77-.41,1.06-.27.29-.69.47-1.25.55.21.1.36.2.47.29.23.21.44.47.65.78l1.02,1.6h-.98l-.78-1.22c-.23-.35-.42-.62-.56-.81-.15-.19-.28-.32-.39-.39-.12-.07-.24-.13-.36-.16-.09-.02-.23-.03-.43-.03h-.9v2.61h-.78ZM656.4,184.93h1.67c.36,0,.63-.04.83-.11.2-.07.35-.19.46-.35.1-.16.16-.34.16-.53,0-.28-.1-.51-.3-.69-.2-.18-.52-.27-.96-.27h-1.86v1.95Z"/>
  </g>
  <g class="cls-3">
    <path class="cls-14" d="M629.42,239.24v-5.88h2.22c.39,0,.69.02.9.06.29.05.53.14.73.27.2.14.35.33.47.57s.18.51.18.8c0,.5-.16.92-.48,1.27s-.89.52-1.73.52h-1.51v2.39h-.78ZM630.2,236.16h1.52c.5,0,.86-.09,1.07-.28.21-.19.32-.45.32-.79,0-.25-.06-.46-.19-.63-.12-.17-.29-.29-.49-.35-.13-.04-.37-.05-.73-.05h-1.5v2.1Z"/>
    <path class="cls-14" d="M637.01,239.24v-5.88h2.21c.45,0,.81.06,1.08.18s.48.3.64.55c.15.25.23.51.23.78,0,.25-.07.49-.21.71-.14.22-.34.4-.62.54.36.1.63.28.82.53.19.25.29.55.29.89,0,.28-.06.53-.17.77-.12.24-.26.42-.43.55-.17.13-.39.23-.64.29-.26.07-.57.1-.95.1h-2.24ZM637.78,235.83h1.27c.34,0,.59-.02.74-.07.2-.06.35-.16.45-.29.1-.14.15-.31.15-.51,0-.2-.05-.37-.14-.52s-.23-.25-.4-.3-.47-.08-.9-.08h-1.18v1.78ZM637.78,238.55h1.46c.25,0,.43,0,.53-.03.18-.03.33-.09.45-.16.12-.08.22-.18.3-.33.08-.14.12-.31.12-.5,0-.22-.06-.41-.17-.57-.11-.16-.27-.28-.47-.34s-.49-.1-.86-.1h-1.36v2.02Z"/>
    <path class="cls-14" d="M642.49,239.24v-5.88h.78v5.19h2.9v.69h-3.68Z"/>
    <path class="cls-14" d="M647.11,239.24v-5.88h4.25v.69h-3.48v1.8h3.26v.69h-3.26v2h3.61v.69h-4.39Z"/>
    <path class="cls-14" d="M652.57,239.24v-5.88h.8l3.09,4.62v-4.62h.75v5.88h-.8l-3.09-4.62v4.62h-.75Z"/>
    <path class="cls-14" d="M658.51,239.24v-5.88h2.03c.46,0,.81.03,1.05.08.34.08.62.22.86.42.31.26.54.6.7,1.01.15.41.23.87.23,1.4,0,.45-.05.84-.16,1.19-.1.34-.24.63-.4.86-.16.23-.34.4-.54.53s-.43.23-.7.29c-.27.07-.59.1-.95.1h-2.12ZM659.29,238.55h1.26c.39,0,.69-.04.91-.11s.4-.17.53-.3c.18-.18.33-.43.43-.75.1-.31.15-.69.15-1.13,0-.62-.1-1.09-.3-1.42s-.45-.55-.74-.66c-.21-.08-.54-.12-1.01-.12h-1.24v4.5Z"/>
  </g>
  <g class="cls-3">
    <path class="cls-14" d="M637.13,287.96v-.69h2.49s0,2.18,0,2.18c-.38.3-.78.53-1.18.69-.41.15-.82.23-1.25.23-.58,0-1.1-.12-1.58-.37-.47-.25-.83-.61-1.07-1.07-.24-.47-.36-.99-.36-1.57s.12-1.11.36-1.6.58-.87,1.03-1.11c.45-.24.97-.36,1.55-.36.43,0,.81.07,1.15.21.34.14.61.33.81.58s.34.57.45.96l-.7.19c-.09-.3-.2-.54-.33-.71-.13-.17-.32-.31-.56-.41-.24-.1-.51-.15-.81-.15-.36,0-.66.05-.92.16-.26.11-.47.25-.63.43s-.28.37-.37.58c-.15.36-.22.76-.22,1.18,0,.52.09.96.27,1.32.18.35.44.62.79.79.35.17.71.26,1.1.26.34,0,.67-.06.99-.19.32-.13.57-.27.73-.42v-1.1h-1.73Z"/>
    <path class="cls-14" d="M640.74,290.27v-5.88h.78v5.19h2.9v.69h-3.68Z"/>
    <path class="cls-14" d="M645.1,287.4c0-.98.26-1.74.79-2.29.52-.55,1.2-.83,2.03-.83.54,0,1.03.13,1.47.39.44.26.77.62,1,1.09s.34.99.34,1.58-.12,1.13-.36,1.6c-.24.47-.58.83-1.02,1.07-.44.24-.92.36-1.43.36-.55,0-1.05-.13-1.49-.4-.44-.27-.77-.63-.99-1.1s-.34-.95-.34-1.47ZM645.91,287.42c0,.71.19,1.27.57,1.68.38.41.86.61,1.43.61s1.07-.21,1.45-.62c.38-.41.57-1,.57-1.75,0-.48-.08-.9-.24-1.25s-.4-.63-.71-.83-.66-.29-1.05-.29c-.55,0-1.03.19-1.42.57-.4.38-.6,1.01-.6,1.9Z"/>
    <path class="cls-14" d="M652.76,290.27l-1.56-5.88h.8l.89,3.86c.1.4.18.81.25,1.2.15-.63.24-.99.26-1.09l1.12-3.97h.94l.84,2.98c.21.74.36,1.43.46,2.08.07-.37.17-.8.29-1.28l.92-3.78h.78l-1.61,5.88h-.75l-1.24-4.48c-.1-.38-.17-.6-.19-.69-.06.27-.12.5-.17.69l-1.25,4.48h-.79Z"/>
  </g>
  <g class="cls-2">
    <path class="cls-12" d="M62.2,279.54l.65-.06c.03.26.1.47.21.64s.29.3.52.4.5.15.79.15c.26,0,.49-.04.69-.12.2-.08.35-.18.45-.32.1-.13.15-.28.15-.44s-.05-.3-.14-.43c-.09-.12-.25-.22-.47-.31-.14-.05-.45-.14-.92-.25-.48-.11-.81-.22-1-.32-.25-.13-.43-.29-.55-.48s-.18-.41-.18-.64c0-.26.07-.5.22-.73.15-.23.36-.4.65-.52s.6-.18.95-.18c.38,0,.72.06,1.01.19.29.12.52.31.68.54.16.24.24.51.25.82l-.66.05c-.04-.33-.15-.57-.36-.74s-.5-.25-.9-.25-.72.08-.91.23c-.19.15-.28.33-.28.55,0,.19.07.34.2.46.13.12.48.24,1.03.37.56.13.94.24,1.15.33.3.14.52.31.67.53.14.21.21.46.21.74s-.08.53-.24.78c-.16.24-.38.43-.68.57-.3.13-.63.2-1,.2-.47,0-.86-.07-1.18-.2-.32-.14-.56-.34-.74-.62s-.27-.58-.28-.93Z"/>
    <path class="cls-12" d="M66.68,281.2l1.99-5.17h.74l2.12,5.17h-.78l-.6-1.57h-2.16l-.57,1.57h-.73ZM68.18,279.07h1.75l-.54-1.43c-.16-.44-.29-.79-.37-1.07-.07.33-.16.66-.28.99l-.57,1.52Z"/>
    <path class="cls-12" d="M72.05,281.2v-5.17h1.03l1.23,3.66c.11.34.2.6.25.77.06-.19.15-.46.27-.83l1.24-3.6h.92v5.17h-.66v-4.33l-1.5,4.33h-.62l-1.5-4.4v4.4h-.66Z"/>
    <path class="cls-12" d="M78.09,281.2v-5.17h1.95c.34,0,.61.02.79.05.25.04.47.12.64.24.17.12.31.29.41.5.1.21.16.45.16.71,0,.44-.14.81-.42,1.12-.28.3-.79.46-1.52.46h-1.33v2.1h-.68ZM78.78,278.48h1.34c.44,0,.76-.08.94-.25.19-.17.28-.4.28-.7,0-.22-.05-.4-.16-.56-.11-.15-.25-.26-.43-.3-.12-.03-.33-.05-.64-.05h-1.32v1.85Z"/>
    <path class="cls-12" d="M82.89,281.2v-5.17h.69v4.56h2.55v.61h-3.23Z"/>
    <path class="cls-12" d="M86.95,281.2v-5.17h3.74v.61h-3.06v1.58h2.86v.61h-2.86v1.76h3.18v.61h-3.86Z"/>
  </g>
  <text class="cls-9" transform="translate(588.32 281.2)"><tspan x="0" y="0">SOURCE</tspan></text>
  <g class="cls-3">
    <path class="cls-15" d="M54.93,312.37l.54.14c-.11.44-.32.78-.61,1.01s-.65.35-1.07.35-.79-.09-1.07-.27c-.27-.18-.48-.44-.63-.77-.14-.34-.21-.7-.21-1.09,0-.42.08-.79.24-1.11.16-.32.39-.55.69-.72.3-.16.63-.24.98-.24.41,0,.75.1,1.02.31s.47.5.58.87l-.53.12c-.09-.29-.23-.51-.41-.64s-.4-.2-.68-.2c-.31,0-.57.08-.78.22s-.36.35-.44.6-.13.51-.13.78c0,.35.05.65.15.9.1.26.26.45.47.58.21.13.44.19.69.19.3,0,.56-.09.76-.26s.35-.43.42-.77Z"/>
    <path class="cls-15" d="M55.96,311.82c0-.67.18-1.2.54-1.58.36-.38.83-.57,1.4-.57.37,0,.71.09,1.01.27.3.18.53.43.69.75.16.32.24.68.24,1.09s-.08.78-.25,1.1c-.17.33-.4.57-.71.74-.3.17-.63.25-.99.25-.38,0-.72-.09-1.02-.28s-.53-.44-.68-.75c-.15-.32-.23-.66-.23-1.01ZM56.52,311.83c0,.49.13.87.39,1.16s.59.42.99.42.74-.14,1-.43c.26-.28.39-.69.39-1.21,0-.33-.06-.62-.17-.87-.11-.25-.27-.44-.49-.57-.21-.13-.46-.2-.72-.2-.38,0-.71.13-.98.39-.27.26-.41.7-.41,1.31Z"/>
    <path class="cls-15" d="M60.53,313.8v-4.06h.55l2.13,3.19v-3.19h.51v4.06h-.55l-2.13-3.19v3.19h-.52Z"/>
    <path class="cls-15" d="M65.66,313.8v-3.58h-1.34v-.48h3.22v.48h-1.34v3.58h-.54Z"/>
    <path class="cls-15" d="M69.13,313.87l1.18-4.2h.4l-1.17,4.2h-.4Z"/>
    <path class="cls-15" d="M75.61,312.37l.54.14c-.11.44-.32.78-.61,1.01s-.65.35-1.07.35-.79-.09-1.07-.27c-.27-.18-.48-.44-.63-.77-.14-.34-.21-.7-.21-1.09,0-.42.08-.79.24-1.11.16-.32.39-.55.69-.72.3-.16.63-.24.98-.24.41,0,.75.1,1.02.31s.47.5.58.87l-.53.12c-.09-.29-.23-.51-.41-.64s-.4-.2-.68-.2c-.31,0-.57.08-.78.22s-.36.35-.44.6-.13.51-.13.78c0,.35.05.65.15.9.1.26.26.45.47.58.21.13.44.19.69.19.3,0,.56-.09.76-.26s.35-.43.42-.77Z"/>
    <path class="cls-15" d="M76.79,313.8v-4.06h.54v3.58h2v.48h-2.54Z"/>
    <path class="cls-15" d="M79.94,313.8v-4.06h.54v2.01l2.02-2.01h.73l-1.7,1.64,1.78,2.41h-.71l-1.44-2.05-.66.65v1.41h-.54Z"/>
    <path class="cls-15" d="M84.88,313.87l1.18-4.2h.4l-1.17,4.2h-.4Z"/>
    <path class="cls-15" d="M89.4,313.8v-3.58h-1.34v-.48h3.22v.48h-1.34v3.58h-.54Z"/>
    <path class="cls-15" d="M91.84,313.8v-4.06h1.8c.36,0,.64.04.82.11.19.07.34.2.45.39.11.18.17.39.17.61,0,.29-.09.53-.28.73-.19.2-.47.32-.86.38.14.07.25.14.32.2.16.14.31.32.45.54l.71,1.1h-.68l-.54-.84c-.16-.24-.29-.43-.39-.56-.1-.13-.19-.22-.27-.27-.08-.05-.16-.09-.25-.11-.06-.01-.16-.02-.3-.02h-.62v1.8h-.54ZM92.38,311.53h1.15c.25,0,.44-.03.58-.08.14-.05.24-.13.32-.24.07-.11.11-.23.11-.36,0-.19-.07-.35-.21-.47-.14-.12-.36-.19-.66-.19h-1.28v1.34Z"/>
    <path class="cls-15" d="M96.02,313.8v-4.06h.54v4.06h-.54Z"/>
    <path class="cls-15" d="M99.4,312.2v-.48h1.72s0,1.5,0,1.5c-.26.21-.54.37-.82.47-.28.11-.57.16-.86.16-.4,0-.76-.09-1.09-.26-.33-.17-.57-.42-.74-.74-.17-.32-.25-.68-.25-1.08s.08-.76.25-1.11c.17-.34.4-.6.71-.76s.67-.25,1.07-.25c.29,0,.56.05.8.14.24.09.42.23.56.4.13.17.24.39.31.67l-.48.13c-.06-.21-.14-.37-.23-.49s-.22-.21-.39-.28c-.17-.07-.35-.11-.56-.11-.25,0-.46.04-.64.11-.18.07-.32.17-.43.29s-.2.26-.26.4c-.1.25-.15.52-.15.82,0,.36.06.66.19.91.12.24.31.42.54.54.24.12.49.18.76.18.23,0,.46-.04.68-.13.22-.09.39-.18.5-.29v-.76h-1.19Z"/>
  </g>
  <g class="cls-3">
    <path class="cls-15" d="M576.71,313.8v-4.06h1.53c.27,0,.48.01.62.04.2.03.37.1.5.19.13.09.24.22.33.39s.12.35.12.55c0,.35-.11.64-.33.88-.22.24-.62.36-1.19.36h-1.04v1.65h-.54ZM577.24,311.67h1.05c.35,0,.59-.06.74-.19.15-.13.22-.31.22-.55,0-.17-.04-.31-.13-.44s-.2-.2-.34-.24c-.09-.02-.26-.04-.5-.04h-1.04v1.45Z"/>
    <path class="cls-15" d="M580.32,311.82c0-.67.18-1.2.54-1.58.36-.38.83-.57,1.4-.57.37,0,.71.09,1.01.27.3.18.53.43.69.75.16.32.24.68.24,1.09s-.08.78-.25,1.1-.4.57-.71.74-.63.25-.99.25c-.38,0-.72-.09-1.02-.28s-.53-.44-.68-.75c-.16-.32-.23-.66-.23-1.01ZM580.88,311.83c0,.49.13.87.39,1.16.26.28.59.42.99.42s.74-.14,1-.43c.26-.28.39-.69.39-1.21,0-.33-.06-.62-.17-.87-.11-.25-.27-.44-.49-.57-.22-.13-.46-.2-.72-.2-.38,0-.71.13-.98.39-.27.26-.41.7-.41,1.31Z"/>
    <path class="cls-15" d="M584.99,313.8v-4.06h.54v4.06h-.54Z"/>
    <path class="cls-15" d="M586.47,313.8v-4.06h.55l2.13,3.19v-3.19h.51v4.06h-.55l-2.13-3.19v3.19h-.51Z"/>
    <path class="cls-15" d="M591.6,313.8v-3.58h-1.34v-.48h3.22v.48h-1.34v3.58h-.54Z"/>
    <path class="cls-15" d="M595.06,313.87l1.18-4.2h.4l-1.17,4.2h-.4Z"/>
    <path class="cls-15" d="M598.63,313.8v-4.06h.54v3.58h2v.48h-2.54Z"/>
    <path class="cls-15" d="M601.9,313.8v-4.06h.54v4.06h-.54Z"/>
    <path class="cls-15" d="M603.37,313.8v-4.06h.55l2.13,3.19v-3.19h.51v4.06h-.55l-2.13-3.19v3.19h-.51Z"/>
    <path class="cls-15" d="M607.48,313.8v-4.06h2.93v.48h-2.4v1.24h2.25v.48h-2.25v1.38h2.49v.48h-3.03Z"/>
    <path class="cls-15" d="M612.39,313.87l1.18-4.2h.4l-1.17,4.2h-.4Z"/>
    <path class="cls-15" d="M615.96,313.8v-4.06h1.52c.31,0,.56.04.75.12.19.08.33.21.44.38s.16.35.16.54c0,.17-.05.34-.14.49-.09.15-.24.28-.43.37.25.07.43.19.57.37.13.17.2.38.2.61,0,.19-.04.37-.12.53s-.18.29-.3.38-.27.16-.44.2c-.18.04-.4.07-.65.07h-1.55ZM616.5,311.44h.88c.24,0,.41-.02.51-.05.14-.04.24-.11.31-.2.07-.09.1-.21.1-.35s-.03-.25-.1-.36-.16-.17-.28-.21-.33-.06-.62-.06h-.81v1.23ZM616.5,313.32h1.01c.17,0,.29,0,.37-.02.12-.02.23-.06.31-.11s.15-.13.21-.23.08-.21.08-.34c0-.15-.04-.28-.12-.39-.08-.11-.18-.19-.32-.24-.14-.04-.33-.07-.59-.07h-.94v1.4Z"/>
    <path class="cls-15" d="M619.6,311.82c0-.67.18-1.2.54-1.58.36-.38.83-.57,1.4-.57.37,0,.71.09,1.01.27.3.18.53.43.69.75.16.32.24.68.24,1.09s-.08.78-.25,1.1-.4.57-.71.74-.63.25-.99.25c-.38,0-.72-.09-1.02-.28s-.53-.44-.68-.75c-.16-.32-.23-.66-.23-1.01ZM620.15,311.83c0,.49.13.87.39,1.16.26.28.59.42.99.42s.74-.14,1-.43c.26-.28.39-.69.39-1.21,0-.33-.06-.62-.17-.87-.11-.25-.27-.44-.49-.57-.22-.13-.46-.2-.72-.2-.38,0-.71.13-.98.39-.27.26-.41.7-.41,1.31Z"/>
    <path class="cls-15" d="M625.2,313.8v-3.58h-1.34v-.48h3.22v.48h-1.34v3.58h-.54Z"/>
    <path class="cls-15" d="M627.65,313.8v-4.06h.54v1.67h2.11v-1.67h.54v4.06h-.54v-1.91h-2.11v1.91h-.54Z"/>
  </g>
  <g class="cls-2">
    <path class="cls-12" d="M73.56,353.65l.68.17c-.14.56-.4.99-.77,1.29-.37.29-.83.44-1.37.44s-1.01-.11-1.36-.34c-.35-.23-.62-.56-.8-.99-.18-.43-.27-.89-.27-1.39,0-.54.1-1.01.31-1.41.21-.4.5-.71.88-.91.38-.21.8-.31,1.25-.31.52,0,.95.13,1.31.4s.6.63.74,1.11l-.67.16c-.12-.38-.29-.65-.52-.82s-.52-.26-.86-.26c-.4,0-.73.1-1,.29s-.45.45-.56.77c-.11.32-.16.65-.16.99,0,.44.06.82.19,1.15.13.33.33.57.6.74s.56.24.88.24c.38,0,.71-.11.97-.33.27-.22.45-.55.54-.99Z"/>
    <path class="cls-12" d="M75.06,355.46v-5.17h.69v4.56h2.55v.61h-3.23Z"/>
    <path class="cls-12" d="M79.11,355.46v-5.17h2.29c.46,0,.81.05,1.05.14.24.09.43.26.58.49s.22.5.22.78c0,.37-.12.68-.36.93-.24.25-.6.41-1.1.48.18.09.32.17.41.26.2.18.39.41.57.69l.9,1.41h-.86l-.68-1.08c-.2-.31-.36-.55-.49-.71-.13-.17-.25-.28-.35-.35-.1-.07-.21-.11-.31-.14-.08-.02-.2-.02-.38-.02h-.79v2.3h-.68ZM79.8,352.57h1.47c.31,0,.56-.03.73-.1.18-.07.31-.17.4-.31.09-.14.14-.3.14-.46,0-.24-.09-.45-.27-.6-.18-.16-.46-.24-.84-.24h-1.64v1.71Z"/>
  </g>
  <g class="cls-2">
    <path class="cls-12" d="M597.35,355.46v-5.17h3.49v.61h-2.81v1.6h2.43v.61h-2.43v2.35h-.68Z"/>
    <path class="cls-12" d="M601.74,355.46v-5.17h2.29c.46,0,.81.05,1.05.14.24.09.43.26.58.49s.22.5.22.78c0,.37-.12.68-.36.93-.24.25-.61.41-1.1.48.18.09.32.17.41.26.2.18.39.41.57.69l.9,1.41h-.86l-.69-1.08c-.2-.31-.36-.55-.49-.71-.13-.17-.25-.28-.35-.35-.1-.07-.21-.11-.31-.14-.08-.02-.21-.02-.38-.02h-.79v2.3h-.68ZM602.42,352.57h1.47c.31,0,.56-.03.73-.1.18-.07.31-.17.4-.31.09-.14.14-.3.14-.46,0-.24-.09-.45-.27-.6-.18-.16-.46-.24-.84-.24h-1.64v1.71Z"/>
    <path class="cls-12" d="M606.53,355.46v-.64l2.65-3.31c.19-.24.37-.44.54-.61h-2.89v-.61h3.71v.61l-2.9,3.59-.31.36h3.3v.61h-4.09Z"/>
  </g>
  <g class="cls-4">
    <path class="cls-14" d="M129.92,322.58l1.92-2.59-1.7-2.38h.78l.9,1.28c.19.26.32.47.4.61.11-.18.24-.37.39-.57l1-1.32h.72l-1.75,2.34,1.88,2.63h-.81l-1.25-1.77c-.07-.1-.14-.21-.22-.33-.11.18-.19.3-.24.37l-1.25,1.73h-.79Z"/>
    <path class="cls-14" d="M137.1,322.58v-4.97h.66v4.97h-.66Z"/>
    <path class="cls-14" d="M138.84,322.58v-3.6h.55v.51c.26-.4.65-.59,1.15-.59.22,0,.42.04.6.12.18.08.32.18.41.31.09.13.15.28.19.45.02.11.03.31.03.59v2.21h-.61v-2.19c0-.25-.02-.43-.07-.56-.05-.12-.13-.22-.25-.3-.12-.07-.26-.11-.43-.11-.26,0-.48.08-.67.25-.19.17-.28.48-.28.94v1.97h-.61Z"/>
  </g>
  <g class="cls-4">
    <path class="cls-14" d="M191.41,322.58v-2.11l-1.92-2.87h.8l.98,1.5c.18.28.35.56.51.84.15-.26.33-.55.54-.88l.96-1.46h.77l-1.98,2.87v2.11h-.66Z"/>
    <path class="cls-14" d="M196.56,322.58v-4.97h.66v4.97h-.66Z"/>
    <path class="cls-14" d="M198.3,322.58v-3.6h.55v.51c.26-.4.65-.59,1.15-.59.22,0,.42.04.6.12.18.08.32.18.41.31.09.13.15.28.19.45.02.11.03.31.03.59v2.21h-.61v-2.19c0-.25-.02-.43-.07-.56-.05-.12-.13-.22-.25-.3-.12-.07-.26-.11-.43-.11-.26,0-.48.08-.67.25-.19.17-.28.48-.28.94v1.97h-.61Z"/>
  </g>
  <g class="cls-4">
    <path class="cls-14" d="M249.28,322.58v-.61l2.55-3.18c.18-.23.35-.42.52-.59h-2.77v-.59h3.56v.59l-2.79,3.45-.3.35h3.17v.59h-3.93Z"/>
    <path class="cls-14" d="M255.96,322.58v-4.97h.66v4.97h-.66Z"/>
    <path class="cls-14" d="M257.7,322.58v-3.6h.55v.51c.26-.4.65-.59,1.15-.59.22,0,.42.04.6.12s.32.18.41.31c.09.13.15.28.19.45.02.11.03.31.03.59v2.21h-.61v-2.19c0-.25-.02-.43-.07-.56-.05-.12-.13-.22-.25-.3-.12-.07-.26-.11-.43-.11-.26,0-.48.08-.67.25-.19.17-.28.48-.28.94v1.97h-.61Z"/>
  </g>
  <g class="cls-4">
    <path class="cls-14" d="M308.2,320.99l.62-.05c.03.25.1.45.21.61.11.16.27.29.5.39.23.1.48.15.76.15.25,0,.47-.04.67-.11s.33-.18.43-.31.14-.27.14-.43-.04-.29-.13-.41c-.09-.12-.24-.21-.45-.29-.13-.05-.43-.13-.88-.24-.46-.11-.78-.21-.96-.31-.24-.12-.41-.28-.53-.46-.12-.18-.17-.39-.17-.62,0-.25.07-.49.21-.7s.35-.38.62-.5c.27-.11.58-.17.91-.17.37,0,.69.06.97.18.28.12.5.29.65.52.15.23.23.49.24.78l-.63.05c-.03-.31-.15-.55-.34-.71-.2-.16-.48-.24-.87-.24s-.69.07-.87.22c-.18.15-.27.32-.27.53,0,.18.06.33.19.44.13.12.46.23.99.35.53.12.9.23,1.1.32.29.13.5.3.64.51.14.21.21.44.21.71s-.08.51-.23.75-.37.42-.65.55c-.28.13-.6.2-.96.2-.45,0-.83-.07-1.13-.2-.3-.13-.54-.33-.72-.59-.17-.26-.26-.56-.27-.89Z"/>
    <path class="cls-14" d="M312.98,318.31v-.7h.61v.7h-.61ZM312.98,322.58v-3.6h.61v3.6h-.61Z"/>
    <path class="cls-14" d="M314.2,322.58v-.5l2.29-2.63c-.26.01-.49.02-.69.02h-1.47v-.5h2.94v.4l-1.95,2.29-.38.42c.27-.02.53-.03.77-.03h1.67v.53h-3.19Z"/>
    <path class="cls-14" d="M320.46,321.42l.63.08c-.1.37-.28.65-.55.86-.27.2-.61.3-1.03.3-.53,0-.94-.16-1.25-.49s-.46-.78-.46-1.37.16-1.08.47-1.41c.31-.33.72-.5,1.21-.5s.88.16,1.18.49c.31.33.46.79.46,1.38,0,.04,0,.09,0,.16h-2.69c.02.4.13.7.34.91.2.21.45.32.75.32.22,0,.42-.06.57-.18s.28-.31.38-.56ZM318.46,320.44h2.01c-.03-.3-.1-.53-.23-.68-.19-.24-.45-.35-.76-.35-.28,0-.52.09-.71.28-.19.19-.3.44-.32.75Z"/>
  </g>
  <g class="cls-4">
    <path class="cls-14" d="M364.1,322.58v-4.97h1.88c.33,0,.58.02.76.05.24.04.45.12.61.23s.3.27.4.48c.1.21.15.43.15.68,0,.42-.13.78-.4,1.07-.27.29-.75.44-1.46.44h-1.28v2.02h-.66ZM364.75,319.98h1.29c.43,0,.73-.08.91-.24.18-.16.27-.38.27-.67,0-.21-.05-.39-.16-.53-.1-.15-.24-.25-.42-.29-.11-.03-.32-.04-.61-.04h-1.27v1.78Z"/>
    <path class="cls-14" d="M371.12,321.42l.63.08c-.1.37-.28.65-.55.86-.27.2-.61.3-1.03.3-.53,0-.94-.16-1.25-.49s-.46-.78-.46-1.37.16-1.08.47-1.41c.31-.33.72-.5,1.21-.5s.88.16,1.18.49c.31.33.46.79.46,1.38,0,.04,0,.09,0,.16h-2.69c.02.4.13.7.34.91.2.21.45.32.75.32.22,0,.42-.06.57-.18s.28-.31.38-.56ZM369.11,320.44h2.01c-.03-.3-.1-.53-.23-.68-.19-.24-.45-.35-.76-.35-.28,0-.52.09-.71.28-.19.19-.3.44-.32.75Z"/>
    <path class="cls-14" d="M372.51,322.58v-3.6h.55v.55c.14-.25.27-.42.39-.5.12-.08.25-.12.39-.12.21,0,.42.07.63.2l-.21.57c-.15-.09-.3-.13-.45-.13-.13,0-.25.04-.36.12-.11.08-.18.19-.23.33-.07.22-.1.45-.1.71v1.89h-.61Z"/>
    <path class="cls-14" d="M374.58,321.51l.6-.09c.03.24.13.43.28.56.15.13.37.19.65.19s.49-.06.62-.17.2-.25.2-.4c0-.14-.06-.25-.18-.33-.08-.05-.29-.12-.62-.21-.45-.11-.76-.21-.93-.29-.17-.08-.3-.2-.39-.34-.09-.15-.13-.31-.13-.48,0-.16.04-.31.11-.45s.17-.25.3-.34c.09-.07.22-.13.39-.18.16-.05.34-.07.53-.07.28,0,.53.04.74.12s.37.19.47.33c.1.14.17.32.21.56l-.6.08c-.03-.19-.11-.33-.24-.43-.13-.1-.31-.16-.55-.16-.28,0-.48.05-.6.14s-.18.2-.18.33c0,.08.03.15.08.21.05.07.13.12.23.16.06.02.24.07.54.16.43.12.73.21.9.28.17.07.3.18.4.32.1.14.15.31.15.52s-.06.39-.18.57c-.12.18-.29.32-.51.42-.22.1-.48.15-.76.15-.47,0-.82-.1-1.07-.29-.25-.19-.4-.48-.47-.87Z"/>
    <path class="cls-14" d="M378.3,318.31v-.7h.61v.7h-.61ZM378.3,322.58v-3.6h.61v3.6h-.61Z"/>
    <path class="cls-14" d="M379.6,321.51l.6-.09c.03.24.13.43.28.56.15.13.37.19.65.19s.49-.06.62-.17.2-.25.2-.4c0-.14-.06-.25-.18-.33-.08-.05-.29-.12-.62-.21-.45-.11-.76-.21-.93-.29-.17-.08-.3-.2-.39-.34-.09-.15-.13-.31-.13-.48,0-.16.04-.31.11-.45s.17-.25.3-.34c.09-.07.22-.13.39-.18.16-.05.34-.07.53-.07.28,0,.53.04.74.12s.37.19.47.33c.1.14.17.32.21.56l-.6.08c-.03-.19-.11-.33-.24-.43-.13-.1-.31-.16-.55-.16-.28,0-.48.05-.6.14s-.18.2-.18.33c0,.08.03.15.08.21.05.07.13.12.23.16.06.02.24.07.54.16.43.12.73.21.9.28.17.07.3.18.4.32.1.14.15.31.15.52s-.06.39-.18.57c-.12.18-.29.32-.51.42-.22.1-.48.15-.76.15-.47,0-.82-.1-1.07-.29-.25-.19-.4-.48-.47-.87Z"/>
    <path class="cls-14" d="M384.65,322.04l.09.54c-.17.04-.33.05-.46.05-.22,0-.39-.04-.51-.11s-.21-.16-.26-.28-.08-.35-.08-.72v-2.07h-.45v-.47h.45v-.89l.61-.37v1.26h.61v.47h-.61v2.11c0,.17.01.29.03.34s.06.09.11.12c.05.03.12.04.21.04.07,0,.16,0,.27-.02Z"/>
  </g>
  <g class="cls-4">
    <path class="cls-14" d="M427.75,320.84l.66.17c-.14.54-.39.95-.74,1.24-.36.28-.8.43-1.31.43s-.97-.11-1.31-.33c-.34-.22-.59-.53-.77-.95-.17-.41-.26-.86-.26-1.33,0-.52.1-.97.3-1.36.2-.38.48-.68.84-.88.36-.2.77-.3,1.21-.3.5,0,.92.13,1.25.38.34.25.58.61.71,1.07l-.65.15c-.12-.36-.28-.62-.5-.79-.22-.17-.5-.25-.83-.25-.38,0-.7.09-.96.27-.26.18-.44.43-.54.74-.1.31-.16.63-.16.95,0,.42.06.79.18,1.11s.31.55.58.71c.26.16.54.23.84.23.37,0,.68-.11.94-.32.25-.21.43-.53.52-.95Z"/>
    <path class="cls-14" d="M429.14,322.58v-4.97h.61v1.78c.29-.33.64-.5,1.08-.5.27,0,.5.05.7.16.2.11.34.25.42.44.08.18.13.45.13.81v2.28h-.61v-2.28c0-.3-.07-.53-.2-.67-.13-.14-.32-.21-.56-.21-.18,0-.35.05-.51.14s-.27.22-.34.38-.1.38-.1.67v1.97h-.61Z"/>
    <path class="cls-14" d="M435.35,322.14c-.23.19-.44.33-.65.41s-.43.12-.67.12c-.4,0-.7-.1-.91-.29-.21-.19-.32-.44-.32-.74,0-.18.04-.34.12-.48s.19-.26.32-.35c.13-.09.28-.15.44-.2.12-.03.3-.06.54-.09.49-.06.86-.13,1.09-.21,0-.08,0-.14,0-.16,0-.25-.06-.42-.17-.53-.16-.14-.39-.21-.69-.21-.29,0-.5.05-.64.15-.14.1-.24.28-.3.53l-.6-.08c.05-.25.14-.46.27-.62s.3-.28.54-.36.51-.13.82-.13.56.04.75.11c.19.07.33.16.42.27.09.11.15.25.19.42.02.1.03.29.03.56v.81c0,.57.01.93.04,1.08s.08.29.15.43h-.64c-.06-.13-.1-.27-.12-.44ZM435.3,320.78c-.22.09-.55.17-1,.23-.25.04-.43.08-.53.12-.1.05-.18.11-.24.2-.06.09-.08.18-.08.29,0,.16.06.3.18.41s.3.16.54.16.44-.05.63-.15c.18-.1.32-.24.4-.42.07-.14.1-.34.1-.61v-.22Z"/>
    <path class="cls-14" d="M436.63,320.78c0-.67.19-1.16.56-1.48.31-.27.69-.4,1.13-.4.5,0,.9.16,1.21.49.31.32.47.77.47,1.34,0,.46-.07.83-.21,1.09-.14.27-.34.47-.61.62-.27.15-.56.22-.87.22-.5,0-.91-.16-1.22-.48-.31-.32-.47-.79-.47-1.4ZM437.26,320.78c0,.46.1.81.3,1.04s.45.34.76.34.56-.12.76-.35.3-.58.3-1.05c0-.45-.1-.78-.3-1.01s-.45-.34-.75-.34-.56.11-.76.34-.3.57-.3,1.03Z"/>
    <path class="cls-14" d="M440.48,321.51l.6-.09c.03.24.13.43.28.56.15.13.37.19.65.19s.49-.06.62-.17.2-.25.2-.4c0-.14-.06-.25-.18-.33-.08-.05-.29-.12-.62-.21-.45-.11-.76-.21-.93-.29-.17-.08-.3-.2-.39-.34-.09-.15-.13-.31-.13-.48,0-.16.04-.31.11-.45s.17-.25.3-.34c.09-.07.22-.13.39-.18.16-.05.34-.07.53-.07.28,0,.53.04.74.12s.37.19.47.33c.1.14.17.32.21.56l-.6.08c-.03-.19-.11-.33-.24-.43-.13-.1-.31-.16-.55-.16-.28,0-.48.05-.6.14s-.18.2-.18.33c0,.08.03.15.08.21.05.07.13.12.23.16.06.02.24.07.54.16.43.12.73.21.9.28.17.07.3.18.4.32.1.14.15.31.15.52s-.06.39-.18.57c-.12.18-.29.32-.51.42-.22.1-.48.15-.76.15-.47,0-.82-.1-1.07-.29-.25-.19-.4-.48-.47-.87Z"/>
  </g>
  <g class="cls-4">
    <path class="cls-14" d="M488.63,320.84l.66.17c-.14.54-.39.95-.74,1.24-.36.28-.8.43-1.31.43s-.97-.11-1.31-.33c-.34-.22-.59-.53-.77-.95-.17-.41-.26-.86-.26-1.33,0-.52.1-.97.3-1.36.2-.38.48-.68.84-.88.36-.2.77-.3,1.21-.3.5,0,.92.13,1.25.38.34.25.58.61.71,1.07l-.65.15c-.12-.36-.28-.62-.5-.79-.22-.17-.5-.25-.83-.25-.38,0-.7.09-.96.27-.26.18-.44.43-.54.74-.1.31-.16.63-.16.95,0,.42.06.79.18,1.11s.31.55.58.71c.26.16.54.23.84.23.37,0,.68-.11.94-.32.25-.21.43-.53.52-.95Z"/>
    <path class="cls-14" d="M490.01,322.58v-4.97h.61v4.97h-.61Z"/>
    <path class="cls-14" d="M491.33,320.78c0-.67.19-1.16.56-1.48.31-.27.69-.4,1.13-.4.5,0,.9.16,1.21.49.31.32.47.77.47,1.34,0,.46-.07.83-.21,1.09-.14.27-.34.47-.61.62-.27.15-.56.22-.87.22-.5,0-.91-.16-1.22-.48-.31-.32-.47-.79-.47-1.4ZM491.96,320.78c0,.46.1.81.3,1.04s.45.34.76.34.56-.12.76-.35.3-.58.3-1.05c0-.45-.1-.78-.3-1.01s-.45-.34-.75-.34-.56.11-.76.34-.3.57-.3,1.03Z"/>
    <path class="cls-14" d="M497.77,321.26l.6.08c-.07.41-.23.74-.5.97s-.6.35-1,.35c-.49,0-.89-.16-1.19-.48-.3-.32-.45-.78-.45-1.39,0-.39.06-.73.19-1.02.13-.29.32-.51.59-.66s.55-.22.86-.22c.39,0,.71.1.96.3.25.2.41.48.48.84l-.59.09c-.06-.24-.16-.42-.3-.55s-.32-.18-.52-.18c-.31,0-.56.11-.75.33-.19.22-.29.57-.29,1.05s.09.83.28,1.05c.19.22.43.33.73.33.24,0,.44-.07.6-.22.16-.15.26-.37.3-.68Z"/>
    <path class="cls-14" d="M498.9,322.58v-4.97h.61v2.83l1.45-1.46h.79l-1.38,1.34,1.52,2.27h-.75l-1.19-1.84-.43.41v1.43h-.61Z"/>
  </g>
  <g class="cls-4">
    <path class="cls-14" d="M544.23,322.58v-4.97h2.2c.44,0,.78.04,1.01.13.23.09.42.25.55.47s.21.48.21.75c0,.35-.11.65-.34.89-.23.24-.58.4-1.06.46.17.08.31.17.4.25.19.18.37.4.55.66l.86,1.35h-.83l-.66-1.03c-.19-.3-.35-.53-.48-.69-.12-.16-.24-.27-.33-.33-.1-.06-.2-.11-.3-.13-.07-.02-.2-.02-.37-.02h-.76v2.21h-.66ZM544.89,319.81h1.41c.3,0,.54-.03.71-.09.17-.06.3-.16.39-.3s.13-.29.13-.45c0-.23-.08-.43-.26-.58s-.44-.23-.81-.23h-1.57v1.64Z"/>
    <path class="cls-14" d="M551.62,321.42l.63.08c-.1.37-.28.65-.55.86-.27.2-.61.3-1.03.3-.53,0-.94-.16-1.25-.49s-.46-.78-.46-1.37.16-1.08.47-1.41c.31-.33.72-.5,1.21-.5s.88.16,1.18.49c.31.33.46.79.46,1.38,0,.04,0,.09,0,.16h-2.69c.02.4.13.7.34.91.2.21.45.32.75.32.22,0,.42-.06.57-.18s.28-.31.38-.56ZM549.62,320.44h2.01c-.03-.3-.1-.53-.23-.68-.19-.24-.45-.35-.76-.35-.28,0-.52.09-.71.28-.19.19-.3.44-.32.75Z"/>
    <path class="cls-14" d="M552.78,321.51l.6-.09c.03.24.13.43.28.56.15.13.37.19.65.19s.49-.06.62-.17.2-.25.2-.4c0-.14-.06-.25-.18-.33-.08-.05-.29-.12-.62-.21-.45-.11-.76-.21-.93-.29-.17-.08-.3-.2-.39-.34-.09-.15-.13-.31-.13-.48,0-.16.04-.31.11-.45s.17-.25.3-.34c.09-.07.22-.13.39-.18.16-.05.34-.07.53-.07.28,0,.53.04.74.12s.37.19.47.33c.1.14.17.32.21.56l-.6.08c-.03-.19-.11-.33-.24-.43-.13-.1-.31-.16-.55-.16-.28,0-.48.05-.6.14s-.18.2-.18.33c0,.08.03.15.08.21.05.07.13.12.23.16.06.02.24.07.54.16.43.12.73.21.9.28.17.07.3.18.4.32.1.14.15.31.15.52s-.06.39-.18.57c-.12.18-.29.32-.51.42-.22.1-.48.15-.76.15-.47,0-.82-.1-1.07-.29-.25-.19-.4-.48-.47-.87Z"/>
    <path class="cls-14" d="M558.96,321.42l.63.08c-.1.37-.28.65-.55.86-.27.2-.61.3-1.03.3-.53,0-.94-.16-1.25-.49s-.46-.78-.46-1.37.16-1.08.47-1.41c.31-.33.72-.5,1.21-.5s.88.16,1.18.49c.31.33.46.79.46,1.38,0,.04,0,.09,0,.16h-2.69c.02.4.13.7.34.91.2.21.45.32.75.32.22,0,.42-.06.57-.18s.28-.31.38-.56ZM556.96,320.44h2.01c-.03-.3-.1-.53-.23-.68-.19-.24-.45-.35-.76-.35-.28,0-.52.09-.71.28-.19.19-.3.44-.32.75Z"/>
    <path class="cls-14" d="M561.69,322.04l.09.54c-.17.04-.33.05-.46.05-.22,0-.39-.04-.51-.11s-.21-.16-.26-.28-.08-.35-.08-.72v-2.07h-.45v-.47h.45v-.89l.61-.37v1.26h.61v.47h-.61v2.11c0,.17.01.29.03.34s.06.09.11.12c.05.03.12.04.21.04.07,0,.16,0,.27-.02Z"/>
  </g>
  <g class="cls-4">
    <path class="cls-14" d="M593.54,322.58v-4.97h3.35v.59h-2.7v1.54h2.33v.59h-2.33v2.26h-.66Z"/>
    <path class="cls-14" d="M597.67,322.58v-3.6h.55v.55c.14-.25.27-.42.39-.5.12-.08.25-.12.39-.12.21,0,.42.07.63.2l-.21.57c-.15-.09-.3-.13-.45-.13-.13,0-.25.04-.36.12-.11.08-.18.19-.23.33-.07.22-.1.45-.1.71v1.89h-.61Z"/>
    <path class="cls-14" d="M602.45,321.42l.63.08c-.1.37-.28.65-.55.86-.27.2-.61.3-1.03.3-.53,0-.94-.16-1.25-.49s-.46-.78-.46-1.37.16-1.08.47-1.41c.31-.33.72-.5,1.21-.5s.88.16,1.18.49c.31.33.46.79.46,1.38,0,.04,0,.09,0,.16h-2.69c.02.4.13.7.34.91.2.21.45.32.75.32.22,0,.42-.06.57-.18s.28-.31.38-.56ZM600.45,320.44h2.01c-.03-.3-.1-.53-.23-.68-.19-.24-.45-.35-.76-.35-.28,0-.52.09-.71.28-.19.19-.3.44-.32.75Z"/>
    <path class="cls-14" d="M606.31,321.42l.63.08c-.1.37-.28.65-.55.86-.27.2-.61.3-1.03.3-.53,0-.94-.16-1.25-.49s-.46-.78-.46-1.37.16-1.08.47-1.41c.31-.33.72-.5,1.21-.5s.88.16,1.18.49c.31.33.46.79.46,1.38,0,.04,0,.09,0,.16h-2.69c.02.4.13.7.34.91.2.21.45.32.75.32.22,0,.42-.06.57-.18s.28-.31.38-.56ZM604.31,320.44h2.01c-.03-.3-.1-.53-.23-.68-.19-.24-.45-.35-.76-.35-.28,0-.52.09-.71.28-.19.19-.3.44-.32.75Z"/>
    <path class="cls-14" d="M607.39,322.58v-.5l2.29-2.63c-.26.01-.49.02-.69.02h-1.47v-.5h2.94v.4l-1.95,2.29-.38.42c.27-.02.53-.03.77-.03h1.67v.53h-3.19Z"/>
    <path class="cls-14" d="M613.65,321.42l.63.08c-.1.37-.28.65-.55.86-.27.2-.61.3-1.03.3-.53,0-.94-.16-1.25-.49s-.46-.78-.46-1.37.16-1.08.47-1.41c.31-.33.72-.5,1.21-.5s.88.16,1.18.49c.31.33.46.79.46,1.38,0,.04,0,.09,0,.16h-2.69c.02.4.13.7.34.91.2.21.45.32.75.32.22,0,.42-.06.57-.18s.28-.31.38-.56ZM611.64,320.44h2.01c-.03-.3-.1-.53-.23-.68-.19-.24-.45-.35-.76-.35-.28,0-.52.09-.71.28-.19.19-.3.44-.32.75Z"/>
  </g>
  <g class="cls-3">
    <path class="cls-15" d="M134.2,335.34l1.57-2.12-1.38-1.94h.64l.74,1.04c.15.22.26.38.33.5.09-.15.2-.3.32-.46l.82-1.08h.58l-1.43,1.91,1.54,2.15h-.66l-1.02-1.45c-.06-.08-.12-.17-.18-.27-.09.15-.15.25-.19.3l-1.02,1.42h-.65Z"/>
  </g>
  <g class="cls-3">
    <path class="cls-15" d="M195.28,335.34v-1.72l-1.56-2.34h.65l.8,1.22c.15.23.29.46.41.69.12-.21.27-.45.44-.72l.79-1.19h.63l-1.62,2.34v1.72h-.54Z"/>
  </g>
  <g class="cls-3">
    <path class="cls-15" d="M253.5,335.34v-.5l2.08-2.6c.15-.18.29-.34.42-.48h-2.26v-.48h2.91v.48l-2.28,2.82-.25.29h2.59v.48h-3.21Z"/>
  </g>
  <g class="cls-3">
    <path class="cls-15" d="M311.13,335.34v-4.06h.81l.96,2.87c.09.27.15.47.19.6.05-.15.12-.36.22-.65l.97-2.82h.72v4.06h-.52v-3.4l-1.18,3.4h-.48l-1.17-3.46v3.46h-.52Z"/>
    <path class="cls-15" d="M317.54,335.34h-.5v-3.17c-.12.11-.28.23-.47.34-.19.11-.37.2-.52.26v-.48c.28-.13.52-.29.73-.48.21-.19.36-.37.44-.54h.32v4.08Z"/>
  </g>
  <g class="cls-3">
    <path class="cls-15" d="M370.66,335.34v-4.06h.81l.96,2.87c.09.27.15.47.19.6.05-.15.12-.36.22-.65l.97-2.82h.72v4.06h-.52v-3.4l-1.18,3.4h-.48l-1.17-3.46v3.46h-.52Z"/>
    <path class="cls-15" d="M377.81,334.86v.48h-2.68c0-.12.02-.24.06-.35.07-.18.18-.36.33-.54.15-.18.37-.38.65-.61.44-.36.74-.65.89-.86.16-.21.23-.41.23-.6s-.07-.36-.21-.5c-.14-.14-.33-.2-.55-.2-.24,0-.43.07-.58.22s-.22.34-.22.6l-.51-.05c.04-.38.17-.67.4-.87.23-.2.54-.3.92-.3s.7.11.92.32c.23.22.34.48.34.8,0,.16-.03.32-.1.48-.07.16-.18.32-.33.5s-.41.41-.77.71c-.3.25-.49.42-.58.51-.08.09-.16.18-.21.27h1.99Z"/>
  </g>
  <g class="cls-3">
    <path class="cls-15" d="M430.18,335.34v-4.06h.81l.96,2.87c.09.27.15.47.19.6.05-.15.12-.36.22-.65l.97-2.82h.72v4.06h-.52v-3.4l-1.18,3.4h-.48l-1.17-3.46v3.46h-.52Z"/>
    <path class="cls-15" d="M434.72,334.27l.5-.07c.06.28.15.49.29.61s.3.19.5.19c.23,0,.43-.08.59-.24.16-.16.24-.36.24-.6s-.08-.42-.22-.57-.34-.22-.57-.22c-.09,0-.21.02-.35.06l.06-.44s.06,0,.08,0c.21,0,.4-.06.57-.17.17-.11.25-.28.25-.51,0-.18-.06-.33-.19-.45-.12-.12-.28-.18-.48-.18s-.36.06-.48.18-.21.3-.25.55l-.5-.09c.06-.33.2-.59.42-.78.22-.18.48-.28.81-.28.22,0,.42.05.61.14.19.1.33.22.43.39.1.16.15.34.15.52s-.05.33-.14.48c-.09.14-.23.26-.42.34.24.06.43.17.56.34.13.17.2.39.2.66,0,.35-.13.65-.39.9-.26.25-.58.37-.98.37-.36,0-.65-.11-.89-.32-.24-.21-.37-.49-.4-.83Z"/>
  </g>
  <g class="cls-3">
    <path class="cls-15" d="M491.05,333.92l.54.14c-.11.44-.32.78-.61,1.01-.29.23-.65.35-1.07.35s-.79-.09-1.07-.27c-.27-.18-.48-.44-.62-.77-.14-.34-.21-.7-.21-1.09,0-.42.08-.79.24-1.11.16-.32.39-.55.69-.72.3-.16.63-.24.98-.24.41,0,.75.1,1.02.31.28.21.47.5.58.87l-.53.12c-.09-.29-.23-.51-.41-.64s-.4-.2-.68-.2c-.31,0-.57.08-.78.22-.21.15-.36.35-.44.6-.08.25-.13.51-.13.78,0,.35.05.65.15.9.1.26.26.45.47.58.21.13.44.19.69.19.3,0,.56-.09.76-.26.21-.17.35-.43.42-.77Z"/>
    <path class="cls-15" d="M492.22,335.34v-4.06h.54v3.58h2v.48h-2.54Z"/>
    <path class="cls-15" d="M495.38,335.34v-4.06h.54v2.01l2.02-2.01h.73l-1.7,1.64,1.78,2.41h-.71l-1.45-2.05-.66.65v1.41h-.54Z"/>
  </g>
  <g class="cls-3">
    <path class="cls-15" d="M547.53,335.34v-4.06h1.8c.36,0,.64.04.83.11.19.07.34.2.45.39.11.18.17.39.17.61,0,.29-.09.53-.28.73s-.47.32-.86.38c.14.07.25.14.32.2.16.14.3.32.45.54l.71,1.1h-.68l-.54-.84c-.16-.24-.29-.43-.39-.56s-.19-.22-.27-.27-.16-.09-.25-.11c-.06-.01-.16-.02-.3-.02h-.62v1.8h-.54ZM548.07,333.07h1.15c.25,0,.44-.03.58-.08.14-.05.24-.13.32-.24s.11-.23.11-.36c0-.19-.07-.35-.21-.47-.14-.12-.36-.19-.66-.19h-1.29v1.34Z"/>
    <path class="cls-15" d="M551.44,334.04l.51-.04c.02.2.08.37.17.5s.22.24.41.32c.18.08.39.12.62.12.21,0,.39-.03.54-.09.16-.06.27-.14.35-.25.08-.11.12-.22.12-.35s-.04-.24-.11-.33c-.07-.09-.2-.17-.37-.24-.11-.04-.35-.11-.72-.2-.37-.09-.63-.17-.78-.25-.19-.1-.34-.23-.43-.38-.1-.15-.14-.32-.14-.5,0-.21.06-.4.17-.57.12-.18.29-.31.51-.41.22-.09.47-.14.74-.14.3,0,.57.05.8.14.23.1.41.24.53.43.12.19.19.4.2.64l-.51.04c-.03-.26-.12-.45-.28-.58-.16-.13-.4-.2-.71-.2s-.56.06-.71.18-.22.26-.22.43c0,.15.05.27.16.36.1.09.37.19.81.29s.74.18.9.26c.24.11.41.25.52.41s.17.36.17.58-.06.42-.19.61c-.12.19-.3.34-.53.45s-.49.16-.78.16c-.37,0-.67-.05-.92-.16-.25-.11-.44-.27-.58-.48s-.22-.46-.22-.73Z"/>
    <path class="cls-15" d="M556.43,335.34v-3.58h-1.34v-.48h3.22v.48h-1.34v3.58h-.54Z"/>
  </g>
  <g class="cls-3">
    <path class="cls-15" d="M598.73,335.34v-4.06h2.74v.48h-2.2v1.26h1.9v.48h-1.9v1.84h-.54Z"/>
    <path class="cls-15" d="M602.18,335.34v-4.06h1.8c.36,0,.64.04.83.11.19.07.34.2.45.39.11.18.17.39.17.61,0,.29-.09.53-.28.73s-.47.32-.86.38c.14.07.25.14.32.2.16.14.3.32.45.54l.71,1.1h-.68l-.54-.84c-.16-.24-.29-.43-.39-.56s-.19-.22-.27-.27-.16-.09-.25-.11c-.06-.01-.16-.02-.3-.02h-.62v1.8h-.54ZM602.71,333.07h1.15c.25,0,.44-.03.58-.08.14-.05.24-.13.32-.24s.11-.23.11-.36c0-.19-.07-.35-.21-.47-.14-.12-.36-.19-.66-.19h-1.29v1.34Z"/>
    <path class="cls-15" d="M605.94,335.34v-.5l2.08-2.6c.15-.18.29-.34.42-.48h-2.26v-.48h2.91v.48l-2.28,2.82-.25.29h2.59v.48h-3.21Z"/>
  </g>
  <path class="cls-6" d="M102.05,294.8h476.22"/>
  <path class="cls-6" d="M65.2,260.79c76.54,8.5,476.22,8.5,549.92,0"/>
  <path class="cls-7" d="M61.8,30.33l-9.64,8.79"/>
  <path class="cls-7" d="M629.29,30.33l9.64,8.79"/>
  <path class="cls-6" d="M49.04,45.35v289.13"/>
  <path class="cls-6" d="M632.13,45.35v289.13"/>
</svg>