<?xml version="1.0" encoding="UTF-8"?>
<svg id="Layer_1" data-name="Layer 1" xmlns="http://www.w3.org/2000/svg" xmlns:xlink="http://www.w3.org/1999/xlink" viewBox="0 0 691.2 364.25">
  <defs>
    <style>
      .cls-1 {
        opacity: .42;
        stroke: #244c63;
        stroke-width: .99px;
      }

      .cls-1, .cls-2, .cls-3, .cls-4, .cls-5 {
        isolation: isolate;
      }

      .cls-1, .cls-6, .cls-3, .cls-4, .cls-5 {
        stroke-miterlimit: 11.34;
      }

      .cls-1, .cls-3, .cls-4, .cls-5 {
        fill: none;
      }

      .cls-2 {
        opacity: .92;
      }

      .cls-7 {
        fill: #f1d78b;
      }

      .cls-6 {
        fill: url(#linear-gradient-2);
        stroke: #3b657c;
        stroke-width: 3.26px;
      }

      .cls-3 {
        opacity: .36;
        stroke: #2b5165;
        stroke-width: 1.28px;
      }

      .cls-8 {
        fill: url(#linear-gradient);
      }

      .cls-4 {
        opacity: .45;
        stroke: #876a2f;
      }

      .cls-4, .cls-5 {
        stroke-width: 1.56px;
      }

      .cls-9 {
        fill: #fff;
      }

      .cls-10 {
        fill: #8fb7cb;
      }

      .cls-5 {
        opacity: .62;
        stroke: #8a6b2f;
      }
    </style>
    <linearGradient id="linear-gradient" x1="206.06" y1="339.41" x2="206.06" y2="210.91" gradientTransform="translate(-238.5 962.09) scale(2.83 -2.83)" gradientUnits="userSpaceOnUse">
      <stop offset="0" stop-color="#141b22"/>
      <stop offset="1" stop-color="#091018"/>
    </linearGradient>
    <linearGradient id="linear-gradient-2" x1="205.64" y1="325.41" x2="205.64" y2="249.41" gradientTransform="translate(-238.5 962.09) scale(2.83 -2.83)" gradientUnits="userSpaceOnUse">
      <stop offset="0" stop-color="#06111b"/>
      <stop offset="1" stop-color="#01060a"/>
    </linearGradient>
  </defs>
  <rect class="cls-8" width="691.2" height="364.25"/>
  <rect class="cls-5" x="9.07" y="9.07" width="673.06" height="346.11" rx="8.5" ry="8.5"/>
  <rect class="cls-6" x="68.03" y="39.69" width="552.76" height="215.43" rx="11.34" ry="11.34"/>
  <rect class="cls-1" x="70.58" y="42.24" width="547.65" height="210.33" rx="9.07" ry="9.07"/>
  <path class="cls-9" d="M17.63,35.15l1.48-2.05c.06-.08.15-.23.28-.44.09.14.17.27.26.39l1.48,2.1h.96l-2.23-3.11,2.07-2.77h-.85l-1.18,1.56c-.18.23-.33.46-.47.67-.09-.17-.25-.41-.47-.72l-1.07-1.51h-.93l2.01,2.82-2.28,3.07h.94Z"/>
  <path class="cls-9" d="M28.05,34.42c-.23.09-.49.13-.79.13-.33,0-.64-.06-.9-.17-.27-.12-.46-.27-.59-.46-.13-.19-.21-.43-.24-.72l-.73.06c.01.39.12.75.32,1.06.2.31.49.55.85.7.36.15.81.23,1.34.23.42,0,.8-.08,1.13-.23.34-.15.59-.37.77-.65.18-.28.27-.57.27-.88s-.08-.59-.25-.84-.42-.44-.76-.6c-.24-.11-.67-.23-1.3-.38s-1.02-.28-1.17-.42c-.15-.14-.23-.31-.23-.52,0-.24.11-.45.32-.62.22-.17.56-.26,1.03-.26s.79.1,1.03.29.37.47.41.84l.75-.06c-.01-.35-.11-.65-.29-.93s-.44-.48-.77-.62c-.33-.14-.72-.21-1.15-.21-.4,0-.76.07-1.08.2s-.57.33-.74.59c-.17.26-.25.54-.25.83,0,.27.07.51.21.73.14.22.35.4.63.55.22.11.6.24,1.14.37s.89.23,1.05.29c.25.09.42.21.53.35.11.14.16.3.16.48s-.06.35-.17.5c-.11.15-.28.27-.51.36Z"/>
  <path class="cls-9" d="M31.53,34.86c.4.26.91.39,1.55.39s1.13-.17,1.56-.5c.42-.34.72-.82.88-1.46l-.78-.2c-.11.5-.31.87-.61,1.12-.3.25-.67.38-1.11.38-.36,0-.69-.09-1-.28s-.53-.46-.68-.84c-.15-.37-.22-.81-.22-1.31,0-.39.06-.76.18-1.13s.34-.66.64-.87.68-.33,1.13-.33c.39,0,.72.1.98.29.26.2.46.51.59.94l.77-.18c-.16-.54-.44-.96-.84-1.26s-.9-.45-1.49-.45c-.52,0-.99.12-1.43.36s-.77.58-1,1.04c-.23.46-.35.99-.35,1.6,0,.56.1,1.09.31,1.58.21.49.51.86.91,1.12Z"/>
  <path class="cls-9" d="M37.3,33.37h2.46l.69,1.78h.89l-2.41-5.88h-.84l-2.26,5.88h.83l.65-1.78ZM38.17,31.01c.14-.37.24-.75.32-1.12.09.32.23.73.42,1.22l.61,1.63h-1.99l.65-1.73Z"/>
  <polygon class="cls-9" points="45.6 34.46 42.7 34.46 42.7 29.27 41.93 29.27 41.93 35.15 45.6 35.15 45.6 34.46"/>
  <polygon class="cls-9" points="50.94 34.46 47.32 34.46 47.32 32.45 50.58 32.45 50.58 31.76 47.32 31.76 47.32 29.96 50.8 29.96 50.8 29.27 46.55 29.27 46.55 35.15 50.94 35.15 50.94 34.46"/>
  <path class="cls-9" d="M20.1,82.02c-.25.39-.47.73-.64,1.04-.18-.33-.38-.66-.6-1l-1.16-1.77h-.95l2.27,3.39v2.49h.78v-2.49l2.35-3.39h-.91l-1.14,1.73Z"/>
  <path class="cls-9" d="M25.89,86.04c.36.15.81.23,1.34.23.42,0,.8-.08,1.13-.23.34-.15.59-.37.77-.65.18-.28.27-.57.27-.88s-.08-.59-.25-.84-.42-.44-.76-.6c-.24-.11-.67-.23-1.3-.38s-1.02-.28-1.17-.42c-.15-.14-.23-.31-.23-.52,0-.24.11-.45.32-.62.22-.17.56-.26,1.03-.26s.79.1,1.03.29.37.47.41.84l.75-.06c-.01-.35-.11-.65-.29-.93s-.44-.48-.77-.62c-.33-.14-.72-.21-1.15-.21-.4,0-.76.07-1.08.2s-.57.33-.74.59c-.17.26-.25.54-.25.83,0,.27.07.51.21.73.14.22.35.4.63.55.22.11.6.24,1.14.37s.89.23,1.05.29c.25.09.42.21.53.35.11.14.16.3.16.48s-.06.35-.17.5c-.11.15-.28.27-.51.36s-.49.13-.79.13c-.33,0-.64-.06-.9-.17-.27-.12-.46-.27-.59-.46-.13-.19-.21-.43-.24-.72l-.73.06c.01.39.12.75.32,1.06.2.31.49.55.85.7Z"/>
  <path class="cls-9" d="M31.46,85.89c.4.26.91.39,1.55.39s1.13-.17,1.56-.5c.42-.34.72-.82.88-1.46l-.78-.2c-.11.5-.31.87-.61,1.12-.3.25-.67.38-1.11.38-.36,0-.69-.09-1-.28s-.53-.46-.68-.84c-.15-.37-.22-.81-.22-1.31,0-.39.06-.76.18-1.13s.34-.66.64-.87.68-.33,1.13-.33c.39,0,.72.1.98.29.26.2.46.51.59.94l.77-.18c-.16-.54-.44-.96-.84-1.26s-.9-.45-1.49-.45c-.52,0-.99.12-1.43.36s-.77.58-1,1.04c-.23.46-.35.99-.35,1.6,0,.56.1,1.09.31,1.58.21.49.51.86.91,1.12Z"/>
  <path class="cls-9" d="M37.23,84.39h2.46l.69,1.78h.89l-2.41-5.88h-.84l-2.26,5.88h.83l.65-1.78ZM38.1,82.03c.14-.37.24-.75.32-1.12.09.32.23.73.42,1.22l.61,1.63h-1.99l.65-1.73Z"/>
  <polygon class="cls-9" points="45.53 85.48 42.63 85.48 42.63 80.29 41.85 80.29 41.85 86.17 45.53 86.17 45.53 85.48"/>
  <polygon class="cls-9" points="50.86 85.48 47.25 85.48 47.25 83.48 50.51 83.48 50.51 82.79 47.25 82.79 47.25 80.98 50.73 80.98 50.73 80.29 46.47 80.29 46.47 86.17 50.86 86.17 50.86 85.48"/>
  <path class="cls-9" d="M17.82,136.5h-3.76l.36-.41,3.3-4.08v-.69h-4.21v.69h3.28c-.19.2-.4.43-.61.7l-3.01,3.77v.72h4.65v-.69Z"/>
  <polygon class="cls-9" points="25.21 132.01 25.21 131.31 20.96 131.31 20.96 137.2 25.35 137.2 25.35 136.5 21.74 136.5 21.74 134.5 24.99 134.5 24.99 133.81 21.74 133.81 21.74 132.01 25.21 132.01"/>
  <polygon class="cls-9" points="31.06 137.2 31.06 131.31 30.31 131.31 30.31 135.93 27.22 131.31 26.42 131.31 26.42 137.2 27.17 137.2 27.17 132.57 30.26 137.2 31.06 137.2"/>
  <polygon class="cls-9" points="36.63 132.01 36.63 131.31 32.38 131.31 32.38 137.2 36.77 137.2 36.77 136.5 33.16 136.5 33.16 134.5 36.41 134.5 36.41 133.81 33.16 133.81 33.16 132.01 36.63 132.01"/>
  <path class="cls-9" d="M37.86,131.31v5.88h.78v-2.61h.9c.2,0,.35,0,.43.03.12.03.24.08.35.16.12.07.25.21.4.39.15.19.33.46.56.81l.78,1.22h.98l-1.02-1.6c-.2-.31-.42-.57-.65-.78-.11-.1-.26-.19-.47-.29.56-.08.98-.26,1.25-.55.27-.29.41-.64.41-1.06,0-.32-.08-.62-.25-.89-.16-.27-.38-.45-.65-.56-.27-.11-.67-.16-1.2-.16h-2.61ZM41.46,132.23c.2.18.3.41.3.69,0,.19-.05.37-.16.53s-.26.28-.46.35c-.2.07-.48.11-.83.11h-1.67v-1.95h1.86c.44,0,.75.09.96.27Z"/>
  <path class="cls-9" d="M44.99,132.47c.16-.18.37-.32.63-.43.26-.11.57-.16.92-.16.3,0,.57.05.81.15.24.1.43.24.56.41.13.17.24.41.33.71l.7-.19c-.1-.4-.25-.72-.45-.96-.2-.25-.47-.44-.81-.58-.34-.14-.73-.21-1.15-.21-.59,0-1.1.12-1.55.36-.45.24-.79.61-1.03,1.11-.24.5-.36,1.03-.36,1.6s.12,1.1.36,1.57.6.83,1.07,1.07c.47.25,1,.37,1.58.37.43,0,.85-.08,1.25-.23s.8-.38,1.18-.69v-2.18h-2.49v.69h1.73v1.1c-.17.15-.41.29-.73.42s-.65.19-.99.19c-.39,0-.75-.09-1.1-.26s-.61-.43-.79-.79c-.18-.35-.27-.79-.27-1.32,0-.43.07-.82.22-1.18.09-.21.21-.41.37-.58Z"/>
  <path class="cls-9" d="M49.57,131.31l2.27,3.39v2.49h.78v-2.49l2.35-3.39h-.91l-1.14,1.73c-.25.39-.47.73-.64,1.04-.18-.33-.38-.66-.6-1l-1.16-1.77h-.95Z"/>
  <path class="cls-9" d="M27.54,187.29c.16-.23.3-.51.4-.86.1-.35.16-.74.16-1.19,0-.52-.08-.99-.23-1.4s-.39-.74-.7-1.01c-.24-.2-.53-.34-.86-.42-.24-.06-.59-.08-1.05-.08h-2.03v5.88h2.12c.36,0,.67-.03.95-.1.27-.07.51-.17.7-.29s.37-.31.54-.53ZM26.18,187.42c-.22.07-.53.11-.91.11h-1.26v-4.5h1.24c.46,0,.8.04,1.01.12.29.11.53.33.74.66s.3.8.3,1.42c0,.44-.05.82-.15,1.13s-.25.56-.43.75c-.13.13-.31.23-.53.3Z"/>
  <path class="cls-9" d="M33.22,182.62c-.44-.26-.93-.39-1.47-.39-.83,0-1.51.28-2.03.83s-.79,1.32-.79,2.29c0,.52.11,1.01.34,1.47.23.46.56.83.99,1.1.44.27.93.4,1.48.4.51,0,.99-.12,1.43-.36s.78-.6,1.02-1.07c.24-.47.36-1,.36-1.6s-.11-1.12-.34-1.58c-.23-.46-.56-.83-1-1.09ZM33.19,187.04c-.38.41-.86.62-1.45.62s-1.05-.2-1.44-.61-.57-.97-.57-1.68c0-.89.2-1.52.6-1.9.4-.38.87-.57,1.42-.57.39,0,.74.1,1.05.29.31.2.55.47.71.83.16.36.24.78.24,1.25,0,.76-.19,1.34-.57,1.75Z"/>
  <polygon class="cls-9" points="37.06 188.22 37.84 188.22 37.84 183.03 39.79 183.03 39.79 182.34 35.12 182.34 35.12 183.03 37.06 183.03 37.06 188.22"/>
  <path class="cls-9" d="M41.49,188.09c.36.16.81.23,1.34.23.42,0,.8-.08,1.13-.23.34-.15.59-.37.77-.65.18-.28.27-.57.27-.89s-.08-.59-.25-.84-.42-.44-.76-.6c-.24-.11-.67-.23-1.3-.38-.63-.14-1.02-.28-1.17-.42-.15-.14-.23-.31-.23-.52,0-.24.11-.45.32-.62.22-.17.56-.26,1.03-.26s.79.1,1.03.29c.23.19.37.47.41.84l.75-.06c-.01-.35-.11-.65-.29-.93-.18-.27-.44-.48-.77-.62-.33-.14-.72-.21-1.15-.21-.4,0-.76.07-1.08.2s-.57.33-.74.59c-.17.26-.25.54-.25.83,0,.27.07.51.21.73.14.22.35.4.63.55.22.12.6.24,1.14.37.54.13.89.23,1.05.29.25.09.42.21.53.35.11.14.16.3.16.48s-.06.35-.17.5c-.11.15-.28.28-.51.36s-.49.13-.79.13c-.33,0-.64-.06-.9-.17s-.46-.27-.59-.46-.21-.43-.24-.72l-.73.06c.01.39.12.75.32,1.06s.49.54.85.7Z"/>
  <polygon class="cls-9" points="26.42 238.55 23.52 238.55 23.52 233.36 22.74 233.36 22.74 239.24 26.42 239.24 26.42 238.55"/>
  <rect class="cls-9" x="27.48" y="233.36" width=".78" height="5.88"/>
  <polygon class="cls-9" points="34.25 233.36 33.51 233.36 33.51 237.98 30.42 233.36 29.62 233.36 29.62 239.24 30.37 239.24 30.37 234.62 33.46 239.24 34.25 239.24 34.25 233.36"/>
  <polygon class="cls-9" points="39.83 234.05 39.83 233.36 35.58 233.36 35.58 239.24 39.97 239.24 39.97 238.55 36.36 238.55 36.36 236.55 39.61 236.55 39.61 235.86 36.36 235.86 36.36 234.05 39.83 234.05"/>
  <path class="cls-9" d="M44.46,236.15c-.24-.11-.67-.23-1.3-.38-.63-.14-1.02-.28-1.17-.42-.15-.14-.23-.31-.23-.52,0-.24.11-.45.32-.62.22-.17.56-.26,1.03-.26s.79.1,1.03.29c.23.19.37.47.41.84l.75-.06c-.01-.35-.11-.65-.29-.93-.18-.27-.44-.48-.77-.62-.33-.14-.72-.21-1.15-.21-.4,0-.76.07-1.08.2s-.57.33-.74.59c-.17.26-.25.54-.25.83,0,.27.07.51.21.73.14.22.35.4.63.55.22.12.6.24,1.14.37.54.13.89.23,1.05.29.25.09.42.21.53.35.11.14.16.3.16.48s-.06.35-.17.5c-.11.15-.28.28-.51.36s-.49.13-.79.13c-.33,0-.64-.06-.9-.17s-.46-.27-.59-.46-.21-.43-.24-.72l-.73.06c.01.39.12.75.32,1.06s.49.54.85.7c.36.16.81.23,1.34.23.42,0,.8-.08,1.13-.23.34-.15.59-.37.77-.65.18-.28.27-.57.27-.89s-.08-.59-.25-.84-.42-.44-.76-.6Z"/>
  <path class="cls-9" d="M16.5,285.28c-.12-.24-.28-.43-.47-.57-.2-.13-.44-.23-.73-.27-.21-.04-.5-.06-.9-.06h-2.22v5.88h.78v-2.39h1.51c.83,0,1.41-.17,1.73-.52s.48-.77.48-1.27c0-.29-.06-.56-.18-.8ZM15.56,286.9c-.21.19-.57.28-1.07.28h-1.52v-2.1h1.5c.35,0,.6.02.73.05.2.06.37.17.49.35.12.18.19.39.19.63,0,.34-.11.6-.32.79Z"/>
  <path class="cls-9" d="M18.68,284.38l-2.26,5.88h.83l.65-1.78h2.46l.69,1.78h.89l-2.41-5.88h-.84ZM18.11,287.85l.65-1.73c.14-.37.24-.75.32-1.12.09.32.23.73.42,1.22l.61,1.63h-1.99Z"/>
  <path class="cls-9" d="M26.07,287.88c-.11-.1-.26-.19-.47-.29.56-.08.98-.26,1.25-.55.27-.29.41-.64.41-1.06,0-.32-.08-.62-.25-.89-.16-.27-.38-.45-.65-.56-.27-.11-.67-.16-1.2-.16h-2.61v5.88h.78v-2.61h.9c.2,0,.35,0,.43.03.12.03.24.08.35.16.12.08.25.21.4.39.15.19.33.46.56.81l.78,1.22h.98l-1.02-1.6c-.2-.31-.42-.57-.65-.78ZM25.01,286.98h-1.67v-1.95h1.86c.44,0,.75.09.96.27.2.18.3.41.3.69,0,.19-.05.37-.16.53s-.26.28-.46.35c-.2.07-.48.11-.83.11Z"/>
  <polygon class="cls-9" points="27.89 285.08 29.83 285.08 29.83 290.27 30.61 290.27 30.61 285.08 32.56 285.08 32.56 284.38 27.89 284.38 27.89 285.08"/>
  <rect class="cls-9" x="33.49" y="284.38" width=".78" height="5.88"/>
  <path class="cls-9" d="M39.22,289.33c-.3.25-.67.38-1.11.38-.36,0-.69-.09-1-.28s-.53-.46-.68-.84c-.15-.37-.22-.81-.22-1.31,0-.39.06-.76.18-1.13s.34-.66.64-.87.68-.33,1.13-.33c.39,0,.72.1.98.29.26.2.46.51.59.94l.77-.18c-.16-.54-.44-.96-.84-1.26s-.9-.45-1.49-.45c-.52,0-.99.12-1.43.35-.43.24-.77.58-1,1.04-.23.46-.35.99-.35,1.6,0,.56.1,1.09.31,1.58.21.49.51.86.91,1.12.4.26.91.39,1.55.39s1.13-.17,1.56-.5c.42-.34.72-.82.88-1.46l-.78-.2c-.11.5-.31.87-.61,1.12Z"/>
  <polygon class="cls-9" points="42.32 284.38 41.54 284.38 41.54 290.27 45.22 290.27 45.22 289.57 42.32 289.57 42.32 284.38"/>
  <polygon class="cls-9" points="46.94 287.57 50.2 287.57 50.2 286.88 46.94 286.88 46.94 285.08 50.42 285.08 50.42 284.38 46.16 284.38 46.16 290.27 50.55 290.27 50.55 289.57 46.94 289.57 46.94 287.57"/>
  <path class="cls-9" d="M55.8,287.77c-.16-.24-.42-.44-.76-.6-.24-.11-.67-.23-1.3-.38-.63-.14-1.02-.28-1.17-.42-.15-.14-.23-.31-.23-.52,0-.24.11-.45.32-.62.22-.17.56-.26,1.03-.26s.79.1,1.03.29c.23.19.37.47.41.84l.75-.06c-.01-.35-.11-.65-.29-.93-.18-.27-.44-.48-.77-.62-.33-.14-.72-.21-1.15-.21-.4,0-.76.07-1.08.2s-.57.33-.74.59c-.17.26-.25.54-.25.83,0,.27.07.51.21.73.14.22.35.4.63.55.22.12.6.24,1.14.37.54.13.89.23,1.05.29.25.09.42.21.53.35.11.14.16.3.16.48s-.06.35-.17.5c-.11.15-.28.28-.51.36s-.49.13-.79.13c-.33,0-.64-.06-.9-.17s-.46-.27-.59-.46-.21-.43-.24-.72l-.73.06c.01.39.12.75.32,1.06s.49.54.85.7c.36.16.81.23,1.34.23.42,0,.8-.08,1.13-.23.34-.15.59-.37.77-.65.18-.28.27-.57.27-.89s-.08-.59-.25-.84Z"/>
  <path class="cls-7" d="M588.64,279.54l.65-.06c.03.26.1.47.21.64.11.17.29.3.52.4s.5.15.79.15c.26,0,.49-.04.69-.12.2-.08.35-.18.45-.32.1-.13.15-.28.15-.44s-.05-.3-.14-.43c-.09-.12-.25-.22-.47-.31-.14-.05-.45-.14-.92-.25-.47-.11-.81-.22-1-.32-.25-.13-.43-.29-.55-.48s-.18-.41-.18-.64c0-.26.07-.5.22-.73.15-.23.36-.4.65-.52.28-.12.6-.18.95-.18.38,0,.72.06,1.01.19.29.12.52.31.68.54.16.24.24.51.25.82l-.66.05c-.04-.33-.15-.57-.36-.74-.2-.17-.5-.25-.9-.25s-.72.08-.91.23c-.19.15-.28.33-.28.55,0,.19.07.34.2.46.13.12.48.24,1.03.37s.94.24,1.15.33c.3.14.52.31.67.53s.21.46.21.74-.08.53-.24.78c-.16.24-.38.43-.68.57-.29.13-.63.2-1,.2-.47,0-.86-.07-1.18-.2-.32-.14-.56-.34-.75-.62-.18-.27-.27-.58-.28-.93Z"/>
  <path class="cls-7" d="M593.49,278.68c0-.86.23-1.53.69-2.02s1.06-.73,1.79-.73c.48,0,.91.11,1.29.34.38.23.68.55.88.96s.3.87.3,1.39-.11.99-.32,1.41c-.21.41-.51.73-.9.94s-.81.32-1.26.32c-.49,0-.92-.12-1.31-.35s-.67-.56-.87-.96c-.2-.41-.3-.84-.3-1.29ZM594.19,278.69c0,.62.17,1.12.5,1.47.33.36.76.54,1.26.54s.94-.18,1.27-.54.5-.88.5-1.54c0-.42-.07-.79-.21-1.1-.14-.31-.35-.56-.62-.73-.27-.17-.58-.26-.92-.26-.49,0-.9.17-1.25.5-.35.33-.52.89-.52,1.67Z"/>
  <path class="cls-7" d="M602.71,276.02h.68v2.99c0,.52-.06.93-.18,1.24-.12.31-.33.55-.64.75-.31.19-.71.29-1.21.29s-.88-.08-1.19-.25-.53-.41-.66-.73-.2-.75-.2-1.3v-2.99h.68v2.99c0,.45.04.78.12.99.08.21.23.38.43.49.2.12.45.17.75.17.5,0,.86-.11,1.08-.34.21-.23.32-.67.32-1.32v-2.99Z"/>
  <path class="cls-7" d="M604.55,281.2v-5.17h2.29c.46,0,.81.05,1.05.14.24.09.43.26.58.49s.22.5.22.78c0,.37-.12.68-.36.93-.24.25-.61.41-1.1.48.18.09.32.17.41.26.2.18.39.41.57.69l.9,1.41h-.86l-.69-1.08c-.2-.31-.36-.55-.49-.71-.13-.17-.25-.28-.35-.35-.1-.07-.21-.11-.31-.14-.08-.02-.21-.02-.38-.02h-.79v2.3h-.68ZM605.23,278.31h1.47c.31,0,.56-.03.73-.1.18-.07.31-.17.4-.31.09-.14.14-.3.14-.46,0-.24-.09-.45-.27-.6-.18-.16-.46-.24-.84-.24h-1.64v1.71Z"/>
  <path class="cls-7" d="M613.45,279.38l.69.17c-.14.56-.4.99-.78,1.29-.37.29-.83.44-1.37.44s-1.01-.11-1.36-.34c-.35-.23-.62-.56-.8-.99-.18-.43-.27-.89-.27-1.39,0-.54.1-1.01.31-1.41s.5-.71.88-.91.8-.31,1.25-.31c.52,0,.95.13,1.31.4.35.26.6.63.74,1.11l-.67.16c-.12-.38-.29-.65-.52-.82s-.52-.26-.86-.26c-.4,0-.73.1-1,.29-.27.19-.45.45-.56.77s-.16.65-.16.99c0,.44.06.82.19,1.15.13.33.33.57.6.74s.56.24.88.24c.38,0,.71-.11.97-.33.27-.22.45-.55.54-.99Z"/>
  <path class="cls-7" d="M614.99,281.2v-5.17h3.74v.61h-3.06v1.58h2.86v.61h-2.86v1.76h3.18v.61h-3.86Z"/>
  <path class="cls-9" d="M280.96,21.75h3.46v2.19c-.33.29-.82.57-1.46.83-.64.26-1.3.39-1.97.39-.78,0-1.51-.17-2.2-.51-.69-.34-1.22-.87-1.58-1.57s-.54-1.58-.54-2.63c0-.85.15-1.64.45-2.37.18-.42.42-.81.74-1.16.32-.35.74-.64,1.26-.85.52-.22,1.13-.33,1.85-.33.59,0,1.13.1,1.62.31.49.21.86.48,1.12.82.26.34.48.81.66,1.41l1.4-.39c-.2-.79-.5-1.43-.89-1.93-.39-.49-.93-.88-1.62-1.15-.69-.28-1.46-.41-2.31-.41-1.17,0-2.21.24-3.11.72-.9.48-1.59,1.22-2.07,2.21-.48.99-.72,2.06-.72,3.21s.24,2.2.72,3.14,1.19,1.65,2.14,2.15c.94.5,1.99.74,3.15.74.86,0,1.69-.15,2.5-.46s1.6-.77,2.37-1.38v-4.37h-4.99v1.39Z"/>
  <polygon class="cls-9" points="297.22 24.97 291.42 24.97 291.42 14.59 289.87 14.59 289.87 26.36 297.22 26.36 297.22 24.97"/>
  <path class="cls-9" d="M302.42,22.8h4.92l1.37,3.56h1.77l-4.82-11.77h-1.68l-4.52,11.77h1.65l1.29-3.56ZM304.16,18.08c.27-.74.48-1.49.63-2.25.18.64.46,1.45.83,2.44l1.23,3.26h-3.99l1.29-3.45Z"/>
  <path class="cls-9" d="M317.91,26.56c.84,0,1.6-.15,2.27-.46.67-.31,1.19-.74,1.55-1.29.36-.55.54-1.14.54-1.77s-.16-1.19-.49-1.67-.83-.88-1.52-1.2c-.47-.21-1.34-.46-2.6-.75-1.27-.29-2.05-.57-2.35-.84-.3-.27-.46-.62-.46-1.04,0-.49.21-.9.65-1.25.43-.35,1.12-.52,2.06-.52s1.59.19,2.05.57c.46.38.74.94.82,1.69l1.49-.11c-.03-.69-.22-1.31-.58-1.85s-.87-.96-1.54-1.24c-.67-.28-1.44-.42-2.31-.42-.79,0-1.51.13-2.16.4s-1.14.66-1.48,1.18c-.34.52-.51,1.07-.51,1.67,0,.54.14,1.03.41,1.46.28.44.69.8,1.26,1.1.43.23,1.19.48,2.27.73,1.08.26,1.78.45,2.09.57.49.19.85.42,1.06.69.21.28.32.6.32.97s-.11.7-.33,1.01c-.22.31-.56.55-1.02.73-.46.18-.98.26-1.57.26-.67,0-1.27-.12-1.81-.35s-.93-.54-1.18-.92-.42-.86-.49-1.45l-1.47.13c.02.79.24,1.49.65,2.12s.97,1.09,1.69,1.4c.72.31,1.61.47,2.68.47Z"/>
  <path class="cls-9" d="M334.43,21.37c-.33-.48-.83-.88-1.52-1.2-.47-.21-1.34-.46-2.6-.75-1.27-.29-2.05-.57-2.35-.84-.3-.27-.46-.62-.46-1.04,0-.49.21-.9.65-1.25.43-.35,1.12-.52,2.06-.52s1.59.19,2.05.57c.46.38.74.94.82,1.69l1.49-.11c-.03-.69-.22-1.31-.58-1.85s-.87-.96-1.54-1.24c-.67-.28-1.44-.42-2.31-.42-.79,0-1.51.13-2.16.4s-1.14.66-1.48,1.18c-.34.52-.51,1.07-.51,1.67,0,.54.14,1.03.41,1.46.28.44.69.8,1.26,1.1.43.23,1.19.48,2.27.73,1.08.26,1.78.45,2.09.57.49.19.85.42,1.06.69.21.28.32.6.32.97s-.11.7-.33,1.01c-.22.31-.56.55-1.02.73-.46.18-.98.26-1.57.26-.67,0-1.27-.12-1.81-.35s-.93-.54-1.18-.92-.42-.86-.49-1.45l-1.47.13c.02.79.24,1.49.65,2.12s.97,1.09,1.69,1.4c.72.31,1.61.47,2.68.47.84,0,1.6-.15,2.27-.46.67-.31,1.19-.74,1.55-1.29.36-.55.54-1.14.54-1.77s-.16-1.19-.49-1.67Z"/>
  <path class="cls-9" d="M351.33,26.17c.52-.13.95-.33,1.29-.58.34-.26.63-.62.86-1.1.23-.47.35-.99.35-1.54,0-.69-.19-1.28-.57-1.78s-.93-.86-1.64-1.07c.55-.27.96-.63,1.24-1.08.27-.44.41-.92.41-1.42,0-.54-.15-1.06-.46-1.55s-.73-.86-1.28-1.1c-.54-.24-1.26-.36-2.16-.36h-4.42v11.77h4.49c.75,0,1.38-.07,1.9-.2ZM346.5,15.98h2.35c.85,0,1.44.05,1.79.16.35.11.62.31.8.61.19.3.28.64.28,1.03,0,.41-.1.75-.3,1.03-.2.27-.5.47-.89.59-.3.09-.79.14-1.49.14h-2.54v-3.56ZM346.5,20.93h2.72c.75,0,1.32.07,1.72.2.4.13.71.36.94.68.22.32.34.71.34,1.14,0,.37-.08.71-.23.99-.16.29-.35.5-.59.65s-.54.26-.9.32c-.2.04-.56.06-1.06.06h-2.93v-4.05Z"/>
  <path class="cls-9" d="M359.25,21.14h1.81c.4,0,.69.02.87.06.24.06.48.16.71.31.23.15.5.41.79.79.29.38.67.92,1.12,1.62l1.56,2.45h1.96l-2.05-3.2c-.41-.63-.84-1.15-1.29-1.57-.21-.19-.53-.39-.94-.59,1.13-.16,1.96-.52,2.5-1.09.54-.57.81-1.28.81-2.11,0-.65-.16-1.24-.49-1.77-.33-.54-.76-.91-1.31-1.12-.55-.21-1.34-.32-2.39-.32h-5.22v11.77h1.56v-5.23ZM359.25,15.89h3.73c.87,0,1.51.18,1.91.54.4.36.61.82.61,1.37,0,.38-.1.73-.31,1.06s-.51.56-.92.71c-.4.15-.96.22-1.67.22h-3.35v-3.89Z"/>
  <rect class="cls-9" x="371.5" y="14.59" width="1.56" height="11.77"/>
  <path class="cls-9" d="M383.63,26.16c.55-.13,1.02-.33,1.41-.59.39-.26.75-.62,1.07-1.07.33-.45.59-1.02.8-1.71.21-.69.31-1.48.31-2.38,0-1.05-.15-1.98-.46-2.8-.31-.82-.77-1.49-1.39-2.01-.48-.41-1.05-.69-1.73-.84-.48-.11-1.18-.17-2.1-.17h-4.05v11.77h4.25c.71,0,1.34-.07,1.89-.2ZM379.05,24.97v-8.99h2.47c.93,0,1.6.08,2.01.24.58.22,1.07.67,1.47,1.33.4.66.61,1.61.61,2.84,0,.89-.1,1.64-.31,2.27s-.49,1.12-.86,1.49c-.26.26-.61.47-1.06.61s-1.05.22-1.83.22h-2.51Z"/>
  <path class="cls-9" d="M396.57,21.75h3.46v2.19c-.33.29-.82.57-1.46.83-.64.26-1.3.39-1.97.39-.78,0-1.51-.17-2.2-.51-.69-.34-1.22-.87-1.58-1.57s-.54-1.58-.54-2.63c0-.85.15-1.64.45-2.37.18-.42.42-.81.74-1.16.32-.35.74-.64,1.26-.85.52-.22,1.13-.33,1.85-.33.59,0,1.13.1,1.62.31.49.21.86.48,1.12.82.26.34.48.81.66,1.41l1.4-.39c-.2-.79-.5-1.43-.89-1.93-.39-.49-.93-.88-1.62-1.15-.69-.28-1.46-.41-2.31-.41-1.17,0-2.21.24-3.11.72-.9.48-1.59,1.22-2.07,2.21-.48.99-.72,2.06-.72,3.21s.24,2.2.72,3.14,1.19,1.65,2.14,2.15c.94.5,1.99.74,3.15.74.86,0,1.69-.15,2.5-.46s1.6-.77,2.37-1.38v-4.37h-4.99v1.39Z"/>
  <polygon class="cls-9" points="407.13 20.97 413.64 20.97 413.64 19.59 407.13 19.59 407.13 15.98 414.08 15.98 414.08 14.59 405.57 14.59 405.57 26.36 414.36 26.36 414.36 24.97 407.13 24.97 407.13 20.97"/>
  <path class="cls-9" d="M298.8,273.55c-.27.23-.6.34-.99.34-.32,0-.62-.08-.9-.25-.28-.17-.48-.42-.61-.75s-.2-.73-.2-1.17c0-.35.05-.69.17-1.01.11-.33.3-.59.57-.78s.61-.29,1.02-.29c.35,0,.65.09.88.26.23.18.41.46.53.84l.69-.16c-.14-.49-.39-.86-.75-1.13-.36-.27-.8-.4-1.33-.4-.47,0-.89.11-1.28.32-.39.21-.69.52-.9.93s-.31.89-.31,1.44c0,.5.09.98.28,1.42.19.44.46.77.81,1.01.36.23.82.35,1.39.35s1.01-.15,1.39-.45c.38-.3.64-.74.79-1.31l-.7-.18c-.1.44-.28.78-.55,1Z"/>
  <path class="cls-9" d="M303.06,272.95c-.11.29-.2.58-.28.86-.07-.27-.17-.56-.28-.86l-1.37-3.83h-.76l2.04,5.28h.72l2.07-5.28h-.71l-1.42,3.83Z"/>
  <path class="cls-9" d="M310.1,274.39l2.07-5.28h-.71l-1.42,3.83c-.11.29-.2.58-.28.86-.07-.27-.17-.56-.28-.86l-1.37-3.83h-.76l2.04,5.28h.72Z"/>
  <rect class="cls-9" x="312.91" y="269.12" width=".7" height="5.28"/>
  <path class="cls-9" d="M317.52,273.74c-.2.08-.44.12-.71.12-.3,0-.57-.05-.81-.16-.24-.1-.42-.24-.53-.41-.11-.17-.19-.39-.22-.65l-.66.06c0,.35.11.67.29.95.18.28.44.49.76.63.32.14.72.21,1.2.21.38,0,.72-.07,1.02-.21s.53-.33.69-.58c.16-.25.24-.51.24-.79s-.07-.53-.22-.75c-.15-.22-.37-.4-.68-.54-.21-.1-.6-.21-1.17-.34-.57-.13-.92-.25-1.05-.38-.14-.12-.21-.28-.21-.47,0-.22.1-.4.29-.56.19-.15.5-.23.92-.23s.71.08.92.25c.21.17.33.42.37.76l.67-.05c-.01-.31-.1-.59-.26-.83-.16-.24-.39-.43-.69-.56s-.64-.19-1.03-.19c-.36,0-.68.06-.97.18-.29.12-.51.3-.66.53-.15.23-.23.48-.23.75,0,.24.06.46.19.66.12.2.31.36.56.49.19.1.53.21,1.02.33.48.12.8.2.94.26.22.08.38.19.47.31.1.12.14.27.14.43s-.05.31-.15.45-.25.25-.46.33Z"/>
  <path class="cls-9" d="M323.73,273.43c.12-.31.18-.73.18-1.26v-3.05h-.7v3.04c0,.66-.11,1.11-.33,1.34-.22.23-.58.35-1.1.35-.3,0-.55-.06-.76-.18-.21-.12-.35-.29-.44-.5-.08-.22-.13-.55-.13-1.01v-3.04h-.7v3.05c0,.56.07,1,.2,1.32.13.32.36.57.67.74.31.17.72.26,1.21.26s.92-.1,1.23-.29c.31-.2.53-.45.65-.76Z"/>
  <path class="cls-9" d="M326.52,269.12l-2.03,5.28h.74l.58-1.6h2.21l.62,1.6h.8l-2.16-5.28h-.75ZM326.02,272.23l.58-1.55c.12-.33.22-.67.28-1.01.08.29.21.65.37,1.09l.55,1.46h-1.79Z"/>
  <polygon class="cls-9" points="329.96 269.12 329.96 274.39 333.26 274.39 333.26 273.77 330.66 273.77 330.66 269.12 329.96 269.12"/>
  <path class="cls-9" d="M339.66,273.55c.1-.21.16-.44.16-.69,0-.31-.09-.57-.26-.8-.17-.23-.42-.39-.74-.48.25-.12.43-.28.55-.48.12-.2.18-.41.18-.64,0-.24-.07-.47-.21-.7-.14-.22-.33-.39-.57-.49-.24-.11-.57-.16-.97-.16h-1.98v5.28h2.01c.34,0,.62-.03.85-.09s.42-.15.58-.26c.15-.12.28-.28.39-.49ZM336.53,269.74h1.05c.38,0,.65.02.8.07.16.05.28.14.36.27s.13.29.13.46c0,.19-.04.34-.14.46-.09.12-.22.21-.4.26-.13.04-.36.06-.67.06h-1.14v-1.59ZM338.99,273.31c-.07.13-.16.23-.27.29-.11.07-.24.12-.4.14-.09.02-.25.02-.47.02h-1.31v-1.81h1.22c.34,0,.59.03.77.09.18.06.32.16.42.31.1.14.15.32.15.51,0,.17-.03.32-.1.44Z"/>
  <path class="cls-9" d="M343.94,272.26c-.1-.09-.24-.17-.42-.26.51-.07.88-.23,1.12-.49s.36-.57.36-.95c0-.29-.07-.56-.22-.8-.15-.24-.34-.41-.59-.5-.25-.09-.6-.14-1.07-.14h-2.34v5.28h.7v-2.34h.81c.18,0,.31,0,.39.03.11.03.21.07.32.14.1.07.22.18.35.35s.3.41.5.73l.7,1.1h.88l-.92-1.44c-.18-.28-.38-.51-.58-.7ZM342.99,271.45h-1.5v-1.75h1.67c.39,0,.68.08.86.24.18.16.27.37.27.62,0,.17-.05.33-.14.47-.09.15-.23.25-.41.32-.18.07-.43.1-.75.1Z"/>
  <rect class="cls-9" x="346.22" y="269.12" width=".7" height="5.28"/>
  <path class="cls-9" d="M352.37,272.79c.09-.31.14-.66.14-1.07,0-.47-.07-.89-.21-1.25-.14-.37-.35-.67-.62-.9-.21-.18-.47-.31-.77-.38-.22-.05-.53-.08-.94-.08h-1.82v5.28h1.9c.32,0,.6-.03.85-.09.25-.06.46-.15.63-.26s.33-.28.48-.48.27-.46.36-.77ZM351.65,272.73c-.09.28-.22.5-.39.67-.12.12-.27.21-.47.27s-.47.1-.82.1h-1.13v-4.03h1.11c.42,0,.72.04.9.11.26.1.48.3.66.6.18.3.27.72.27,1.27,0,.4-.05.74-.14,1.02Z"/>
  <path class="cls-9" d="M357.11,274.28c.37-.14.72-.34,1.06-.62v-1.96h-2.24v.62h1.55v.98c-.15.13-.37.26-.65.37-.29.12-.58.17-.89.17-.35,0-.68-.08-.99-.23-.31-.15-.55-.39-.71-.71-.16-.32-.24-.71-.24-1.18,0-.38.07-.74.2-1.06.08-.19.19-.36.33-.52s.33-.29.56-.38c.23-.1.51-.15.83-.15.27,0,.51.05.73.14.22.09.39.22.5.37.12.15.22.36.3.63l.63-.17c-.09-.36-.22-.64-.4-.86-.17-.22-.42-.39-.72-.52-.31-.12-.65-.18-1.04-.18-.53,0-.99.11-1.39.32-.4.22-.71.55-.93.99-.21.45-.32.92-.32,1.44s.11.99.32,1.41c.22.42.54.74.96.96.42.22.89.33,1.41.33.38,0,.76-.07,1.12-.21Z"/>
  <polygon class="cls-9" points="363.15 273.77 359.92 273.77 359.92 271.98 362.83 271.98 362.83 271.36 359.92 271.36 359.92 269.74 363.03 269.74 363.03 269.12 359.22 269.12 359.22 274.39 363.15 274.39 363.15 273.77"/>
  <path class="cls-9" d="M366.17,269.12v5.28h1.9c.32,0,.6-.03.85-.09.25-.06.46-.15.63-.26s.33-.28.48-.48.27-.46.36-.77.14-.66.14-1.07c0-.47-.07-.89-.21-1.25-.14-.37-.35-.67-.62-.9-.21-.18-.47-.31-.77-.38-.22-.05-.53-.08-.94-.08h-1.82ZM369.54,270.45c.18.3.27.72.27,1.27,0,.4-.05.74-.14,1.02-.09.28-.22.5-.39.67-.12.12-.27.21-.47.27s-.47.1-.82.1h-1.13v-4.03h1.11c.42,0,.72.04.9.11.26.1.48.3.66.6Z"/>
  <rect class="cls-9" x="371.61" y="269.12" width=".7" height="5.28"/>
  <path class="cls-9" d="M376.22,273.74c-.2.08-.44.12-.71.12-.3,0-.57-.05-.81-.16-.24-.1-.42-.24-.53-.41-.11-.17-.19-.39-.22-.65l-.66.06c0,.35.11.67.29.95.18.28.44.49.76.63.32.14.72.21,1.2.21.38,0,.72-.07,1.02-.21s.53-.33.69-.58c.16-.25.24-.51.24-.79s-.07-.53-.22-.75c-.15-.22-.37-.4-.68-.54-.21-.1-.6-.21-1.17-.34-.57-.13-.92-.25-1.05-.38-.14-.12-.21-.28-.21-.47,0-.22.1-.4.29-.56.19-.15.5-.23.92-.23s.71.08.92.25c.21.17.33.42.37.76l.67-.05c-.01-.31-.1-.59-.26-.83-.16-.24-.39-.43-.69-.56s-.64-.19-1.03-.19c-.36,0-.68.06-.97.18-.29.12-.51.3-.66.53-.15.23-.23.48-.23.75,0,.24.06.46.19.66.12.2.31.36.56.49.19.1.53.21,1.02.33.48.12.8.2.94.26.22.08.38.19.47.31.1.12.14.27.14.43s-.05.31-.15.45-.25.25-.46.33Z"/>
  <path class="cls-9" d="M381.9,269.42c-.18-.12-.39-.2-.65-.25-.18-.03-.45-.05-.8-.05h-1.99v5.28h.7v-2.14h1.35c.75,0,1.26-.16,1.55-.47.29-.31.43-.69.43-1.14,0-.26-.05-.5-.16-.72-.11-.22-.25-.39-.42-.51ZM381.48,271.38c-.19.17-.51.25-.96.25h-1.36v-1.89h1.35c.32,0,.53.02.65.05.18.05.33.15.44.31.11.16.17.35.17.57,0,.3-.09.54-.28.71Z"/>
  <polygon class="cls-9" points="384.04 269.12 383.34 269.12 383.34 274.39 386.64 274.39 386.64 273.77 384.04 273.77 384.04 269.12"/>
  <path class="cls-9" d="M388.91,269.12l-2.03,5.28h.74l.58-1.6h2.21l.62,1.6h.8l-2.16-5.28h-.75ZM388.41,272.23l.58-1.55c.12-.33.22-.67.28-1.01.08.29.21.65.37,1.09l.55,1.46h-1.79Z"/>
  <path class="cls-9" d="M394.29,270.67c-.23.35-.42.66-.58.93-.17-.3-.34-.59-.54-.89l-1.04-1.59h-.85l2.03,3.04v2.23h.7v-2.23l2.11-3.04h-.81l-1.02,1.55Z"/>
  <path class="cls-9" d="M312.69,285.15c-.08.22-.14.4-.19.56-.06-.21-.12-.4-.19-.59l-.63-1.76h-.53l1.12,2.94h.46l1.11-2.94h-.51l-.65,1.79Z"/>
  <path class="cls-9" d="M315.54,286.37c.34,0,.62-.08.84-.25s.37-.4.45-.7l-.52-.06c-.08.21-.18.36-.31.46s-.29.14-.47.14c-.25,0-.45-.09-.62-.26-.16-.17-.25-.42-.27-.74h2.19c0-.06,0-.1,0-.13,0-.49-.12-.86-.37-1.13s-.57-.4-.96-.4-.74.14-.99.41-.38.66-.38,1.15.13.85.38,1.11c.25.26.59.4,1.02.4ZM314.94,283.93c.16-.15.35-.23.58-.23.25,0,.46.1.62.29.1.12.17.31.19.56h-1.64c.02-.26.1-.46.26-.62Z"/>
  <path class="cls-9" d="M317.95,284.76c0-.21.03-.4.08-.58.04-.12.1-.21.19-.27.09-.07.18-.1.29-.1.12,0,.24.04.37.11l.17-.46c-.17-.11-.34-.16-.51-.16-.12,0-.22.03-.32.1s-.2.2-.32.41v-.45h-.45v2.94h.5v-1.54Z"/>
  <path class="cls-9" d="M321.14,284.75c-.14-.06-.39-.14-.74-.23-.24-.07-.39-.11-.44-.13-.09-.04-.15-.08-.19-.13-.04-.05-.06-.11-.06-.17,0-.1.05-.19.15-.27.1-.08.26-.11.49-.11.19,0,.34.04.45.13.11.08.17.2.19.35l.49-.07c-.03-.19-.09-.34-.17-.46s-.21-.2-.39-.27c-.17-.07-.38-.1-.61-.1-.15,0-.3.02-.43.06-.13.04-.24.09-.32.14-.1.07-.19.17-.25.28-.06.11-.09.23-.09.36,0,.14.04.28.11.39.07.12.18.21.32.28.14.07.39.15.76.24.27.07.44.12.51.17.1.06.15.15.15.27,0,.13-.05.24-.17.33-.11.09-.28.14-.51.14s-.4-.05-.53-.16c-.13-.11-.2-.26-.23-.45l-.49.08c.05.31.18.55.38.71.2.16.49.24.87.24.23,0,.44-.04.62-.12.18-.08.32-.19.42-.34s.15-.3.15-.47-.04-.31-.12-.43-.19-.2-.33-.26Z"/>
  <rect class="cls-9" x="322.18" y="282.24" width=".5" height=".57"/>
  <rect class="cls-9" x="322.18" y="283.36" width=".5" height="2.94"/>
  <path class="cls-9" d="M324.63,283.29c-.36,0-.67.11-.92.33-.3.26-.45.67-.45,1.21,0,.5.13.88.38,1.14.25.26.59.4,1,.4.26,0,.49-.06.71-.18.22-.12.38-.29.5-.51.11-.22.17-.51.17-.89,0-.47-.13-.83-.38-1.1-.26-.26-.59-.4-.99-.4ZM325.25,285.67c-.17.19-.37.28-.62.28s-.46-.09-.62-.28c-.16-.19-.25-.47-.25-.85s.08-.66.25-.84c.17-.19.37-.28.62-.28s.45.09.62.28c.17.19.25.46.25.83,0,.39-.08.67-.25.86Z"/>
  <path class="cls-9" d="M328.79,283.64c-.07-.1-.19-.19-.33-.25-.15-.06-.31-.09-.49-.09-.41,0-.72.16-.94.48v-.42h-.45v2.94h.5v-1.61c0-.38.08-.63.23-.77.15-.13.34-.2.55-.2.13,0,.25.03.35.09s.17.14.21.24c.04.1.06.25.06.46v1.79h.5v-1.81c0-.23,0-.39-.03-.48-.03-.14-.08-.26-.16-.37Z"/>
  <path class="cls-9" d="M332.02,285.55c.08-.09.28-.26.58-.51.36-.3.61-.54.77-.71s.26-.34.33-.5c.07-.16.1-.32.1-.48,0-.32-.11-.59-.34-.8-.23-.22-.54-.32-.92-.32s-.69.1-.92.3c-.23.2-.36.49-.4.87l.51.05c0-.25.07-.45.22-.6s.34-.22.58-.22c.23,0,.41.07.55.2.14.14.21.3.21.5s-.08.39-.23.6c-.15.21-.45.5-.89.86-.28.23-.5.44-.65.61-.15.18-.26.36-.33.54-.04.11-.06.23-.06.35h2.68v-.48h-1.99c.06-.09.13-.18.21-.27Z"/>
  <rect class="cls-9" x="334.61" y="285.73" width=".57" height=".57"/>
  <path class="cls-9" d="M336.75,285.55c.08-.09.28-.26.58-.51.36-.3.61-.54.77-.71s.26-.34.33-.5c.07-.16.1-.32.1-.48,0-.32-.11-.59-.34-.8-.23-.22-.54-.32-.92-.32s-.69.1-.92.3c-.23.2-.36.49-.4.87l.51.05c0-.25.07-.45.22-.6s.34-.22.58-.22c.23,0,.41.07.55.2.14.14.21.3.21.5s-.08.39-.23.6c-.15.21-.45.5-.89.86-.28.23-.5.44-.65.61-.15.18-.26.36-.33.54-.04.11-.06.23-.06.35h2.68v-.48h-1.99c.06-.09.13-.18.21-.27Z"/>
  <rect class="cls-9" x="339.34" y="285.73" width=".57" height=".57"/>
  <path class="cls-9" d="M342.94,282.74c-.11-.17-.24-.29-.41-.38-.17-.09-.36-.13-.57-.13-.29,0-.54.08-.74.24-.19.16-.34.38-.44.68-.1.29-.15.68-.15,1.16,0,.76.13,1.31.4,1.65.22.28.53.42.92.42.3,0,.54-.08.74-.24.2-.16.34-.39.44-.68.1-.29.15-.68.15-1.15,0-.4-.03-.72-.09-.96-.06-.24-.14-.44-.25-.6ZM342.53,285.63c-.16.22-.35.33-.58.33s-.42-.11-.58-.33c-.16-.22-.23-.66-.23-1.33s.09-1.12.26-1.37c.14-.19.32-.29.55-.29s.43.11.58.33.23.66.23,1.33-.08,1.11-.23,1.33Z"/>
  <path class="cls-9" d="M347.47,283.49c-.19-.13-.41-.19-.66-.19-.19,0-.36.04-.49.11-.13.08-.26.19-.36.34v-.38h-.45v4.07h.5v-1.43c.08.11.19.2.33.27.13.07.28.11.45.11.23,0,.44-.06.65-.19.21-.13.36-.31.47-.55.11-.24.16-.51.16-.81,0-.28-.05-.54-.15-.77s-.24-.42-.43-.55ZM347.31,285.68c-.16.19-.35.28-.57.28s-.4-.09-.56-.27-.23-.46-.23-.84.08-.67.25-.87c.16-.2.35-.3.56-.3s.4.09.55.28c.15.19.23.47.23.84,0,.39-.08.68-.24.87Z"/>
  <path class="cls-9" d="M351.03,285.07v-.67c0-.22,0-.37-.02-.46-.03-.14-.08-.25-.16-.34-.07-.09-.19-.16-.35-.22-.16-.06-.36-.09-.61-.09s-.47.03-.67.1c-.19.07-.34.17-.44.3-.1.13-.17.3-.22.51l.49.07c.05-.21.14-.35.25-.44.11-.08.29-.12.52-.12.25,0,.44.06.57.17.09.08.14.23.14.43,0,.02,0,.06,0,.13-.19.07-.49.12-.89.17-.2.02-.35.05-.44.08-.13.04-.25.09-.36.16s-.19.17-.26.29-.1.25-.1.39c0,.25.09.45.26.61.17.16.42.24.75.24.2,0,.38-.03.55-.1.17-.06.35-.18.53-.33.01.14.05.26.1.36h.52c-.06-.11-.1-.23-.13-.35-.02-.12-.03-.42-.03-.88ZM350.53,285.01c0,.22-.03.39-.08.5-.07.15-.18.26-.33.34s-.32.13-.51.13-.34-.04-.44-.13c-.1-.09-.15-.2-.15-.33,0-.09.02-.17.07-.24s.11-.12.2-.16.23-.07.43-.1c.36-.05.63-.11.81-.19v.18Z"/>
  <path class="cls-9" d="M354.01,283.64c-.07-.1-.19-.19-.33-.25-.15-.06-.31-.09-.49-.09-.41,0-.72.16-.94.48v-.42h-.45v2.94h.5v-1.61c0-.38.08-.63.23-.77.15-.13.34-.2.55-.2.13,0,.25.03.35.09s.17.14.21.24c.04.1.06.25.06.46v1.79h.5v-1.81c0-.23,0-.39-.03-.48-.03-.14-.08-.26-.16-.37Z"/>
  <path class="cls-9" d="M356.17,283.29c-.41,0-.74.14-.99.41s-.38.66-.38,1.15.13.85.38,1.11c.25.26.59.4,1.02.4.34,0,.62-.08.84-.25s.37-.4.45-.7l-.52-.06c-.08.21-.18.36-.31.46s-.29.14-.47.14c-.25,0-.45-.09-.62-.26-.16-.17-.25-.42-.27-.74h2.19c0-.06,0-.1,0-.13,0-.49-.12-.86-.37-1.13s-.57-.4-.96-.4ZM355.34,284.55c.02-.26.1-.46.26-.62.16-.15.35-.23.58-.23.25,0,.46.1.62.29.1.12.17.31.19.56h-1.64Z"/>
  <rect class="cls-9" x="358.1" y="282.24" width=".5" height="4.06"/>
  <path class="cls-9" d="M361.71,283.39c-.1.07-.2.2-.32.41v-.45h-.45v2.94h.5v-1.54c0-.21.03-.4.08-.58.04-.12.1-.21.19-.27.09-.07.18-.1.29-.1.12,0,.24.04.37.11l.17-.46c-.17-.11-.34-.16-.51-.16-.12,0-.22.03-.32.1Z"/>
  <path class="cls-9" d="M365.36,285.42l-.52-.06c-.08.21-.18.36-.31.46s-.29.14-.47.14c-.25,0-.45-.09-.62-.26-.16-.17-.25-.42-.27-.74h2.19c0-.06,0-.1,0-.13,0-.49-.12-.86-.37-1.13s-.57-.4-.96-.4-.74.14-.99.41-.38.66-.38,1.15.13.85.38,1.11c.25.26.59.4,1.02.4.34,0,.62-.08.84-.25s.37-.4.45-.7ZM363.47,283.93c.16-.15.35-.23.58-.23.25,0,.46.1.62.29.1.12.17.31.19.56h-1.64c.02-.26.1-.46.26-.62Z"/>
  <path class="cls-9" d="M367.22,285.15c-.08.22-.14.4-.19.56-.06-.21-.12-.4-.19-.59l-.63-1.76h-.53l1.12,2.94h.46l1.11-2.94h-.51l-.65,1.79Z"/>
  <rect class="cls-9" x="368.83" y="283.36" width=".5" height="2.94"/>
  <rect class="cls-9" x="368.83" y="282.24" width=".5" height=".57"/>
  <path class="cls-9" d="M371.88,284.75c-.14-.06-.39-.14-.74-.23-.24-.07-.39-.11-.44-.13-.09-.04-.15-.08-.19-.13-.04-.05-.06-.11-.06-.17,0-.1.05-.19.15-.27.1-.08.26-.11.49-.11.19,0,.34.04.45.13.11.08.17.2.19.35l.49-.07c-.03-.19-.09-.34-.17-.46s-.21-.2-.39-.27c-.17-.07-.38-.1-.61-.1-.15,0-.3.02-.43.06-.13.04-.24.09-.32.14-.1.07-.19.17-.25.28-.06.11-.09.23-.09.36,0,.14.04.28.11.39.07.12.18.21.32.28.14.07.39.15.76.24.27.07.44.12.51.17.1.06.15.15.15.27,0,.13-.05.24-.17.33-.11.09-.28.14-.51.14s-.4-.05-.53-.16c-.13-.11-.2-.26-.23-.45l-.49.08c.05.31.18.55.38.71.2.16.49.24.87.24.23,0,.44-.04.62-.12.18-.08.32-.19.42-.34s.15-.3.15-.47-.04-.31-.12-.43-.19-.2-.33-.26Z"/>
  <rect class="cls-9" x="372.92" y="283.36" width=".5" height="2.94"/>
  <rect class="cls-9" x="372.92" y="282.24" width=".5" height=".57"/>
  <path class="cls-9" d="M375.37,283.29c-.36,0-.67.11-.92.33-.3.26-.45.67-.45,1.21,0,.5.13.88.38,1.14.25.26.59.4,1,.4.26,0,.49-.06.71-.18.22-.12.38-.29.5-.51.11-.22.17-.51.17-.89,0-.47-.13-.83-.38-1.1-.26-.26-.59-.4-.99-.4ZM375.99,285.67c-.17.19-.37.28-.62.28s-.46-.09-.62-.28c-.16-.19-.25-.47-.25-.85s.08-.66.25-.84c.17-.19.37-.28.62-.28s.45.09.62.28c.17.19.25.46.25.83,0,.39-.08.67-.25.86Z"/>
  <path class="cls-9" d="M379.72,286.3v-1.81c0-.23,0-.39-.03-.48-.03-.14-.08-.26-.16-.37-.07-.1-.19-.19-.33-.25-.15-.06-.31-.09-.49-.09-.41,0-.72.16-.94.48v-.42h-.45v2.94h.5v-1.61c0-.38.08-.63.23-.77.15-.13.34-.2.55-.2.13,0,.25.03.35.09s.17.14.21.24c.04.1.06.25.06.46v1.79h.5Z"/>
  <path class="cls-9" d="M640.79,34.42c-.23.09-.49.13-.79.13-.33,0-.64-.06-.9-.17-.27-.12-.46-.27-.59-.46-.13-.19-.21-.43-.24-.72l-.73.06c.01.39.12.75.32,1.06.21.31.49.55.85.7.36.15.81.23,1.34.23.42,0,.8-.08,1.13-.23s.59-.37.77-.65c.18-.28.27-.57.27-.88s-.08-.59-.25-.84-.42-.44-.76-.6c-.24-.11-.67-.23-1.3-.38s-1.02-.28-1.17-.42c-.15-.14-.23-.31-.23-.52,0-.24.11-.45.32-.62.21-.17.56-.26,1.03-.26s.79.1,1.03.29.37.47.41.84l.75-.06c-.01-.35-.11-.65-.29-.93s-.44-.48-.77-.62-.72-.21-1.15-.21c-.4,0-.76.07-1.08.2-.32.13-.57.33-.74.59-.17.26-.25.54-.25.83,0,.27.07.51.21.73.14.22.35.4.63.55.22.11.6.24,1.14.37.54.13.89.23,1.05.29.25.09.42.21.53.35.11.14.16.3.16.48s-.06.35-.17.5c-.11.15-.28.27-.51.36Z"/>
  <rect class="cls-9" x="643.41" y="29.27" width=".78" height="5.88"/>
  <path class="cls-9" d="M649.75,34.46h-3.76l.36-.41,3.3-4.08v-.69h-4.21v.69h3.28c-.19.2-.4.43-.61.7l-3.01,3.77v.72h4.65v-.69Z"/>
  <polygon class="cls-9" points="654.99 34.46 651.38 34.46 651.38 32.45 654.64 32.45 654.64 31.76 651.38 31.76 651.38 29.96 654.86 29.96 654.86 29.27 650.6 29.27 650.6 35.15 654.99 35.15 654.99 34.46"/>
  <path class="cls-9" d="M630.13,83.78h1.51c.83,0,1.41-.17,1.73-.52s.48-.77.48-1.27c0-.29-.06-.56-.18-.8-.12-.24-.28-.43-.47-.57s-.44-.23-.73-.27c-.21-.04-.5-.06-.9-.06h-2.22v5.88h.78v-2.39ZM630.13,80.98h1.5c.35,0,.6.02.73.05.2.06.37.17.49.35.12.18.19.39.19.63,0,.34-.11.6-.32.79s-.57.28-1.07.28h-1.52v-2.1Z"/>
  <polygon class="cls-9" points="639.24 85.48 635.62 85.48 635.62 83.48 638.88 83.48 638.88 82.79 635.62 82.79 635.62 80.98 639.1 80.98 639.1 80.29 634.85 80.29 634.85 86.17 639.24 86.17 639.24 85.48"/>
  <path class="cls-9" d="M640.33,86.17h.78v-2.61h.9c.2,0,.34,0,.43.03.12.03.24.08.36.16.12.07.25.21.39.39.15.19.33.46.56.81l.78,1.22h.98l-1.02-1.6c-.2-.31-.42-.57-.65-.78-.11-.1-.26-.19-.47-.29.57-.08.98-.26,1.25-.55s.41-.64.41-1.06c0-.32-.08-.62-.25-.89s-.38-.45-.65-.56c-.27-.11-.67-.16-1.2-.16h-2.61v5.88ZM641.1,80.94h1.86c.44,0,.76.09.96.27.2.18.3.41.3.69,0,.19-.05.37-.16.53-.1.16-.26.28-.46.35-.2.07-.48.11-.83.11h-1.67v-1.95Z"/>
  <path class="cls-9" d="M648.28,80.19c-.4,0-.76.07-1.08.2-.32.13-.57.33-.74.59-.17.26-.25.54-.25.83,0,.27.07.51.21.73.14.22.35.4.63.55.22.11.6.24,1.14.37.54.13.89.23,1.05.29.25.09.42.21.53.35.11.14.16.3.16.48s-.06.35-.17.5c-.11.15-.28.27-.51.36s-.49.13-.79.13c-.33,0-.64-.06-.9-.17-.27-.12-.46-.27-.59-.46-.13-.19-.21-.43-.24-.72l-.73.06c.01.39.12.75.32,1.06.21.31.49.55.85.7.36.15.81.23,1.34.23.42,0,.8-.08,1.13-.23s.59-.37.77-.65c.18-.28.27-.57.27-.88s-.08-.59-.25-.84-.42-.44-.76-.6c-.24-.11-.67-.23-1.3-.38s-1.02-.28-1.17-.42c-.15-.14-.23-.31-.23-.52,0-.24.11-.45.32-.62.21-.17.56-.26,1.03-.26s.79.1,1.03.29.37.47.41.84l.75-.06c-.01-.35-.11-.65-.29-.93s-.44-.48-.77-.62-.72-.21-1.15-.21Z"/>
  <rect class="cls-9" x="651.87" y="80.29" width=".78" height="5.88"/>
  <path class="cls-9" d="M654.23,80.98c-.17.26-.25.54-.25.83,0,.27.07.51.21.73.14.22.35.4.63.55.22.11.6.24,1.14.37.54.13.89.23,1.05.29.25.09.42.21.53.35.11.14.16.3.16.48s-.06.35-.17.5c-.11.15-.28.27-.51.36s-.49.13-.79.13c-.33,0-.64-.06-.9-.17-.27-.12-.46-.27-.59-.46-.13-.19-.21-.43-.24-.72l-.73.06c.01.39.12.75.32,1.06.21.31.49.55.85.7.36.15.81.23,1.34.23.42,0,.8-.08,1.13-.23s.59-.37.77-.65c.18-.28.27-.57.27-.88s-.08-.59-.25-.84-.42-.44-.76-.6c-.24-.11-.67-.23-1.3-.38s-1.02-.28-1.17-.42c-.15-.14-.23-.31-.23-.52,0-.24.11-.45.32-.62.21-.17.56-.26,1.03-.26s.79.1,1.03.29.37.47.41.84l.75-.06c-.01-.35-.11-.65-.29-.93s-.44-.48-.77-.62-.72-.21-1.15-.21c-.4,0-.76.07-1.08.2-.32.13-.57.33-.74.59Z"/>
  <polygon class="cls-9" points="659.06 80.29 659.06 80.98 661 80.98 661 86.17 661.78 86.17 661.78 80.98 663.72 80.98 663.72 80.29 659.06 80.29"/>
  <path class="cls-9" d="M633.22,131.42c-.33-.14-.72-.21-1.15-.21-.4,0-.76.07-1.08.2-.32.13-.57.33-.74.59-.17.26-.25.54-.25.83,0,.27.07.51.21.73.14.22.35.4.63.55.22.11.6.24,1.14.37.54.13.89.23,1.05.29.25.09.42.21.53.35.11.14.16.3.16.48s-.06.35-.17.5c-.11.15-.28.27-.51.36s-.49.13-.79.13c-.33,0-.64-.06-.9-.17-.27-.12-.46-.27-.59-.46-.13-.19-.21-.43-.24-.72l-.73.06c.01.39.12.75.32,1.06.21.31.49.55.85.7.36.15.81.23,1.34.23.42,0,.8-.08,1.13-.23s.59-.37.77-.65c.18-.28.27-.57.27-.88s-.08-.59-.25-.84-.42-.44-.76-.6c-.24-.11-.67-.23-1.3-.38s-1.02-.28-1.17-.42c-.15-.14-.23-.31-.23-.52,0-.24.11-.45.32-.62.21-.17.56-.26,1.03-.26s.79.1,1.03.29.37.47.41.84l.75-.06c-.01-.35-.11-.65-.29-.93s-.44-.48-.77-.62Z"/>
  <path class="cls-9" d="M639.53,134.29c.32-.35.48-.77.48-1.27,0-.29-.06-.56-.18-.8-.12-.24-.28-.43-.47-.57s-.44-.23-.73-.27c-.21-.04-.5-.06-.9-.06h-2.22v5.88h.78v-2.39h1.51c.83,0,1.41-.17,1.73-.52ZM636.29,132.01h1.5c.35,0,.6.02.73.05.2.06.37.17.49.35.12.18.19.39.19.63,0,.34-.11.6-.32.79s-.57.28-1.07.28h-1.52v-2.1Z"/>
  <path class="cls-9" d="M645.71,132.92c0-.32-.08-.62-.25-.89s-.38-.45-.65-.56c-.27-.11-.67-.16-1.2-.16h-2.61v5.88h.78v-2.61h.9c.2,0,.34,0,.43.03.12.03.24.08.36.16.12.07.25.21.39.39.15.19.33.46.56.81l.78,1.22h.98l-1.02-1.6c-.2-.31-.42-.57-.65-.78-.11-.1-.26-.19-.47-.29.57-.08.98-.26,1.25-.55s.41-.64.41-1.06ZM644.75,133.45c-.1.16-.26.28-.46.35-.2.07-.48.11-.83.11h-1.67v-1.95h1.86c.44,0,.76.09.96.27.2.18.3.41.3.69,0,.19-.05.37-.16.53Z"/>
  <polygon class="cls-9" points="651.2 132.01 651.2 131.31 646.95 131.31 646.95 137.2 651.34 137.2 651.34 136.5 647.73 136.5 647.73 134.5 650.98 134.5 650.98 133.81 647.73 133.81 647.73 132.01 651.2 132.01"/>
  <path class="cls-9" d="M652.6,137.2l.65-1.78h2.46l.69,1.78h.89l-2.41-5.88h-.84l-2.26,5.88h.83ZM654.11,133.05c.14-.37.24-.75.32-1.12.09.32.23.73.42,1.22l.61,1.63h-2l.65-1.73Z"/>
  <path class="cls-9" d="M661.67,136.8c.19-.13.37-.31.54-.53s.3-.51.4-.86.16-.74.16-1.19c0-.52-.08-.99-.23-1.4-.15-.41-.39-.74-.7-1.01-.24-.2-.53-.34-.86-.42-.24-.06-.59-.08-1.05-.08h-2.03v5.88h2.12c.36,0,.67-.03.95-.1.27-.07.51-.17.7-.29ZM659.93,136.5h-1.26v-4.5h1.24c.46,0,.8.04,1.01.12.29.11.54.33.74.66s.3.8.3,1.42c0,.44-.05.82-.15,1.13-.1.31-.25.56-.43.74-.13.13-.31.23-.53.31s-.52.11-.91.11Z"/>
  <path class="cls-9" d="M633.72,183.23c.3-.22.68-.33,1.13-.33.39,0,.72.1.98.29s.46.51.59.94l.77-.18c-.16-.54-.44-.96-.84-1.26s-.9-.45-1.48-.45c-.52,0-1,.12-1.43.35-.43.24-.76.58-1,1.04s-.35.99-.35,1.6c0,.56.1,1.09.31,1.58.21.49.51.86.91,1.12.4.26.91.39,1.55.39s1.13-.17,1.56-.5.72-.82.88-1.46l-.78-.2c-.11.5-.31.87-.61,1.12-.3.25-.67.38-1.11.38-.36,0-.69-.09-1-.28s-.53-.46-.68-.84c-.15-.37-.22-.81-.22-1.31,0-.39.06-.76.18-1.13s.34-.66.64-.87Z"/>
  <path class="cls-9" d="M639.34,187.92c.44.27.93.4,1.49.4.51,0,.99-.12,1.43-.36.44-.24.78-.6,1.02-1.07.24-.47.36-1,.36-1.6s-.11-1.12-.34-1.58-.56-.83-1-1.09c-.44-.26-.93-.39-1.47-.39-.83,0-1.51.28-2.03.83-.53.55-.79,1.32-.79,2.29,0,.52.11,1.01.34,1.47s.56.83.99,1.1ZM639.42,183.47c.4-.38.87-.57,1.42-.57.39,0,.74.1,1.05.29s.55.47.71.83.24.78.24,1.25c0,.76-.19,1.34-.57,1.75-.38.41-.86.62-1.45.62s-1.05-.2-1.43-.61c-.38-.41-.57-.97-.57-1.68,0-.89.2-1.52.6-1.9Z"/>
  <polygon class="cls-9" points="648.29 187.53 645.39 187.53 645.39 182.34 644.62 182.34 644.62 188.22 648.29 188.22 648.29 187.53"/>
  <path class="cls-9" d="M653.22,187.96c.44-.24.78-.6,1.02-1.07.24-.47.36-1,.36-1.6s-.11-1.12-.34-1.58-.56-.83-1-1.09c-.44-.26-.93-.39-1.47-.39-.83,0-1.51.28-2.03.83-.53.55-.79,1.32-.79,2.29,0,.52.11,1.01.34,1.47s.56.83.99,1.1c.44.27.93.4,1.49.4.51,0,.99-.12,1.43-.36ZM650.36,187.04c-.38-.41-.57-.97-.57-1.68,0-.89.2-1.52.6-1.9.4-.38.87-.57,1.42-.57.39,0,.74.1,1.05.29s.55.47.71.83.24.78.24,1.25c0,.76-.19,1.34-.57,1.75-.38.41-.86.62-1.45.62s-1.05-.2-1.43-.61Z"/>
  <path class="cls-9" d="M657.74,185.64c.12.03.24.08.36.16.12.08.25.21.39.39.15.19.33.46.56.81l.78,1.22h.98l-1.02-1.6c-.2-.31-.42-.57-.65-.78-.11-.1-.26-.19-.47-.29.57-.08.98-.26,1.25-.55.27-.29.41-.64.41-1.06,0-.32-.08-.62-.25-.89s-.38-.45-.65-.56c-.27-.11-.67-.16-1.2-.16h-2.61v5.88h.78v-2.61h.9c.2,0,.34,0,.43.03ZM656.4,182.99h1.86c.44,0,.76.09.96.27.2.18.3.41.3.69,0,.19-.05.37-.16.53-.1.16-.26.28-.46.35-.2.07-.48.11-.83.11h-1.67v-1.95Z"/>
  <path class="cls-9" d="M633.26,233.69c-.2-.13-.44-.23-.73-.27-.21-.04-.5-.06-.9-.06h-2.22v5.88h.78v-2.39h1.51c.83,0,1.41-.17,1.73-.52s.48-.77.48-1.27c0-.29-.06-.56-.18-.8s-.28-.43-.47-.57ZM632.79,235.88c-.21.19-.57.28-1.07.28h-1.52v-2.1h1.5c.35,0,.6.02.73.05.2.06.37.17.49.35.12.18.19.39.19.63,0,.34-.11.6-.32.79Z"/>
  <path class="cls-9" d="M641.27,238.31c.12-.24.17-.49.17-.77,0-.34-.1-.64-.29-.89-.19-.25-.46-.43-.82-.53.28-.14.48-.32.62-.54.14-.22.21-.46.21-.71,0-.27-.08-.53-.23-.78-.15-.25-.37-.43-.64-.55s-.63-.18-1.08-.18h-2.21v5.88h2.24c.38,0,.69-.03.95-.1.26-.07.47-.16.64-.29.17-.13.32-.31.43-.55ZM637.78,234.05h1.18c.42,0,.72.03.9.08s.31.16.4.3.14.32.14.52c0,.21-.05.38-.15.51-.1.14-.25.23-.45.29-.15.05-.4.07-.74.07h-1.27v-1.78ZM640.53,238.03c-.08.14-.18.25-.3.33-.12.07-.27.13-.45.16-.1.02-.28.03-.53.03h-1.46v-2.02h1.36c.38,0,.66.03.86.1s.36.18.47.34c.11.16.17.35.17.57,0,.19-.04.35-.12.5Z"/>
  <polygon class="cls-9" points="646.17 238.55 643.27 238.55 643.27 233.36 642.49 233.36 642.49 239.24 646.17 239.24 646.17 238.55"/>
  <polygon class="cls-9" points="651.5 238.55 647.89 238.55 647.89 236.55 651.14 236.55 651.14 235.86 647.89 235.86 647.89 234.05 651.36 234.05 651.36 233.36 647.11 233.36 647.11 239.24 651.5 239.24 651.5 238.55"/>
  <polygon class="cls-9" points="653.31 234.62 656.41 239.24 657.2 239.24 657.2 233.36 656.46 233.36 656.46 237.98 653.37 233.36 652.57 233.36 652.57 239.24 653.31 239.24 653.31 234.62"/>
  <path class="cls-9" d="M662.45,233.87c-.24-.2-.53-.34-.86-.42-.24-.06-.59-.08-1.05-.08h-2.03v5.88h2.12c.36,0,.67-.03.95-.1.27-.07.51-.17.7-.29s.37-.31.54-.53c.16-.23.3-.51.4-.86.1-.35.16-.74.16-1.19,0-.52-.08-.99-.23-1.4-.15-.41-.39-.74-.7-1.01ZM662.42,237.39c-.1.31-.25.56-.43.75-.13.13-.31.23-.53.3s-.52.11-.91.11h-1.26v-4.5h1.24c.46,0,.8.04,1.01.12.29.11.54.33.74.66s.3.8.3,1.42c0,.44-.05.82-.15,1.13Z"/>
  <path class="cls-9" d="M637.13,287.96h1.73v1.1c-.17.15-.41.29-.73.42-.32.13-.65.19-.99.19-.39,0-.75-.08-1.1-.26-.34-.17-.61-.43-.79-.79-.18-.35-.27-.79-.27-1.32,0-.43.08-.82.22-1.18.09-.21.21-.41.37-.58s.37-.32.63-.43c.26-.11.57-.16.92-.16.3,0,.57.05.81.15.24.1.43.24.56.41.13.17.24.41.33.71l.7-.19c-.1-.4-.25-.72-.45-.96s-.46-.44-.81-.58c-.34-.14-.73-.21-1.15-.21-.59,0-1.1.12-1.55.36-.45.24-.79.61-1.03,1.11s-.36,1.03-.36,1.6.12,1.1.36,1.57c.24.47.6.83,1.07,1.07.47.25,1,.37,1.58.37.43,0,.84-.08,1.25-.23.41-.15.8-.38,1.18-.69v-2.18h-2.49v.69Z"/>
  <polygon class="cls-9" points="641.52 284.38 640.74 284.38 640.74 290.27 644.41 290.27 644.41 289.57 641.52 289.57 641.52 284.38"/>
  <path class="cls-9" d="M649.39,284.67c-.44-.26-.93-.39-1.47-.39-.83,0-1.51.28-2.03.83-.53.55-.79,1.32-.79,2.29,0,.52.11,1.01.34,1.47s.56.83.99,1.1c.44.27.93.4,1.49.4.51,0,.99-.12,1.43-.36.44-.24.78-.6,1.02-1.07.24-.47.36-1,.36-1.6s-.11-1.12-.34-1.58-.56-.83-1-1.09ZM649.36,289.08c-.38.41-.86.62-1.45.62s-1.05-.2-1.43-.61c-.38-.41-.57-.97-.57-1.68,0-.89.2-1.52.6-1.9.4-.38.87-.57,1.42-.57.39,0,.74.1,1.05.29s.55.47.71.83.24.78.24,1.25c0,.76-.19,1.34-.57,1.75Z"/>
  <path class="cls-9" d="M657.06,288.17c-.12.48-.22.91-.29,1.28-.09-.65-.25-1.34-.46-2.08l-.84-2.98h-.94l-1.12,3.97c-.03.1-.11.46-.26,1.09-.07-.4-.15-.8-.25-1.2l-.89-3.86h-.8l1.56,5.88h.79l1.25-4.48c.05-.19.11-.42.17-.69.02.09.08.32.19.69l1.24,4.48h.75l1.61-5.88h-.78l-.92,3.78Z"/>
  <path class="cls-9" d="M65.06,280.55c-.2.08-.43.12-.69.12-.29,0-.56-.05-.79-.15s-.41-.24-.52-.4-.18-.38-.21-.64l-.65.06c0,.35.1.66.28.93s.43.48.74.62c.32.14.71.2,1.18.2.37,0,.7-.07,1-.2.29-.14.52-.33.68-.57.16-.24.24-.5.24-.78s-.07-.52-.21-.74c-.14-.21-.37-.39-.67-.53-.21-.09-.59-.2-1.15-.33-.56-.13-.9-.25-1.03-.37-.13-.12-.2-.27-.2-.46,0-.21.09-.4.28-.55.19-.15.49-.23.91-.23s.7.08.9.25.32.41.36.74l.66-.05c-.01-.3-.1-.58-.25-.82-.16-.24-.38-.42-.68-.54-.29-.12-.63-.19-1.01-.19-.35,0-.67.06-.95.18s-.5.29-.65.52c-.15.23-.22.47-.22.73,0,.24.06.45.18.64s.31.35.55.48c.19.1.52.21,1,.32.48.11.78.2.92.25.22.08.37.18.47.31.09.12.14.26.14.43s-.05.31-.15.44c-.1.14-.25.24-.45.32Z"/>
  <path class="cls-9" d="M70.75,281.2h.78l-2.12-5.17h-.74l-1.99,5.17h.73l.57-1.57h2.16l.6,1.57ZM68.18,279.07l.57-1.52c.12-.33.21-.66.28-.99.08.28.2.64.37,1.07l.54,1.43h-1.75Z"/>
  <path class="cls-9" d="M72.71,276.79l1.5,4.4h.62l1.5-4.33v4.33h.66v-5.17h-.92l-1.24,3.6c-.12.37-.22.64-.27.83-.05-.17-.13-.42-.25-.77l-1.23-3.66h-1.03v5.17h.66v-4.4Z"/>
  <path class="cls-9" d="M78.78,279.09h1.33c.73,0,1.24-.15,1.52-.46.28-.3.42-.68.42-1.12,0-.26-.05-.49-.16-.71-.1-.21-.24-.38-.41-.5-.17-.12-.38-.2-.64-.24-.18-.03-.44-.05-.79-.05h-1.95v5.17h.68v-2.1ZM78.78,276.63h1.32c.31,0,.52.02.64.05.18.05.32.15.43.3.11.15.16.34.16.56,0,.3-.09.53-.28.7-.19.16-.5.25-.94.25h-1.34v-1.85Z"/>
  <polygon class="cls-9" points="86.12 280.59 83.57 280.59 83.57 276.02 82.89 276.02 82.89 281.2 86.12 281.2 86.12 280.59"/>
  <polygon class="cls-9" points="90.81 280.59 87.63 280.59 87.63 278.83 90.5 278.83 90.5 278.22 87.63 278.22 87.63 276.63 90.69 276.63 90.69 276.02 86.95 276.02 86.95 281.2 90.81 281.2 90.81 280.59"/>
  <path class="cls-9" d="M54.51,313.15c-.21.17-.46.26-.76.26-.25,0-.48-.06-.69-.19-.21-.13-.37-.32-.47-.58-.1-.26-.15-.56-.15-.9,0-.27.04-.53.13-.78s.23-.45.44-.6.47-.22.78-.22c.27,0,.5.07.68.2s.32.35.41.64l.53-.12c-.11-.38-.3-.67-.58-.87s-.62-.31-1.02-.31c-.36,0-.69.08-.98.24-.3.16-.53.4-.69.72-.16.31-.24.68-.24,1.11,0,.39.07.75.21,1.09.14.34.35.6.63.77.27.18.63.27,1.07.27s.78-.12,1.07-.35.5-.57.61-1.01l-.54-.14c-.07.34-.22.6-.42.77Z"/>
  <path class="cls-9" d="M58.92,309.93c-.3-.18-.64-.27-1.01-.27-.57,0-1.04.19-1.4.57-.36.38-.54.91-.54,1.58,0,.36.08.69.23,1.01.16.32.38.57.68.75s.64.28,1.02.28c.35,0,.68-.08.99-.25.3-.17.54-.41.71-.74.17-.33.25-.69.25-1.1s-.08-.77-.24-1.09c-.16-.32-.39-.57-.69-.75ZM58.9,312.98c-.26.28-.59.43-1,.43s-.73-.14-.99-.42-.39-.67-.39-1.16c0-.61.14-1.05.41-1.31.27-.26.6-.39.98-.39.27,0,.51.07.72.2.22.14.38.33.49.57.11.25.17.54.17.87,0,.52-.13.93-.39,1.21Z"/>
  <polygon class="cls-9" points="63.21 312.92 61.08 309.74 60.53 309.74 60.53 313.8 61.05 313.8 61.05 310.61 63.18 313.8 63.73 313.8 63.73 309.74 63.21 309.74 63.21 312.92"/>
  <polygon class="cls-9" points="64.33 310.22 65.66 310.22 65.66 313.8 66.2 313.8 66.2 310.22 67.54 310.22 67.54 309.74 64.33 309.74 64.33 310.22"/>
  <polygon class="cls-9" points="70.31 309.67 69.13 313.87 69.53 313.87 70.71 309.67 70.31 309.67"/>
  <path class="cls-9" d="M76.15,312.51l-.54-.14c-.07.34-.22.6-.42.77s-.46.26-.76.26c-.25,0-.48-.06-.69-.19-.21-.13-.37-.32-.47-.58-.1-.26-.15-.56-.15-.9,0-.27.04-.53.13-.78s.23-.45.44-.6.47-.22.78-.22c.27,0,.5.07.68.2s.32.35.41.64l.53-.12c-.11-.38-.3-.67-.58-.87s-.62-.31-1.02-.31c-.36,0-.69.08-.98.24-.3.16-.53.4-.69.72-.16.31-.24.68-.24,1.11,0,.39.07.75.21,1.09.14.34.35.6.63.77.27.18.63.27,1.07.27s.78-.12,1.07-.35.5-.57.61-1.01Z"/>
  <polygon class="cls-9" points="76.79 309.74 76.79 313.8 79.33 313.8 79.33 313.32 77.33 313.32 77.33 309.74 76.79 309.74"/>
  <polygon class="cls-9" points="80.48 309.74 79.94 309.74 79.94 313.8 80.48 313.8 80.48 312.39 81.14 311.74 82.59 313.8 83.3 313.8 81.52 311.38 83.22 309.74 82.5 309.74 80.48 311.75 80.48 309.74"/>
  <polygon class="cls-9" points="84.88 313.87 85.29 313.87 86.46 309.67 86.06 309.67 84.88 313.87"/>
  <polygon class="cls-9" points="88.06 310.22 89.4 310.22 89.4 313.8 89.94 313.8 89.94 310.22 91.28 310.22 91.28 309.74 88.06 309.74 88.06 310.22"/>
  <path class="cls-9" d="M94.27,312.15c-.07-.07-.18-.13-.32-.2.39-.05.68-.18.86-.38.19-.2.28-.44.28-.73,0-.22-.06-.43-.17-.61-.11-.18-.26-.31-.45-.39-.19-.07-.46-.11-.82-.11h-1.8v4.06h.54v-1.8h.62c.14,0,.24,0,.3.02.08.02.17.06.25.11.08.05.17.14.27.27.1.13.23.32.39.56l.54.84h.68l-.71-1.1c-.14-.22-.29-.4-.45-.54ZM93.53,311.53h-1.15v-1.34h1.28c.3,0,.52.06.66.19.14.12.21.28.21.47,0,.13-.04.25-.11.36-.07.11-.18.19-.32.24-.14.05-.33.08-.58.08Z"/>
  <rect class="cls-9" x="96.02" y="309.74" width=".54" height="4.06"/>
  <path class="cls-9" d="M99.4,312.2h1.19v.76c-.11.1-.28.2-.5.29-.22.09-.45.13-.68.13-.27,0-.52-.06-.76-.18-.24-.12-.42-.3-.54-.54-.12-.24-.19-.55-.19-.91,0-.29.05-.57.15-.82.06-.15.15-.28.26-.4s.25-.22.43-.29c.18-.08.39-.11.64-.11.2,0,.39.04.56.11.17.07.3.17.39.28s.17.28.23.49l.48-.13c-.07-.27-.17-.5-.31-.67-.13-.17-.32-.3-.56-.4-.24-.1-.5-.14-.8-.14-.4,0-.76.08-1.07.25s-.55.42-.71.76c-.17.34-.25.71-.25,1.11s.08.76.25,1.08c.17.32.41.57.74.74.33.17.69.26,1.09.26.3,0,.58-.05.86-.16.28-.11.55-.26.82-.47v-1.51h-1.72v.48Z"/>
  <path class="cls-9" d="M579.35,309.97c-.13-.09-.3-.16-.5-.19-.14-.03-.35-.04-.62-.04h-1.53v4.06h.54v-1.65h1.04c.57,0,.97-.12,1.19-.36.22-.24.33-.53.33-.88,0-.2-.04-.39-.12-.55s-.19-.3-.33-.39ZM579.03,311.47c-.15.13-.39.19-.74.19h-1.05v-1.45h1.04c.24,0,.41.01.5.04.14.04.25.12.34.24s.13.27.13.44c0,.23-.07.42-.22.55Z"/>
  <path class="cls-9" d="M583.28,309.93c-.3-.18-.64-.27-1.01-.27-.57,0-1.04.19-1.4.57-.36.38-.54.91-.54,1.58,0,.36.08.69.23,1.01.15.32.38.57.68.75s.64.28,1.02.28c.35,0,.68-.08.99-.25s.54-.41.71-.74.25-.69.25-1.1-.08-.77-.24-1.09c-.16-.32-.39-.57-.69-.75ZM583.26,312.98c-.26.28-.59.43-1,.43s-.73-.14-.99-.42c-.26-.28-.39-.67-.39-1.16,0-.61.14-1.05.41-1.31.27-.26.6-.39.98-.39.27,0,.51.07.72.2.21.14.38.33.49.57.11.25.17.54.17.87,0,.52-.13.93-.39,1.21Z"/>
  <rect class="cls-9" x="584.99" y="309.74" width=".54" height="4.06"/>
  <polygon class="cls-9" points="589.15 312.92 587.02 309.74 586.47 309.74 586.47 313.8 586.98 313.8 586.98 310.61 589.11 313.8 589.66 313.8 589.66 309.74 589.15 309.74 589.15 312.92"/>
  <polygon class="cls-9" points="590.26 310.22 591.6 310.22 591.6 313.8 592.13 313.8 592.13 310.22 593.48 310.22 593.48 309.74 590.26 309.74 590.26 310.22"/>
  <polygon class="cls-9" points="596.64 309.67 596.24 309.67 595.06 313.87 595.46 313.87 596.64 309.67"/>
  <polygon class="cls-9" points="601.17 313.32 599.17 313.32 599.17 309.74 598.63 309.74 598.63 313.8 601.17 313.8 601.17 313.32"/>
  <rect class="cls-9" x="601.9" y="309.74" width=".54" height="4.06"/>
  <polygon class="cls-9" points="603.89 310.61 606.02 313.8 606.57 313.8 606.57 309.74 606.06 309.74 606.06 312.92 603.92 309.74 603.37 309.74 603.37 313.8 603.89 313.8 603.89 310.61"/>
  <polygon class="cls-9" points="610.51 313.32 608.02 313.32 608.02 311.94 610.27 311.94 610.27 311.46 608.02 311.46 608.02 310.22 610.42 310.22 610.42 309.74 607.48 309.74 607.48 313.8 610.51 313.8 610.51 313.32"/>
  <polygon class="cls-9" points="613.97 309.67 613.57 309.67 612.39 313.87 612.79 313.87 613.97 309.67"/>
  <path class="cls-9" d="M618.26,311.64c.19-.09.33-.22.43-.37.09-.15.14-.32.14-.49,0-.19-.05-.36-.16-.54s-.25-.3-.44-.38c-.19-.08-.44-.12-.75-.12h-1.52v4.06h1.55c.26,0,.48-.02.65-.07.18-.05.33-.11.44-.2s.22-.21.3-.38.12-.34.12-.53c0-.24-.07-.44-.2-.61-.13-.17-.32-.3-.57-.37ZM616.5,310.22h.81c.29,0,.5.02.62.06s.21.11.28.21.1.22.1.36c0,.14-.03.26-.1.35-.07.09-.17.16-.31.2-.1.03-.27.05-.51.05h-.88v-1.23ZM618.39,312.96c-.05.1-.12.17-.21.23s-.19.09-.31.11c-.07.01-.19.02-.37.02h-1.01v-1.4h.94c.26,0,.46.02.59.07.14.05.25.12.32.24.08.11.12.24.12.39,0,.13-.03.24-.08.34Z"/>
  <path class="cls-9" d="M622.55,309.93c-.3-.18-.64-.27-1.01-.27-.57,0-1.04.19-1.4.57-.36.38-.54.91-.54,1.58,0,.36.08.69.23,1.01.15.32.38.57.68.75s.64.28,1.02.28c.35,0,.68-.08.99-.25s.54-.41.71-.74.25-.69.25-1.1-.08-.77-.24-1.09c-.16-.32-.39-.57-.69-.75ZM622.53,312.98c-.26.28-.59.43-1,.43s-.73-.14-.99-.42c-.26-.28-.39-.67-.39-1.16,0-.61.14-1.05.41-1.31.27-.26.6-.39.98-.39.27,0,.51.07.72.2.21.14.38.33.49.57.11.25.17.54.17.87,0,.52-.13.93-.39,1.21Z"/>
  <polygon class="cls-9" points="623.87 310.22 625.2 310.22 625.2 313.8 625.74 313.8 625.74 310.22 627.08 310.22 627.08 309.74 623.87 309.74 623.87 310.22"/>
  <polygon class="cls-9" points="630.3 311.4 628.19 311.4 628.19 309.74 627.65 309.74 627.65 313.8 628.19 313.8 628.19 311.88 630.3 311.88 630.3 313.8 630.83 313.8 630.83 309.74 630.3 309.74 630.3 311.4"/>
  <path class="cls-9" d="M73.02,354.64c-.27.22-.59.33-.97.33-.32,0-.61-.08-.88-.24s-.47-.41-.6-.74c-.13-.33-.19-.71-.19-1.15,0-.34.05-.67.16-.99.11-.32.3-.58.56-.77s.6-.29,1-.29c.35,0,.63.09.86.26s.4.45.52.82l.67-.16c-.14-.48-.38-.85-.74-1.11s-.79-.4-1.31-.4c-.46,0-.87.1-1.25.31-.38.21-.67.51-.88.91-.21.4-.31.87-.31,1.41,0,.49.09.96.27,1.39.18.43.45.76.8.99.35.23.8.34,1.36.34s.99-.15,1.37-.44c.37-.3.63-.72.77-1.29l-.68-.17c-.09.44-.27.76-.54.99Z"/>
  <polygon class="cls-9" points="75.74 350.29 75.06 350.29 75.06 355.46 78.29 355.46 78.29 354.85 75.74 354.85 75.74 350.29"/>
  <path class="cls-9" d="M82.21,353.37c-.09-.08-.23-.17-.41-.26.5-.07.86-.23,1.1-.48.24-.25.36-.56.36-.93,0-.28-.07-.54-.22-.78s-.33-.4-.58-.49c-.24-.09-.59-.14-1.05-.14h-2.29v5.17h.68v-2.3h.79c.18,0,.3,0,.38.02.11.03.21.07.31.14.1.07.22.18.35.35.13.16.29.4.49.71l.68,1.08h.86l-.9-1.41c-.18-.28-.37-.5-.57-.69ZM81.27,352.57h-1.47v-1.71h1.64c.38,0,.66.08.84.24.18.16.27.36.27.6,0,.17-.05.32-.14.46-.09.14-.23.25-.4.31-.18.06-.42.1-.73.1Z"/>
  <polygon class="cls-9" points="597.35 355.46 598.03 355.46 598.03 353.11 600.46 353.11 600.46 352.5 598.03 352.5 598.03 350.9 600.84 350.9 600.84 350.29 597.35 350.29 597.35 355.46"/>
  <path class="cls-9" d="M604.83,353.37c-.09-.08-.23-.17-.41-.26.5-.07.86-.23,1.1-.48.24-.25.36-.56.36-.93,0-.28-.07-.54-.22-.78s-.33-.4-.58-.49c-.24-.09-.59-.14-1.05-.14h-2.29v5.17h.68v-2.3h.79c.18,0,.3,0,.38.02.11.03.21.07.31.14.1.07.22.18.35.35.13.16.29.4.49.71l.69,1.08h.86l-.9-1.41c-.18-.28-.37-.5-.57-.69ZM603.89,352.57h-1.47v-1.71h1.64c.38,0,.66.08.84.24.18.16.27.36.27.6,0,.17-.05.32-.14.46-.09.14-.23.25-.4.31-.18.06-.42.1-.73.1Z"/>
  <path class="cls-9" d="M607.64,354.49l2.9-3.59v-.61h-3.71v.61h2.89c-.17.17-.35.38-.54.61l-2.65,3.31v.64h4.09v-.61h-3.3l.31-.36Z"/>
  <path class="cls-9" d="M134.34,317.61h-.72l-1,1.32c-.15.2-.28.39-.39.57-.08-.14-.21-.35-.4-.61l-.9-1.28h-.78l1.7,2.38-1.92,2.59h.79l1.25-1.73c.05-.07.13-.19.24-.37.07.12.15.23.22.33l1.25,1.77h.81l-1.88-2.63,1.75-2.34Z"/>
  <rect class="cls-9" x="137.1" y="317.61" width=".66" height="4.97"/>
  <path class="cls-9" d="M141.54,319.32c-.09-.13-.23-.23-.41-.31-.18-.08-.38-.12-.6-.12-.5,0-.88.2-1.15.59v-.51h-.55v3.6h.61v-1.97c0-.46.09-.77.28-.94.19-.17.41-.25.67-.25.16,0,.3.04.43.11.12.07.21.17.25.3.05.12.07.31.07.56v2.19h.61v-2.21c0-.28-.01-.48-.03-.59-.04-.17-.1-.32-.19-.45Z"/>
  <path class="cls-9" d="M192.33,319.07c-.21.33-.39.62-.54.88-.16-.28-.32-.56-.51-.84l-.98-1.5h-.8l1.92,2.87v2.11h.66v-2.11l1.98-2.87h-.77l-.96,1.46Z"/>
  <rect class="cls-9" x="196.56" y="317.61" width=".66" height="4.97"/>
  <path class="cls-9" d="M201,319.32c-.09-.13-.23-.23-.41-.31-.18-.08-.38-.12-.6-.12-.5,0-.88.2-1.15.59v-.51h-.55v3.6h.61v-1.97c0-.46.09-.77.28-.94.19-.17.41-.25.67-.25.16,0,.3.04.43.11.12.07.21.17.25.3.05.12.07.31.07.56v2.19h.61v-2.21c0-.28-.01-.48-.03-.59-.04-.17-.1-.32-.19-.45Z"/>
  <path class="cls-9" d="M250.33,321.65l2.79-3.45v-.59h-3.56v.59h2.77c-.16.17-.33.36-.52.59l-2.55,3.18v.61h3.93v-.59h-3.17l.3-.35Z"/>
  <rect class="cls-9" x="255.96" y="317.61" width=".66" height="4.97"/>
  <path class="cls-9" d="M260.4,319.32c-.09-.13-.23-.23-.41-.31s-.38-.12-.6-.12c-.5,0-.88.2-1.15.59v-.51h-.55v3.6h.61v-1.97c0-.46.09-.77.28-.94.19-.17.41-.25.67-.25.16,0,.3.04.43.11.12.07.21.17.25.3.05.12.07.31.07.56v2.19h.61v-2.21c0-.28-.01-.48-.03-.59-.04-.17-.1-.32-.19-.45Z"/>
  <path class="cls-9" d="M311.31,319.96c-.2-.09-.57-.2-1.1-.32-.54-.12-.87-.24-.99-.35-.13-.12-.19-.26-.19-.44,0-.21.09-.38.27-.53.18-.15.47-.22.87-.22s.67.08.87.24c.2.16.31.4.34.71l.63-.05c-.01-.29-.09-.55-.24-.78-.15-.23-.37-.41-.65-.52-.28-.12-.61-.18-.97-.18-.33,0-.64.06-.91.17-.27.11-.48.28-.62.5s-.21.45-.21.7c0,.23.06.44.17.62.12.18.29.34.53.46.18.1.5.2.96.31.46.11.75.19.88.24.21.08.36.18.45.29.09.12.13.25.13.41s-.05.3-.14.43-.24.23-.43.31-.41.11-.67.11c-.28,0-.54-.05-.76-.15-.23-.1-.39-.23-.5-.39-.11-.16-.18-.36-.21-.61l-.62.05c0,.33.1.63.27.89.17.26.41.46.72.59.3.13.68.2,1.13.2.35,0,.67-.07.96-.2.28-.13.5-.31.65-.55s.23-.48.23-.75-.07-.5-.21-.71c-.14-.2-.35-.37-.64-.51Z"/>
  <rect class="cls-9" x="312.98" y="317.61" width=".61" height=".7"/>
  <rect class="cls-9" x="312.98" y="318.98" width=".61" height="3.6"/>
  <path class="cls-9" d="M314.95,322.09l.38-.42,1.95-2.29v-.4h-2.94v.5h1.47c.2,0,.43,0,.69-.02l-2.29,2.63v.5h3.19v-.53h-1.67c-.24,0-.5,0-.77.03Z"/>
  <path class="cls-9" d="M319.47,318.9c-.5,0-.9.17-1.21.5-.31.33-.47.8-.47,1.41s.15,1.04.46,1.37.73.49,1.25.49c.42,0,.76-.1,1.03-.3.27-.2.45-.49.55-.86l-.63-.08c-.09.26-.22.45-.38.56s-.35.18-.57.18c-.3,0-.55-.1-.75-.32-.2-.21-.31-.51-.34-.91h2.69c0-.07,0-.13,0-.16,0-.59-.15-1.06-.46-1.38-.3-.33-.7-.49-1.18-.49ZM318.46,320.44c.02-.31.13-.57.32-.75.19-.19.43-.28.71-.28.31,0,.56.12.76.35.13.15.2.38.23.68h-2.01Z"/>
  <path class="cls-9" d="M367.34,317.89c-.17-.11-.37-.19-.61-.23-.17-.03-.43-.05-.76-.05h-1.88v4.97h.66v-2.02h1.28c.7,0,1.19-.15,1.46-.44.27-.29.4-.65.4-1.07,0-.25-.05-.47-.15-.68-.1-.21-.23-.37-.4-.48ZM366.95,319.74c-.18.16-.48.24-.91.24h-1.29v-1.78h1.27c.3,0,.5.01.61.04.17.05.31.15.42.29.11.15.16.33.16.53,0,.29-.09.51-.27.67Z"/>
  <path class="cls-9" d="M370.13,318.9c-.5,0-.9.17-1.21.5-.31.33-.47.8-.47,1.41s.15,1.04.46,1.37.73.49,1.25.49c.42,0,.76-.1,1.03-.3.27-.2.45-.49.55-.86l-.63-.08c-.09.26-.22.45-.38.56s-.35.18-.57.18c-.3,0-.55-.1-.75-.32-.2-.21-.31-.51-.34-.91h2.69c0-.07,0-.13,0-.16,0-.59-.15-1.06-.46-1.38-.3-.33-.7-.49-1.18-.49ZM369.11,320.44c.02-.31.13-.57.32-.75.19-.19.43-.28.71-.28.31,0,.56.12.76.35.13.15.2.38.23.68h-2.01Z"/>
  <path class="cls-9" d="M373.44,319.02c-.12.08-.25.25-.39.5v-.55h-.55v3.6h.61v-1.89c0-.26.03-.5.1-.71.04-.14.12-.25.23-.33.11-.08.23-.12.36-.12.15,0,.3.04.45.13l.21-.57c-.21-.13-.42-.2-.63-.2-.14,0-.27.04-.39.12Z"/>
  <path class="cls-9" d="M377.03,320.68c-.17-.07-.47-.17-.9-.28-.3-.08-.48-.13-.54-.16-.11-.04-.18-.1-.23-.16-.05-.06-.08-.13-.08-.21,0-.12.06-.23.18-.33s.32-.14.6-.14c.24,0,.42.05.55.16.13.1.21.25.24.43l.6-.08c-.04-.23-.11-.42-.21-.56-.1-.14-.26-.25-.47-.33s-.46-.12-.74-.12c-.19,0-.36.02-.53.07-.16.05-.29.11-.39.18-.13.09-.23.2-.3.34s-.11.29-.11.45c0,.18.04.34.13.48.09.15.22.26.39.34.17.08.48.18.93.29.33.08.54.15.62.21.12.08.18.19.18.33,0,.15-.07.29-.2.4s-.34.17-.62.17-.5-.06-.65-.19c-.16-.13-.25-.31-.28-.56l-.6.09c.07.38.22.67.47.87.25.19.6.29,1.07.29.28,0,.54-.05.76-.15.22-.1.4-.24.51-.42.12-.18.18-.37.18-.57s-.05-.38-.15-.52c-.1-.14-.23-.25-.4-.32Z"/>
  <rect class="cls-9" x="378.3" y="317.61" width=".61" height=".7"/>
  <rect class="cls-9" x="378.3" y="318.98" width=".61" height="3.6"/>
  <path class="cls-9" d="M382.04,320.68c-.17-.07-.47-.17-.9-.28-.3-.08-.48-.13-.54-.16-.11-.04-.18-.1-.23-.16-.05-.06-.08-.13-.08-.21,0-.12.06-.23.18-.33s.32-.14.6-.14c.24,0,.42.05.55.16.13.1.21.25.24.43l.6-.08c-.04-.23-.11-.42-.21-.56-.1-.14-.26-.25-.47-.33s-.46-.12-.74-.12c-.19,0-.36.02-.53.07-.16.05-.29.11-.39.18-.13.09-.23.2-.3.34s-.11.29-.11.45c0,.18.04.34.13.48.09.15.22.26.39.34.17.08.48.18.93.29.33.08.54.15.62.21.12.08.18.19.18.33,0,.15-.07.29-.2.4s-.34.17-.62.17-.5-.06-.65-.19c-.16-.13-.25-.31-.28-.56l-.6.09c.07.38.22.67.47.87.25.19.6.29,1.07.29.28,0,.54-.05.76-.15.22-.1.4-.24.51-.42.12-.18.18-.37.18-.57s-.05-.38-.15-.52c-.1-.14-.23-.25-.4-.32Z"/>
  <path class="cls-9" d="M384.38,322.06c-.09,0-.16-.01-.21-.04-.05-.03-.08-.07-.11-.12s-.03-.16-.03-.34v-2.11h.61v-.47h-.61v-1.26l-.61.37v.89h-.45v.47h.45v2.07c0,.37.03.61.08.72s.14.21.26.28.29.11.51.11c.14,0,.29-.02.46-.05l-.09-.54c-.11.02-.2.02-.27.02Z"/>
  <path class="cls-9" d="M427.23,321.79c-.26.21-.57.32-.94.32-.3,0-.58-.08-.84-.23-.26-.16-.45-.39-.58-.71s-.18-.68-.18-1.11c0-.33.05-.65.16-.95.1-.31.28-.55.54-.74.26-.18.58-.27.96-.27.33,0,.61.08.83.25.22.17.39.43.5.79l.65-.15c-.13-.46-.37-.81-.71-1.07-.34-.25-.76-.38-1.25-.38-.44,0-.84.1-1.21.3-.37.2-.65.49-.84.88-.2.39-.3.84-.3,1.36,0,.47.09.92.26,1.33.18.41.43.73.77.95.34.22.77.33,1.31.33s.96-.14,1.31-.43c.36-.28.61-.7.74-1.24l-.66-.17c-.09.42-.26.73-.52.95Z"/>
  <path class="cls-9" d="M431.52,319.06c-.2-.1-.43-.16-.7-.16-.43,0-.79.17-1.08.5v-1.78h-.61v4.97h.61v-1.97c0-.28.03-.5.1-.67s.18-.29.34-.38.33-.14.51-.14c.24,0,.43.07.56.21.13.14.2.36.2.67v2.28h.61v-2.28c0-.35-.04-.62-.13-.81-.08-.19-.23-.33-.42-.44Z"/>
  <path class="cls-9" d="M435.92,321.07v-.81c0-.27,0-.46-.03-.56-.04-.17-.1-.31-.19-.42-.09-.11-.23-.2-.42-.27-.19-.07-.44-.11-.75-.11s-.58.04-.82.13-.42.21-.54.36-.21.36-.27.62l.6.08c.07-.26.17-.43.3-.53.14-.1.35-.15.64-.15.31,0,.54.07.69.21.12.1.17.28.17.53,0,.02,0,.08,0,.16-.23.08-.6.15-1.09.21-.24.03-.42.06-.54.09-.16.04-.31.11-.44.2-.13.09-.24.21-.32.35s-.12.31-.12.48c0,.3.11.55.32.74.21.19.52.29.91.29.24,0,.46-.04.67-.12s.43-.21.65-.41c.02.17.06.32.12.44h.64c-.08-.14-.13-.28-.15-.43s-.04-.51-.04-1.08ZM435.3,321c0,.27-.03.47-.1.61-.09.18-.22.32-.4.42-.18.1-.39.15-.63.15s-.42-.05-.54-.16-.18-.24-.18-.41c0-.11.03-.2.08-.29.06-.09.14-.15.24-.2.1-.04.28-.09.53-.12.44-.06.78-.14,1-.23v.22Z"/>
  <path class="cls-9" d="M438.32,318.9c-.45,0-.82.13-1.13.4-.37.32-.56.81-.56,1.48,0,.61.16,1.07.47,1.4.31.32.72.48,1.22.48.31,0,.6-.07.87-.22.27-.15.47-.35.61-.62.14-.27.21-.63.21-1.09,0-.57-.16-1.02-.47-1.34-.31-.32-.72-.49-1.21-.49ZM439.08,321.82c-.2.23-.45.35-.76.35s-.56-.11-.76-.34-.3-.58-.3-1.04.1-.81.3-1.03.45-.34.76-.34.55.12.75.34.3.57.3,1.01c0,.47-.1.82-.3,1.05Z"/>
  <path class="cls-9" d="M442.92,320.68c-.17-.07-.47-.17-.9-.28-.3-.08-.48-.13-.54-.16-.11-.04-.18-.1-.23-.16-.05-.06-.08-.13-.08-.21,0-.12.06-.23.18-.33s.32-.14.6-.14c.24,0,.42.05.55.16.13.1.21.25.24.43l.6-.08c-.04-.23-.11-.42-.21-.56-.1-.14-.26-.25-.47-.33s-.46-.12-.74-.12c-.19,0-.36.02-.53.07-.16.05-.29.11-.39.18-.13.09-.23.2-.3.34s-.11.29-.11.45c0,.18.04.34.13.48.09.15.22.26.39.34.17.08.48.18.93.29.33.08.54.15.62.21.12.08.18.19.18.33,0,.15-.07.29-.2.4s-.34.17-.62.17-.5-.06-.65-.19c-.16-.13-.25-.31-.28-.56l-.6.09c.07.38.22.67.47.87.25.19.6.29,1.07.29.28,0,.54-.05.76-.15.22-.1.4-.24.51-.42.12-.18.18-.37.18-.57s-.05-.38-.15-.52c-.1-.14-.23-.25-.4-.32Z"/>
  <path class="cls-9" d="M488.11,321.79c-.26.21-.57.32-.94.32-.3,0-.58-.08-.84-.23-.26-.16-.45-.39-.58-.71s-.18-.68-.18-1.11c0-.33.05-.65.16-.95.1-.31.28-.55.54-.74.26-.18.58-.27.96-.27.33,0,.61.08.83.25.22.17.39.43.5.79l.65-.15c-.13-.46-.37-.81-.71-1.07-.34-.25-.76-.38-1.25-.38-.44,0-.84.1-1.21.3-.37.2-.65.49-.84.88-.2.39-.3.84-.3,1.36,0,.47.09.92.26,1.33.18.41.43.73.77.95.34.22.77.33,1.31.33s.96-.14,1.31-.43c.36-.28.61-.7.74-1.24l-.66-.17c-.09.42-.26.73-.52.95Z"/>
  <rect class="cls-9" x="490.01" y="317.61" width=".61" height="4.97"/>
  <path class="cls-9" d="M493.02,318.9c-.45,0-.82.13-1.13.4-.37.32-.56.81-.56,1.48,0,.61.16,1.07.47,1.4.31.32.72.48,1.22.48.31,0,.6-.07.87-.22.27-.15.47-.35.61-.62.14-.27.21-.63.21-1.09,0-.57-.16-1.02-.47-1.34-.31-.32-.72-.49-1.21-.49ZM493.78,321.82c-.2.23-.45.35-.76.35s-.56-.11-.76-.34-.3-.58-.3-1.04.1-.81.3-1.03.45-.34.76-.34.55.12.75.34.3.57.3,1.01c0,.47-.1.82-.3,1.05Z"/>
  <path class="cls-9" d="M497.47,321.94c-.16.15-.36.22-.6.22-.3,0-.54-.11-.73-.33-.19-.22-.28-.57-.28-1.05s.1-.83.29-1.05c.19-.22.44-.33.75-.33.2,0,.38.06.52.18s.24.3.3.55l.59-.09c-.07-.36-.23-.65-.48-.84-.25-.2-.57-.3-.96-.3-.31,0-.6.07-.86.22s-.46.36-.59.66c-.13.29-.19.63-.19,1.02,0,.6.15,1.06.45,1.39.3.32.7.48,1.19.48.39,0,.72-.12,1-.35s.44-.56.5-.97l-.6-.08c-.04.31-.14.53-.3.68Z"/>
  <polygon class="cls-9" points="501.75 318.98 500.96 318.98 499.51 320.45 499.51 317.61 498.9 317.61 498.9 322.58 499.51 322.58 499.51 321.16 499.94 320.74 501.13 322.58 501.88 322.58 500.37 320.32 501.75 318.98"/>
  <path class="cls-9" d="M547.2,320.57c-.09-.08-.22-.16-.4-.25.48-.07.83-.22,1.06-.46.23-.24.34-.54.34-.89,0-.27-.07-.52-.21-.75s-.32-.38-.55-.47c-.23-.09-.57-.13-1.01-.13h-2.2v4.97h.66v-2.21h.76c.17,0,.29,0,.37.02.1.02.2.07.3.13.1.06.21.17.33.33.12.16.28.39.48.69l.66,1.03h.83l-.86-1.35c-.17-.26-.35-.48-.55-.66ZM546.3,319.81h-1.41v-1.64h1.57c.37,0,.64.08.81.23s.26.34.26.58c0,.16-.04.31-.13.45s-.22.24-.39.3c-.17.06-.4.09-.71.09Z"/>
  <path class="cls-9" d="M550.64,318.9c-.5,0-.9.17-1.21.5-.31.33-.47.8-.47,1.41s.15,1.04.46,1.37.73.49,1.25.49c.42,0,.76-.1,1.03-.3.27-.2.45-.49.55-.86l-.63-.08c-.09.26-.22.45-.38.56s-.35.18-.57.18c-.3,0-.55-.1-.75-.32-.2-.21-.31-.51-.34-.91h2.69c0-.07,0-.13,0-.16,0-.59-.15-1.06-.46-1.38-.3-.33-.7-.49-1.18-.49ZM549.62,320.44c.02-.31.13-.57.32-.75.19-.19.43-.28.71-.28.31,0,.56.12.76.35.13.15.2.38.23.68h-2.01Z"/>
  <path class="cls-9" d="M555.22,320.68c-.17-.07-.47-.17-.9-.28-.3-.08-.48-.13-.54-.16-.11-.04-.18-.1-.23-.16-.05-.06-.08-.13-.08-.21,0-.12.06-.23.18-.33s.32-.14.6-.14c.24,0,.42.05.55.16.13.1.21.25.24.43l.6-.08c-.04-.23-.11-.42-.21-.56-.1-.14-.26-.25-.47-.33s-.46-.12-.74-.12c-.19,0-.36.02-.53.07-.16.05-.29.11-.39.18-.13.09-.23.2-.3.34s-.11.29-.11.45c0,.18.04.34.13.48.09.15.22.26.39.34.17.08.48.18.93.29.33.08.54.15.62.21.12.08.18.19.18.33,0,.15-.07.29-.2.4s-.34.17-.62.17-.5-.06-.65-.19c-.16-.13-.25-.31-.28-.56l-.6.09c.07.38.22.67.47.87.25.19.6.29,1.07.29.28,0,.54-.05.76-.15.22-.1.4-.24.51-.42.12-.18.18-.37.18-.57s-.05-.38-.15-.52c-.1-.14-.23-.25-.4-.32Z"/>
  <path class="cls-9" d="M557.97,318.9c-.5,0-.9.17-1.21.5-.31.33-.47.8-.47,1.41s.15,1.04.46,1.37.73.49,1.25.49c.42,0,.76-.1,1.03-.3.27-.2.45-.49.55-.86l-.63-.08c-.09.26-.22.45-.38.56s-.35.18-.57.18c-.3,0-.55-.1-.75-.32-.2-.21-.31-.51-.34-.91h2.69c0-.07,0-.13,0-.16,0-.59-.15-1.06-.46-1.38-.3-.33-.7-.49-1.18-.49ZM556.96,320.44c.02-.31.13-.57.32-.75.19-.19.43-.28.71-.28.31,0,.56.12.76.35.13.15.2.38.23.68h-2.01Z"/>
  <path class="cls-9" d="M561.42,322.06c-.09,0-.16-.01-.21-.04-.05-.03-.08-.07-.11-.12s-.03-.16-.03-.34v-2.11h.61v-.47h-.61v-1.26l-.61.37v.89h-.45v.47h.45v2.07c0,.37.03.61.08.72s.14.21.26.28.29.11.51.11c.14,0,.29-.02.46-.05l-.09-.54c-.11.02-.2.02-.27.02Z"/>
  <polygon class="cls-9" points="593.54 322.58 594.2 322.58 594.2 320.32 596.53 320.32 596.53 319.74 594.2 319.74 594.2 318.2 596.9 318.2 596.9 317.61 593.54 317.61 593.54 322.58"/>
  <path class="cls-9" d="M598.28,320.7c0-.26.03-.5.1-.71.04-.14.12-.25.23-.33.11-.08.23-.12.36-.12.15,0,.3.04.45.13l.21-.57c-.21-.13-.42-.2-.63-.2-.14,0-.27.04-.39.12-.12.08-.25.25-.39.5v-.55h-.55v3.6h.61v-1.89Z"/>
  <path class="cls-9" d="M603.08,321.5l-.63-.08c-.09.26-.22.45-.38.56s-.35.18-.57.18c-.3,0-.55-.1-.75-.32-.2-.21-.31-.51-.34-.91h2.69c0-.07,0-.13,0-.16,0-.59-.15-1.06-.46-1.38-.3-.33-.7-.49-1.18-.49s-.9.17-1.21.5c-.31.33-.47.8-.47,1.41s.15,1.04.46,1.37.73.49,1.25.49c.42,0,.76-.1,1.03-.3.27-.2.45-.49.55-.86ZM600.76,319.68c.19-.19.43-.28.71-.28.31,0,.56.12.76.35.13.15.2.38.23.68h-2.01c.02-.31.13-.57.32-.75Z"/>
  <path class="cls-9" d="M606.31,321.42c-.09.26-.22.45-.38.56s-.35.18-.57.18c-.3,0-.55-.1-.75-.32-.2-.21-.31-.51-.34-.91h2.69c0-.07,0-.13,0-.16,0-.59-.15-1.06-.46-1.38-.3-.33-.7-.49-1.18-.49s-.9.17-1.21.5c-.31.33-.47.8-.47,1.41s.15,1.04.46,1.37.73.49,1.25.49c.42,0,.76-.1,1.03-.3.27-.2.45-.49.55-.86l-.63-.08ZM604.63,319.68c.19-.19.43-.28.71-.28.31,0,.56.12.76.35.13.15.2.38.23.68h-2.01c.02-.31.13-.57.32-.75Z"/>
  <path class="cls-9" d="M610.58,322.06h-1.67c-.24,0-.5,0-.77.03l.38-.42,1.95-2.29v-.4h-2.94v.5h1.47c.2,0,.43,0,.69-.02l-2.29,2.63v.5h3.19v-.53Z"/>
  <path class="cls-9" d="M612.66,318.9c-.5,0-.9.17-1.21.5-.31.33-.47.8-.47,1.41s.15,1.04.46,1.37.73.49,1.25.49c.42,0,.76-.1,1.03-.3.27-.2.45-.49.55-.86l-.63-.08c-.09.26-.22.45-.38.56s-.35.18-.57.18c-.3,0-.55-.1-.75-.32-.2-.21-.31-.51-.34-.91h2.69c0-.07,0-.13,0-.16,0-.59-.15-1.06-.46-1.38-.3-.33-.7-.49-1.18-.49ZM611.64,320.44c.02-.31.13-.57.32-.75.19-.19.43-.28.71-.28.31,0,.56.12.76.35.13.15.2.38.23.68h-2.01Z"/>
  <g class="cls-2">
    <path class="cls-10" d="M134.2,335.34l1.57-2.12-1.38-1.94h.64l.74,1.04c.15.22.26.38.33.5.09-.15.2-.3.32-.46l.82-1.08h.58l-1.43,1.91,1.54,2.15h-.66l-1.02-1.45c-.06-.08-.12-.17-.18-.27-.09.15-.15.25-.19.3l-1.02,1.42h-.65Z"/>
  </g>
  <g class="cls-2">
    <path class="cls-10" d="M195.28,335.34v-1.72l-1.56-2.34h.65l.8,1.22c.15.23.29.46.41.69.12-.21.27-.45.44-.72l.79-1.19h.63l-1.62,2.34v1.72h-.54Z"/>
  </g>
  <g class="cls-2">
    <path class="cls-10" d="M253.5,335.34v-.5l2.08-2.6c.15-.18.29-.34.42-.48h-2.26v-.48h2.91v.48l-2.28,2.82-.25.29h2.59v.48h-3.21Z"/>
  </g>
  <g class="cls-2">
    <path class="cls-10" d="M311.13,335.34v-4.06h.81l.96,2.87c.09.27.15.47.19.6.05-.15.12-.36.22-.65l.97-2.82h.72v4.06h-.52v-3.4l-1.18,3.4h-.48l-1.17-3.46v3.46h-.52Z"/>
    <path class="cls-10" d="M317.54,335.34h-.5v-3.17c-.12.11-.28.23-.47.34-.19.11-.37.2-.52.26v-.48c.28-.13.52-.29.73-.48.21-.19.36-.37.44-.54h.32v4.08Z"/>
  </g>
  <g class="cls-2">
    <path class="cls-10" d="M370.66,335.34v-4.06h.81l.96,2.87c.09.27.15.47.19.6.05-.15.12-.36.22-.65l.97-2.82h.72v4.06h-.52v-3.4l-1.18,3.4h-.48l-1.17-3.46v3.46h-.52Z"/>
    <path class="cls-10" d="M377.81,334.86v.48h-2.68c0-.12.02-.24.06-.35.07-.18.18-.36.33-.54.15-.18.37-.38.65-.61.44-.36.74-.65.89-.86.16-.21.23-.41.23-.6s-.07-.36-.21-.5c-.14-.14-.33-.2-.55-.2-.24,0-.43.07-.58.22s-.22.34-.22.6l-.51-.05c.04-.38.17-.67.4-.87.23-.2.54-.3.92-.3s.7.11.92.32c.23.22.34.48.34.8,0,.16-.03.32-.1.48-.07.16-.18.32-.33.5s-.41.41-.77.71c-.3.25-.49.42-.58.51-.08.09-.16.18-.21.27h1.99Z"/>
  </g>
  <g class="cls-2">
    <path class="cls-10" d="M430.18,335.34v-4.06h.81l.96,2.87c.09.27.15.47.19.6.05-.15.12-.36.22-.65l.97-2.82h.72v4.06h-.52v-3.4l-1.18,3.4h-.48l-1.17-3.46v3.46h-.52Z"/>
    <path class="cls-10" d="M434.72,334.27l.5-.07c.06.28.15.49.29.61s.3.19.5.19c.23,0,.43-.08.59-.24.16-.16.24-.36.24-.6s-.08-.42-.22-.57-.34-.22-.57-.22c-.09,0-.21.02-.35.06l.06-.44s.06,0,.08,0c.21,0,.4-.06.57-.17.17-.11.25-.28.25-.51,0-.18-.06-.33-.19-.45-.12-.12-.28-.18-.48-.18s-.36.06-.48.18-.21.3-.25.55l-.5-.09c.06-.33.2-.59.42-.78.22-.18.48-.28.81-.28.22,0,.42.05.61.14.19.1.33.22.43.39.1.16.15.34.15.52s-.05.33-.14.48c-.09.14-.23.26-.42.34.24.06.43.17.56.34.13.17.2.39.2.66,0,.35-.13.65-.39.9-.26.25-.58.37-.98.37-.36,0-.65-.11-.89-.32-.24-.21-.37-.49-.4-.83Z"/>
  </g>
  <g class="cls-2">
    <path class="cls-10" d="M491.05,333.92l.54.14c-.11.44-.32.78-.61,1.01-.29.23-.65.35-1.07.35s-.79-.09-1.07-.27c-.27-.18-.48-.44-.62-.77-.14-.34-.21-.7-.21-1.09,0-.42.08-.79.24-1.11.16-.32.39-.55.69-.72.3-.16.63-.24.98-.24.41,0,.75.1,1.02.31.28.21.47.5.58.87l-.53.12c-.09-.29-.23-.51-.41-.64s-.4-.2-.68-.2c-.31,0-.57.08-.78.22-.21.15-.36.35-.44.6-.08.25-.13.51-.13.78,0,.35.05.65.15.9.1.26.26.45.47.58.21.13.44.19.69.19.3,0,.56-.09.76-.26.21-.17.35-.43.42-.77Z"/>
    <path class="cls-10" d="M492.22,335.34v-4.06h.54v3.58h2v.48h-2.54Z"/>
    <path class="cls-10" d="M495.38,335.34v-4.06h.54v2.01l2.02-2.01h.73l-1.7,1.64,1.78,2.41h-.71l-1.45-2.05-.66.65v1.41h-.54Z"/>
  </g>
  <g class="cls-2">
    <path class="cls-10" d="M547.53,335.34v-4.06h1.8c.36,0,.64.04.83.11.19.07.34.2.45.39.11.18.17.39.17.61,0,.29-.09.53-.28.73s-.47.32-.86.38c.14.07.25.14.32.2.16.14.3.32.45.54l.71,1.1h-.68l-.54-.84c-.16-.24-.29-.43-.39-.56s-.19-.22-.27-.27-.16-.09-.25-.11c-.06-.01-.16-.02-.3-.02h-.62v1.8h-.54ZM548.07,333.07h1.15c.25,0,.44-.03.58-.08.14-.05.24-.13.32-.24s.11-.23.11-.36c0-.19-.07-.35-.21-.47-.14-.12-.36-.19-.66-.19h-1.29v1.34Z"/>
    <path class="cls-10" d="M551.44,334.04l.51-.04c.02.2.08.37.17.5s.22.24.41.32c.18.08.39.12.62.12.21,0,.39-.03.54-.09.16-.06.27-.14.35-.25.08-.11.12-.22.12-.35s-.04-.24-.11-.33c-.07-.09-.2-.17-.37-.24-.11-.04-.35-.11-.72-.2-.37-.09-.63-.17-.78-.25-.19-.1-.34-.23-.43-.38-.1-.15-.14-.32-.14-.5,0-.21.06-.4.17-.57.12-.18.29-.31.51-.41.22-.09.47-.14.74-.14.3,0,.57.05.8.14.23.1.41.24.53.43.12.19.19.4.2.64l-.51.04c-.03-.26-.12-.45-.28-.58-.16-.13-.4-.2-.71-.2s-.56.06-.71.18-.22.26-.22.43c0,.15.05.27.16.36.1.09.37.19.81.29s.74.18.9.26c.24.11.41.25.52.41s.17.36.17.58-.06.42-.19.61c-.12.19-.3.34-.53.45s-.49.16-.78.16c-.37,0-.67-.05-.92-.16-.25-.11-.44-.27-.58-.48s-.22-.46-.22-.73Z"/>
    <path class="cls-10" d="M556.43,335.34v-3.58h-1.34v-.48h3.22v.48h-1.34v3.58h-.54Z"/>
  </g>
  <g class="cls-2">
    <path class="cls-10" d="M598.73,335.34v-4.06h2.74v.48h-2.2v1.26h1.9v.48h-1.9v1.84h-.54Z"/>
    <path class="cls-10" d="M602.18,335.34v-4.06h1.8c.36,0,.64.04.83.11.19.07.34.2.45.39.11.18.17.39.17.61,0,.29-.09.53-.28.73s-.47.32-.86.38c.14.07.25.14.32.2.16.14.3.32.45.54l.71,1.1h-.68l-.54-.84c-.16-.24-.29-.43-.39-.56s-.19-.22-.27-.27-.16-.09-.25-.11c-.06-.01-.16-.02-.3-.02h-.62v1.8h-.54ZM602.71,333.07h1.15c.25,0,.44-.03.58-.08.14-.05.24-.13.32-.24s.11-.23.11-.36c0-.19-.07-.35-.21-.47-.14-.12-.36-.19-.66-.19h-1.29v1.34Z"/>
    <path class="cls-10" d="M605.94,335.34v-.5l2.08-2.6c.15-.18.29-.34.42-.48h-2.26v-.48h2.91v.48l-2.28,2.82-.25.29h2.59v.48h-3.21Z"/>
  </g>
  <path class="cls-3" d="M102.05,294.8h476.22"/>
  <path class="cls-3" d="M65.2,260.79c76.54,8.5,476.22,8.5,549.92,0"/>
  <path class="cls-4" d="M61.8,30.33l-9.64,8.79"/>
  <path class="cls-4" d="M629.29,30.33l9.64,8.79"/>
  <path class="cls-3" d="M49.04,45.35v289.13"/>
  <path class="cls-3" d="M632.13,45.35v289.13"/>
</svg>